<?xml version="1.0" standalone="no"?><!-- Generator: Gravit.io --><svg xmlns="http://www.w3.org/2000/svg" xmlns:xlink="http://www.w3.org/1999/xlink" style="isolation:isolate" viewBox="0 0 60 60" width="60" height="60"><defs><clipPath id="_clipPath_a8cVoleyUA1wCpfVT4xLeG2iSPHlPsWP"><rect width="60" height="60"/></clipPath></defs><g clip-path="url(#_clipPath_a8cVoleyUA1wCpfVT4xLeG2iSPHlPsWP)"><g id="calendar-2027122"><g id="Group"><path d=" M 0.025 29.987 C 0.025 13.437 13.462 0 30.013 0 C 46.563 0 60 13.437 60 29.987 C 60 46.538 46.563 59.975 30.013 59.975 C 13.462 59.975 0.025 46.538 0.025 29.987 Z " fill="rgb(23,162,184)"/><g opacity="0.42"><linearGradient id="_lgradient_1" x1="29.34640307342249%" y1="74.0805449058533%" x2="74.61672904746987%" y2="29.192469815879683%"><stop offset="27.53039840541634%" stop-opacity="1" style="stop-color:rgb(0,0,0)"/><stop offset="72.80072437946372%" stop-opacity="1" style="stop-color:rgb(0,0,0)"/></linearGradient><path d=" M 18.767 14.146 L 17.201 15.971 L 15.65 15.971 C 15.273 15.971 14.94 16.158 14.736 16.443 L 0.035 31.143 C 0.484 49.054 15.253 60.779 31.372 59.96 L 45.503 45.828 L 45.503 20.035 L 45.5 20.035 L 45.5 17.095 C 45.5 16.474 44.996 15.97 44.375 15.97 L 41.539 15.97 L 41.258 16.493 L 41.258 14.145 L 40.074 14.145 L 38.508 15.971 L 30.886 15.971 L 30.605 16.493 L 30.605 14.145 L 29.422 14.145 L 27.855 15.971 L 20.233 15.971 L 19.952 16.493 L 19.952 14.145 L 18.767 14.146 Z " fill-rule="evenodd" fill="url(#_lgradient_1)"/></g><path d=" M 18.767 14.146 L 18.767 18.732 L 19.951 18.732 L 19.951 14.146 L 18.767 14.146 Z  M 29.421 14.146 L 29.421 18.732 L 30.605 18.732 L 30.605 14.146 L 29.421 14.146 Z  M 40.074 14.146 L 40.074 18.732 L 41.258 18.732 L 41.258 14.146 L 40.074 14.146 Z  M 15.65 15.971 C 15.029 15.971 14.526 16.475 14.526 17.096 L 14.526 20.036 L 14.522 20.036 L 14.522 45.829 L 45.503 45.829 L 45.503 20.036 L 45.5 20.036 L 45.5 17.096 C 45.5 16.475 44.996 15.971 44.375 15.971 L 41.539 15.971 L 41.539 19.013 L 39.793 19.013 L 39.793 15.971 L 30.886 15.971 L 30.886 19.013 L 29.14 19.013 L 29.14 15.971 L 20.233 15.971 L 20.233 19.013 L 18.487 19.013 L 18.487 15.971 L 15.65 15.971 L 15.65 15.971 Z  M 16.333 21.432 L 43.692 21.432 L 43.692 24.377 L 16.333 24.377 L 16.333 21.432 L 16.333 21.432 Z  M 16.333 27.216 L 20.906 27.216 L 20.906 31.789 L 16.333 31.789 L 16.333 27.216 L 16.333 27.216 Z  M 22.03 27.216 L 26.603 27.216 L 26.603 31.789 L 22.03 31.789 L 22.03 27.216 Z  M 27.726 27.216 L 32.299 27.216 L 32.299 31.789 L 27.726 31.789 L 27.726 27.216 Z  M 33.423 27.216 L 37.996 27.216 L 37.996 31.789 L 33.423 31.789 L 33.423 27.216 Z  M 39.119 27.216 L 43.692 27.216 L 43.692 31.789 L 39.119 31.789 L 39.119 27.216 Z  M 16.333 33.363 L 20.906 33.363 L 20.906 37.936 L 16.333 37.936 L 16.333 33.363 Z  M 22.03 33.363 L 26.603 33.363 L 26.603 37.936 L 22.03 37.936 L 22.03 33.363 Z  M 27.726 33.363 L 32.299 33.363 L 32.299 37.936 L 27.726 37.936 L 27.726 33.363 Z  M 33.423 33.363 L 37.996 33.363 L 37.996 37.936 L 33.423 37.936 L 33.423 33.363 Z  M 39.119 33.363 L 43.692 33.363 L 43.692 37.936 L 39.119 37.936 L 39.119 33.363 Z  M 16.333 39.511 L 20.906 39.511 L 20.906 44.084 L 16.333 44.084 L 16.333 39.511 Z  M 22.03 39.511 L 26.603 39.511 L 26.603 44.084 L 22.03 44.084 L 22.03 39.511 Z  M 27.726 39.511 L 32.299 39.511 L 32.299 44.084 L 27.726 44.084 L 27.726 39.511 Z  M 33.423 39.511 L 37.996 39.511 L 37.996 44.084 L 33.423 44.084 L 33.423 39.511 Z  M 39.119 39.511 L 43.692 39.511 L 43.692 44.084 L 39.119 44.084 L 39.119 39.511 Z " fill-rule="evenodd" fill="rgb(255,255,255)"/></g></g></g></svg>