<?xml version="1.0" standalone="no"?><!-- Generator: Gravit.io --><svg xmlns="http://www.w3.org/2000/svg" xmlns:xlink="http://www.w3.org/1999/xlink" style="isolation:isolate" viewBox="0 0 800 800" width="800" height="800"><defs><clipPath id="_clipPath_lpCrHabeO15aeoWHql30Fuly1BvRZEhN"><rect width="800" height="800"/></clipPath></defs><g clip-path="url(#_clipPath_lpCrHabeO15aeoWHql30Fuly1BvRZEhN)"><path d=" M 0 400 C 0 179.234 179.234 0 400 0 C 620.766 0 800 179.234 800 400 C 800 620.766 620.766 800 400 800 C 179.234 800 0 620.766 0 400 Z " fill="rgb(23,162,184)"/><g opacity="0.42"><linearGradient id="_lgradient_0" x1="32.63927406097128%" y1="72.35918190599911%" x2="75.69526683889065%" y2="29.305985809933034%"><stop offset="30.139319865218926%" stop-opacity="1" style="stop-color:rgb(0,0,0)"/><stop offset="73.19531264313828%" stop-opacity="1" style="stop-color:rgb(0,0,0)"/></linearGradient><path d=" M 399.79 188.77 C 340.656 188.77 287.24 213.12 248.94 252.321 L 10.86 490.401 C 45.4 638.706 161.149 754.537 309.43 789.181 L 547.6 551.011 C 586.865 512.652 611.241 459.154 611.241 399.991 C 611.241 283.391 516.611 188.761 399.801 188.761 L 399.79 188.77 Z " fill="url(#_lgradient_0)"/></g><path d=" M 399.79 188.77 C 283.19 188.77 188.77 283.399 188.77 400 C 188.77 516.6 283.188 611.23 399.79 611.23 C 516.6 611.23 611.23 516.599 611.23 400 C 611.23 283.4 516.599 188.77 399.79 188.77 Z  M 400.001 231.014 C 493.364 231.014 568.981 306.634 568.981 399.994 C 568.981 493.357 493.361 568.974 400.001 568.974 C 306.638 568.974 231.021 493.354 231.021 399.994 C 231.021 306.631 306.641 231.014 400.001 231.014 L 400.001 231.014 Z  M 378.88 294.384 L 378.88 421.124 L 489.77 487.661 L 505.613 461.68 L 410.56 405.281 L 410.56 294.391 L 378.877 294.391 L 378.88 294.384 Z " fill="rgb(255,255,255)"/></g></svg>