<?xml version="1.0" standalone="no"?><!-- Generator: Gravit.io --><svg xmlns="http://www.w3.org/2000/svg" xmlns:xlink="http://www.w3.org/1999/xlink" style="isolation:isolate" viewBox="0 0 60 60" width="60" height="60"><defs><clipPath id="_clipPath_uLyr7IjCd1gRoH5U2MnV1ZlutUp7Lvc8"><rect width="60" height="60"/></clipPath></defs><g clip-path="url(#_clipPath_uLyr7IjCd1gRoH5U2MnV1ZlutUp7Lvc8)"><path d=" M 12.703 40.088 Q 14.576 45.491 8.947 49.628 Q 3.318 53.764 19.585 47.257 C 23.472 49.786 28.209 51.062 33.18 50.588 C 44.906 49.471 53.519 39.045 52.403 27.32 C 51.286 15.594 40.86 6.981 29.134 8.097 C 17.408 9.214 8.795 19.64 9.912 31.366 C 10.205 34.443 11.139 37.306 12.58 39.828" fill="none" vector-effect="non-scaling-stroke" stroke-width="1.5" stroke="rgb(255,255,0)" stroke-linejoin="miter" stroke-linecap="square" stroke-miterlimit="3"/><path d=" M 18.213 29.618 C 18.213 27.856 19.643 26.426 21.404 26.426 C 23.166 26.426 24.596 27.856 24.596 29.618 C 24.596 31.379 23.166 32.809 21.404 32.809 C 19.643 32.809 18.213 31.379 18.213 29.618 Z " fill="rgb(255,255,0)"/><path d=" M 37.404 29.618 C 37.404 27.856 38.834 26.426 40.596 26.426 C 42.357 26.426 43.787 27.856 43.787 29.618 C 43.787 31.379 42.357 32.809 40.596 32.809 C 38.834 32.809 37.404 31.379 37.404 29.618 Z " fill="rgb(255,255,0)"/><path d=" M 28.022 29.618 C 28.022 27.856 29.452 26.426 31.213 26.426 C 32.974 26.426 34.404 27.856 34.404 29.618 C 34.404 31.379 32.974 32.809 31.213 32.809 C 29.452 32.809 28.022 31.379 28.022 29.618 Z " fill="rgb(255,255,0)"/></g></svg>