<?xml version="1.0" standalone="no"?><!-- Generator: Gravit.io --><svg xmlns="http://www.w3.org/2000/svg" xmlns:xlink="http://www.w3.org/1999/xlink" style="isolation:isolate" viewBox="0 0 60 60" width="60" height="60"><defs><clipPath id="_clipPath_e2JjwKzDeHdmy68241jcJwvNNe0lniBl"><rect width="60" height="60"/></clipPath></defs><g clip-path="url(#_clipPath_e2JjwKzDeHdmy68241jcJwvNNe0lniBl)"><path d=" M 57.347 40.704 C 53.074 51.633 42.434 59.375 30 59.375 C 13.787 59.375 0.625 46.213 0.625 30 C 0.625 13.787 13.787 0.625 30 0.625 C 46.213 0.625 59.375 13.787 59.375 30 C 59.375 33.778 58.66 37.391 57.347 40.704" fill="rgb(23,162,184)"/><path d=" M 59.494 30.367 C 59.3 46.48 46.159 59.5 30 59.5 C 25.665 59.5 21.548 58.563 17.845 56.868 Q 9.372 41.418 11 42 L 48 16 L 59.494 30.367 L 59.494 30.367 Z " fill="rgb(0,0,0)" fill-opacity="0.3"/><g id="Group"><path d="M 13.909 15.125 L 45.741 15.125 C 47.629 15.125 49.162 16.658 49.162 18.546 L 49.162 41.454 C 49.162 43.342 47.629 44.875 45.741 44.875 L 13.909 44.875 C 12.021 44.875 10.487 43.342 10.487 41.454 L 10.487 18.546 C 10.487 16.658 12.021 15.125 13.909 15.125 Z" style="stroke:none;fill:#17A2B8;stroke-miterlimit:10;"/><path d="M 13.909 15.125 L 45.741 15.125 C 47.629 15.125 49.162 16.658 49.162 18.546 L 49.162 41.454 C 49.162 43.342 47.629 44.875 45.741 44.875 L 13.909 44.875 C 12.021 44.875 10.487 43.342 10.487 41.454 L 10.487 18.546 C 10.487 16.658 12.021 15.125 13.909 15.125 Z" style="fill:none;stroke:#FFFF00;stroke-width:1;stroke-linecap:square;stroke-miterlimit:3;"/><path d="M 12.965 15.125 L 46.685 15.125 C 48.052 15.125 49.162 16.235 49.162 17.603 L 49.162 18.597 C 49.162 19.965 48.052 21.075 46.685 21.075 L 12.965 21.075 C 11.598 21.075 10.487 19.965 10.487 18.597 L 10.487 17.603 C 10.487 16.235 11.598 15.125 12.965 15.125 Z" style="stroke:none;fill:#FFFF00;stroke-linecap:square;stroke-miterlimit:3;"/><g transform="matrix(1.488,0,0,1.488,9,15.125)"><text transform="matrix(1,0,0,1,3.618,2.184)" style="font-family:&quot;Nosifer&quot;;font-weight:400;font-size:2px;font-style:normal;fill:#000000;stroke:none;">Shady GARAGE</text></g><rect x="10.487" y="19.587" width="38.675" height="1.487" transform="matrix(1,0,0,1,0,0)" fill="rgb(255,255,0)"/><path d=" M 15.508 41.9 L 45.444 41.9 L 35.031 31.488 L 28.523 37.995 L 23.875 34.463 L 14.206 41.9 L 15.508 41.9 Z " fill="rgb(255,255,255)"/><path d=" M 25.363 29.256 C 25.363 28.025 26.362 27.025 27.594 27.025 C 28.825 27.025 29.825 28.025 29.825 29.256 C 29.825 30.488 28.825 31.488 27.594 31.488 C 26.362 31.488 25.363 30.488 25.363 29.256 Z " fill="rgb(255,255,255)"/></g></g></svg>