<?xml version="1.0" standalone="no"?><!-- Generator: Gravit.io --><svg xmlns="http://www.w3.org/2000/svg" xmlns:xlink="http://www.w3.org/1999/xlink" style="isolation:isolate" viewBox="0 0 60 60" width="60" height="60"><defs><clipPath id="_clipPath_oGfo7z3SWL5VeQ8lyBcIMojAU9bAdod9"><rect width="60" height="60"/></clipPath></defs><g clip-path="url(#_clipPath_oGfo7z3SWL5VeQ8lyBcIMojAU9bAdod9)"><g id="if_map-marker_299087"/><g id="Group"><path d=" M 1 30 C 1 13.994 13.994 1 30 1 C 46.006 1 59 13.994 59 30 C 59 46.006 46.006 59 30 59 C 13.994 59 1 46.006 1 30 Z " fill="rgb(23,162,184)"/><g opacity="0.42"><linearGradient id="_lgradient_0" x1="0%" y1="50%" x2="70.71067811865476%" y2="-20.710678118654748%"><stop offset="43.1161032497016%" stop-opacity="1" style="stop-color:rgb(0,0,0)"/><stop offset="61.65428839062403%" stop-opacity="1" style="stop-color:rgb(0,0,0)"/></linearGradient><path d=" M 1 33.883 C 3.504 45.793 11.25 55.094 22 57.876 L 31 47.661 L 34 41.661 L 42 25.123 L 42 23.661 C 41.303 15.001 37.998 9.661 29.986 9.661 L 29.985 9.661 C 25.698 9.661 21.825 11.617 19.048 14.765 L 1 33.883" fill="url(#_lgradient_0)"/></g></g><path d=" M 30.667 9.661 C 23.119 9.661 17 15.779 17 23.327 C 17 25.755 17.652 28.025 18.762 30 C 18.946 30.328 19.139 30.651 19.349 30.962 L 30.667 50.661 L 41.984 30.962 C 42.159 30.704 42.309 30.431 42.464 30.161 L 42.572 30 C 43.681 28.025 44.333 25.755 44.333 23.327 C 44.333 15.779 38.214 9.661 30.667 9.661 Z  M 30.667 16.494 C 34.44 16.494 37.5 19.553 37.5 23.327 C 37.5 27.101 34.44 30.161 30.667 30.161 C 26.893 30.161 23.833 27.101 23.833 23.327 C 23.833 19.553 26.893 16.494 30.667 16.494 Z " fill="rgb(255,255,255)"/></g></svg>