<?xml version="1.0" standalone="no"?><!-- Generator: Gravit.io --><svg xmlns="http://www.w3.org/2000/svg" xmlns:xlink="http://www.w3.org/1999/xlink" style="isolation:isolate" viewBox="0 0 60 60" width="60" height="60"><defs><clipPath id="_clipPath_IfzYqyTvHMLi6XTV0E6SJzDuPL17gojU"><rect width="60" height="60"/></clipPath></defs><g clip-path="url(#_clipPath_IfzYqyTvHMLi6XTV0E6SJzDuPL17gojU)"><path d=" M 57.347 40.704 C 53.074 51.633 42.434 59.375 30 59.375 C 13.787 59.375 0.625 46.213 0.625 30 C 0.625 13.787 13.787 0.625 30 0.625 C 46.213 0.625 59.375 13.787 59.375 30 C 59.375 33.778 58.66 37.391 57.347 40.704" fill="rgb(23,162,184)"/><path d=" M 59.494 30.367 C 59.3 46.48 46.159 59.5 30 59.5 C 25.665 59.5 21.548 58.563 17.845 56.868 Q 9.372 41.418 11 42 L 48 16 L 59.494 30.367 L 59.494 30.367 Z " fill="rgb(0,0,0)" fill-opacity="0.3"/><g id="Group"><path d="M 13.909 15.125 L 45.741 15.125 C 47.629 15.125 49.162 16.658 49.162 18.546 L 49.162 41.454 C 49.162 43.342 47.629 44.875 45.741 44.875 L 13.909 44.875 C 12.021 44.875 10.487 43.342 10.487 41.454 L 10.487 18.546 C 10.487 16.658 12.021 15.125 13.909 15.125 Z" style="stroke:none;fill:#17A2B8;stroke-miterlimit:10;"/><path d="M 13.909 15.125 L 45.741 15.125 C 47.629 15.125 49.162 16.658 49.162 18.546 L 49.162 41.454 C 49.162 43.342 47.629 44.875 45.741 44.875 L 13.909 44.875 C 12.021 44.875 10.487 43.342 10.487 41.454 L 10.487 18.546 C 10.487 16.658 12.021 15.125 13.909 15.125 Z" style="fill:none;stroke:#FFFF00;stroke-width:1;stroke-linecap:square;stroke-miterlimit:3;"/><path d="M 12.965 15.125 L 46.685 15.125 C 48.052 15.125 49.162 16.235 49.162 17.603 L 49.162 18.597 C 49.162 19.965 48.052 21.075 46.685 21.075 L 12.965 21.075 C 11.598 21.075 10.487 19.965 10.487 18.597 L 10.487 17.603 C 10.487 16.235 11.598 15.125 12.965 15.125 Z" style="stroke:none;fill:#FFFF00;stroke-linecap:square;stroke-miterlimit:3;"/><g transform="matrix(1.488,0,0,1.488,9,15.125)"><text transform="matrix(1,0,0,1,3.618,2.184)" style="font-family:&quot;Nosifer&quot;;font-weight:400;font-size:2px;font-style:normal;fill:#000000;stroke:none;">Shady GARAGE</text></g><rect x="10.487" y="19.587" width="38.675" height="1.487" transform="matrix(1,0,0,1,0,0)" fill="rgb(255,255,0)"/></g><path d="M 17.857 39 L 42.143 39 C 42.892 39 43.5 39.608 43.5 40.357 L 43.5 40.643 C 43.5 41.392 42.892 42 42.143 42 L 17.857 42 C 17.108 42 16.5 41.392 16.5 40.643 L 16.5 40.357 C 16.5 39.608 17.108 39 17.857 39 Z" style="stroke:none;fill:#EBEBEB;stroke-linecap:square;stroke-miterlimit:3;"/><path d="M 17.857 34 L 42.143 34 C 42.892 34 43.5 34.608 43.5 35.357 L 43.5 35.643 C 43.5 36.392 42.892 37 42.143 37 L 17.857 37 C 17.108 37 16.5 36.392 16.5 35.643 L 16.5 35.357 C 16.5 34.608 17.108 34 17.857 34 Z" style="stroke:none;fill:#EBEBEB;stroke-linecap:square;stroke-miterlimit:3;"/><path d="M 17.857 29 L 42.143 29 C 42.892 29 43.5 29.608 43.5 30.357 L 43.5 30.643 C 43.5 31.392 42.892 32 42.143 32 L 17.857 32 C 17.108 32 16.5 31.392 16.5 30.643 L 16.5 30.357 C 16.5 29.608 17.108 29 17.857 29 Z" style="stroke:none;fill:#EBEBEB;stroke-linecap:square;stroke-miterlimit:3;"/><path d="M 17.857 24 L 42.143 24 C 42.892 24 43.5 24.608 43.5 25.357 L 43.5 25.643 C 43.5 26.392 42.892 27 42.143 27 L 17.857 27 C 17.108 27 16.5 26.392 16.5 25.643 L 16.5 25.357 C 16.5 24.608 17.108 24 17.857 24 Z" style="stroke:none;fill:#EBEBEB;stroke-linecap:square;stroke-miterlimit:3;"/></g></svg>