<?xml version="1.0" standalone="no"?><!-- Generator: Gravit.io --><svg xmlns="http://www.w3.org/2000/svg" xmlns:xlink="http://www.w3.org/1999/xlink" style="isolation:isolate" viewBox="0 0 130 130" width="130" height="130"><defs><clipPath id="_clipPath_2bs2t0IHSiyNkfJiucF38yq2mKYjYj9T"><rect width="130" height="130"/></clipPath></defs><g clip-path="url(#_clipPath_2bs2t0IHSiyNkfJiucF38yq2mKYjYj9T)"><g style="isolation:isolate" id="Layer 0"><path d=" M 55.094 78.781 L 44.406 83.469 L 26.781 83.281 Q 26.344 82.469 26.156 81.156 C 25.969 79.844 25.281 69.094 25.594 66.094 C 25.906 63.094 26.156 59.844 26.531 58.781 C 26.906 57.719 29.969 57.969 31.969 55.406 Q 33.969 52.844 39.813 45.656 Q 47.406 44.5 64.281 44.5" fill="none" vector-effect="non-scaling-stroke" stroke-width="1" stroke="rgb(255,255,255)" stroke-linejoin="miter" stroke-linecap="square" stroke-miterlimit="3"/><path d=" M 74.201 78.781 L 84.888 83.469 L 102.513 83.281 Q 102.951 82.469 103.138 81.156 C 103.326 79.844 104.013 69.094 103.701 66.094 C 103.388 63.094 103.138 59.844 102.763 58.781 C 102.388 57.719 99.326 57.969 97.326 55.406 Q 95.326 52.844 89.482 45.656 Q 81.888 44.5 65.013 44.5" fill="none" vector-effect="non-scaling-stroke" stroke-width="1" stroke="rgb(255,255,255)" stroke-linejoin="miter" stroke-linecap="square" stroke-miterlimit="3"/><path d=" M 47.156 82.563 Q 50.169 83.438 64.937 83.438" fill="none" vector-effect="non-scaling-stroke" stroke-width="1" stroke="rgb(255,255,255)" stroke-linejoin="miter" stroke-linecap="square" stroke-miterlimit="3"/><path d=" M 81.719 82.563 Q 78.378 83.438 62 83.438" fill="none" vector-effect="non-scaling-stroke" stroke-width="1" stroke="rgb(255,255,255)" stroke-linejoin="miter" stroke-linecap="square" stroke-miterlimit="3"/><path d=" M 65.188 77.344 L 53.688 77.344 L 43.563 81.469 L 32.156 81.219 L 30.594 78.594 Q 34.469 72.469 35.281 72.406 Q 36.094 72.344 52.656 75.844 L 65.219 75.906" fill="none" vector-effect="non-scaling-stroke" stroke-width="0.6" stroke="rgb(255,255,255)" stroke-linejoin="miter" stroke-linecap="square" stroke-miterlimit="3"/><path d=" M 64.719 77.344 L 76.219 77.344 L 86.344 81.469 L 97.75 81.219 L 99.313 78.594 Q 95.438 72.469 94.625 72.406 Q 93.813 72.344 77.25 75.844 L 64.688 75.906" fill="none" vector-effect="non-scaling-stroke" stroke-width="0.6" stroke="rgb(255,255,255)" stroke-linejoin="miter" stroke-linecap="square" stroke-miterlimit="3"/><path d=" M 32.563 54.938 L 51.188 56.063 L 80.438 56.063 L 96.313 54.563" fill="none" vector-effect="non-scaling-stroke" stroke-width="0.6" stroke="rgb(255,255,255)" stroke-linejoin="miter" stroke-linecap="square" stroke-miterlimit="3"/><path d=" M 33.125 54.938 L 45.852 66.396 L 60.415 67.813 Q 60.415 66.654 65.188 66.654" fill="none" vector-effect="non-scaling-stroke" stroke-width="0.6" stroke="rgb(255,255,255)" stroke-linejoin="miter" stroke-linecap="square" stroke-miterlimit="3"/><path d=" M 96.375 54.812 L 83.896 66.383 L 69.617 67.813 Q 69.617 66.643 64.938 66.643" fill="none" vector-effect="non-scaling-stroke" stroke-width="0.6" stroke="rgb(255,255,255)" stroke-linejoin="miter" stroke-linecap="square" stroke-miterlimit="3"/></g><path d=" M 30.641 62.109 L 33.391 66.797 L 40.578 68.266 Q 41.234 68.391 41.828 67.953 Q 42.422 67.516 43.828 66.359 L 30.922 61.609 Q 30.484 61.703 30.641 62.109 Z " fill="rgb(255,255,255)" vector-effect="non-scaling-stroke" stroke-width="0.3" stroke="rgb(255,255,255)" stroke-linejoin="miter" stroke-linecap="square" stroke-miterlimit="3"/><line x1="31.844" y1="62.828" x2="34.844" y2="66.734" vector-effect="non-scaling-stroke" stroke-width="0.3" stroke="rgb(255,255,0)" stroke-linejoin="miter" stroke-linecap="square" stroke-miterlimit="3"/><path d=" M 36.438 66.984 L 35.688 66.427 L 36.75 65.547" fill="none" vector-effect="non-scaling-stroke" stroke-width="0.3" stroke="rgb(255,255,0)" stroke-linejoin="miter" stroke-linecap="square" stroke-miterlimit="3"/><path d=" M 37.438 64.359 L 37.813 65.797 L 39.563 67.641" fill="none" vector-effect="non-scaling-stroke" stroke-width="0.3" stroke="rgb(255,255,0)" stroke-linejoin="miter" stroke-linecap="square" stroke-miterlimit="3"/><path d=" M 40.938 67.797 L 40.625 67.547 L 42.125 66.203" fill="none" vector-effect="non-scaling-stroke" stroke-width="0.3" stroke="rgb(255,255,0)" stroke-linejoin="miter" stroke-linecap="square" stroke-miterlimit="3"/><path d=" M 99.6 61.984 L 96.85 66.672 L 89.662 68.141 Q 89.006 68.266 88.412 67.828 Q 87.818 67.391 86.412 66.234 L 99.318 61.484 Q 99.756 61.578 99.6 61.984 Z " fill="rgb(255,255,255)" vector-effect="non-scaling-stroke" stroke-width="0.3" stroke="rgb(255,255,255)" stroke-linejoin="miter" stroke-linecap="square" stroke-miterlimit="3"/><line x1="98.396" y1="62.703" x2="95.396" y2="66.609" vector-effect="non-scaling-stroke" stroke-width="0.3" stroke="rgb(255,255,0)" stroke-linejoin="miter" stroke-linecap="square" stroke-miterlimit="3"/><path d=" M 93.803 66.859 L 94.553 66.302 L 93.49 65.422" fill="none" vector-effect="non-scaling-stroke" stroke-width="0.3" stroke="rgb(255,255,0)" stroke-linejoin="miter" stroke-linecap="square" stroke-miterlimit="3"/><path d=" M 92.803 64.234 L 92.428 65.672 L 90.678 67.516" fill="none" vector-effect="non-scaling-stroke" stroke-width="0.3" stroke="rgb(255,255,0)" stroke-linejoin="miter" stroke-linecap="square" stroke-miterlimit="3"/><path d=" M 89.303 67.672 L 89.615 67.422 L 88.115 66.078" fill="none" vector-effect="non-scaling-stroke" stroke-width="0.3" stroke="rgb(255,255,0)" stroke-linejoin="miter" stroke-linecap="square" stroke-miterlimit="3"/><g id="Group"><path d=" M 65.125 70.172 Q 63.438 69.172 63.813 68.391 Q 63.594 68.172 65.063 68.172" fill="none" vector-effect="non-scaling-stroke" stroke-width="0.3" stroke="rgb(255,255,255)" stroke-linejoin="miter" stroke-linecap="square" stroke-miterlimit="3"/><path d=" M 65.221 70.172 Q 66.908 69.172 66.533 68.391 Q 66.752 68.172 65.283 68.172" fill="none" vector-effect="non-scaling-stroke" stroke-width="0.3" stroke="rgb(255,255,255)" stroke-linejoin="miter" stroke-linecap="square" stroke-miterlimit="3"/></g><path d=" M 29.109 57.156 L 27.797 55.875 L 27.484 56.75 L 23.484 56.625 L 21.922 54.313 L 23.078 52.906 L 28.984 52.906 L 29.859 54.281 L 29.422 54.844 L 30.828 56.375 L 29.109 57.156 Z " fill="none" vector-effect="non-scaling-stroke" stroke-width="0.6" stroke="rgb(255,255,255)" stroke-linejoin="miter" stroke-linecap="square" stroke-miterlimit="3"/><path d=" M 99.516 56.906 L 100.828 55.625 L 101.141 56.5 L 105.141 56.375 L 106.703 54.063 L 105.547 52.656 L 99.641 52.656 L 98.766 54.031 L 99.203 54.594 L 97.797 56.125 L 99.516 56.906 Z " fill="none" vector-effect="non-scaling-stroke" stroke-width="0.6" stroke="rgb(255,255,255)" stroke-linejoin="miter" stroke-linecap="square" stroke-miterlimit="3"/></g></svg>