<?xml version="1.0" standalone="no"?><!-- Generator: Gravit.io --><svg xmlns="http://www.w3.org/2000/svg" xmlns:xlink="http://www.w3.org/1999/xlink" style="isolation:isolate" viewBox="0 0 60 60" width="60" height="60"><defs><clipPath id="_clipPath_MnRD3POhsEJWjHN8M4CO6dkag4O0fzkO"><rect width="60" height="60"/></clipPath></defs><g clip-path="url(#_clipPath_MnRD3POhsEJWjHN8M4CO6dkag4O0fzkO)"><g id="Group"><path d=" M 34.544 2 L 35.552 2.053 L 34.544 2.106 L 34.544 2 Z " fill="rgb(135,94,73)"/><path d=" M 34.332 2.106 C 35.523 2.01 36.916 2.19 37.569 3.327 L 37.569 3.327 L 38.1 4.707 L 37.994 4.919 L 38.206 4.919 L 38.206 5.131 L 38.1 5.45 L 38.312 6.193 C 37.932 6.471 38.096 7.097 38.206 7.466 L 38.206 7.466 L 38.312 7.785 Q 37.613 10.642 38.1 14.684 Q 38.216 22.602 37.781 29.968 Q 37.835 31.454 38.577 32.251 L 38.737 32.304 L 38.896 32.569 C 38.989 32.4 39.096 32.478 39.161 32.622 L 39.161 32.622 L 39.214 32.781 L 39.373 32.728 L 39.426 32.887 L 39.639 32.781 L 39.904 32.94 L 39.957 33.1 L 40.169 32.994 Q 40.329 33.365 40.488 33.1 Q 41.019 32.994 41.125 33.312 Q 44.592 32.905 46.379 30.818 Q 48.539 28.52 53.119 28.642 Q 55.161 28.881 56.144 30.181 Q 56.522 30.386 56.462 31.03 Q 56.479 32.267 55.772 32.781 Q 49.789 34.971 45.636 38.991 L 45.583 39.15 L 44.362 40.264 L 44.203 40.53 L 43.301 41.326 L 42.398 42.44 L 42.239 42.493 L 41.868 43.077 L 41.602 43.236 L 39.32 45.624 Q 36.42 49.995 30.139 51.568 C 29.37 53.807 26.169 53.738 22.656 52.311 C 19.271 52.786 16.495 51.531 14.324 48.543 L 14.165 48.278 L 13.581 47.8 C 10.534 44.347 9.297 39.253 9.866 32.516 Q 10.105 32.383 9.972 31.879 L 9.972 31.667 L 10.078 28.801 C 9.48 26.243 9.059 23.657 8.725 21.053 C 8.424 18.709 8.312 16.415 7.372 14.206 L 7.372 14.206 L 7.212 14.153 C 7.413 13.73 7.387 13.224 7.318 12.773 L 7.318 12.773 L 7.212 12.561 L 7.425 12.455 L 7.318 12.137 L 7.531 12.03 L 7.478 11.871 L 7.637 11.818 L 7.531 11.606 L 8.221 10.704 C 9.408 9.37 11.979 10.044 12.732 11.5 L 12.732 11.5 L 12.944 12.03 L 12.891 12.19 L 13.05 12.243 L 12.944 12.455 L 13.156 12.561 L 13.05 12.773 L 13.262 12.88 L 13.156 13.198 L 13.369 13.304 L 13.262 13.516 C 13.668 16.553 14.297 19.565 15.226 22.485 L 15.226 22.485 L 15.332 22.167 L 15.385 22.432 L 15.279 22.645 L 15.598 22.751 L 15.704 23.175 L 15.704 23.388 C 16.002 26.121 16.463 28.84 17.137 31.508 L 17.137 31.508 L 17.296 31.561 L 17.19 31.773 C 17.899 33.624 19.735 34.318 21.595 34.267 L 21.595 34.267 L 21.807 34.267 L 22.921 34.108 L 22.974 33.949 L 23.187 33.949 C 23.876 33.668 24.491 33.221 24.938 32.622 L 24.938 32.622 L 24.885 32.463 L 26.106 33.365 L 25.84 33.524 Q 25.708 33.285 25.203 33.418 Q 23.706 35.158 20.321 35.01 Q 18.298 34.698 17.296 33.365 Q 15.91 31.673 15.916 28.589 Q 16.042 25.49 14.748 23.812 Q 13.849 23.173 13.793 21.689 Q 13.202 20.263 13.262 18.187 Q 13.391 13.547 11.617 10.81 L 10.927 10.438 L 10.98 10.279 Q 9.335 10.067 8.804 10.969 Q 8.418 12.069 8.38 13.516 Q 8.505 15.514 9.123 17.019 Q 9.692 18.413 9.547 20.522 Q 9.39 23.386 10.237 25.245 Q 11.275 28.453 11.14 32.834 Q 11.154 36.481 11.936 39.362 L 12.095 39.415 C 12.014 40.059 12.187 40.422 12.479 40.955 C 12.881 41.687 13.114 42.46 13.209 43.289 L 13.209 43.289 L 13.369 43.342 L 13.422 43.502 L 13.581 43.555 L 13.74 44.245 L 13.899 44.298 L 13.952 44.457 L 14.112 44.51 C 14.071 44.794 14.083 45.159 14.377 45.306 L 14.377 45.306 L 14.536 45.359 L 14.589 45.518 L 15.279 45.996 L 15.651 46.686 C 15.966 41.583 16.31 41.724 16.553 47.164 L 16.553 47.164 L 16.606 47.323 L 17.508 47.694 L 17.561 47.96 L 17.827 48.013 L 17.88 48.172 C 18.614 48.138 18.329 43.282 18.782 43.926 L 19.896 48.915 L 20.109 48.915 L 21.117 49.18 L 21.17 49.339 L 21.117 40.954 L 22.762 49.339 L 23.187 49.658 C 23.31 49.429 23.596 49.416 23.824 49.446 L 23.824 49.446 L 23.93 49.658 C 24.541 49.773 24.466 47.405 24.938 46.898 L 25.84 49.339 L 28.547 48.756 L 28.706 48.49 C 29.693 48.406 30.693 48.155 31.519 47.588 L 31.519 47.588 L 31.572 47.429 C 31.802 47.465 32.102 47.475 32.262 47.27 L 32.262 47.27 L 32.421 47.004 L 33.323 46.633 L 33.376 46.474 L 33.748 46.421 L 33.801 46.261 L 34.172 46.102 L 34.225 45.943 L 34.385 45.89 L 34.544 45.624 C 34.893 45.582 35.236 45.441 35.446 45.147 L 35.446 45.147 L 35.605 44.881 L 36.295 44.51 L 36.348 44.245 L 36.508 44.192 L 36.561 44.032 L 36.826 43.873 L 36.879 43.714 L 37.251 43.661 L 37.622 43.183 L 37.994 43.13 L 38.047 42.971 L 38.312 42.918 L 38.365 42.759 L 38.737 42.493 L 38.79 42.228 L 39.055 42.175 L 39.108 42.016 L 39.48 41.856 L 39.639 41.485 L 40.116 41.22 L 40.169 41.06 L 40.435 41.007 L 40.488 40.848 C 40.699 40.875 40.925 40.824 40.966 40.583 L 40.966 40.583 L 41.019 40.423 L 41.178 40.37 L 41.337 40.105 L 41.602 39.946 L 41.655 39.787 L 42.133 39.627 L 42.292 39.256 L 42.876 38.991 L 42.929 38.831 C 43.494 38.686 44.035 38.431 44.468 38.035 L 44.468 38.035 L 44.521 37.876 L 44.893 37.717 L 44.946 37.558 L 45.423 37.398 L 45.477 37.239 C 45.888 36.792 46.435 36.5 47.016 36.337 L 47.016 36.337 L 47.175 36.072 L 50.094 34.32 L 50.147 34.161 L 51.049 33.79 L 51.102 33.63 L 52.11 33.259 L 52.164 33.1 C 53.356 32.785 54.508 32.289 55.507 31.561 L 55.507 31.561 L 55.613 30.605 L 54.923 29.703 C 54.175 29.158 53.145 29.167 52.27 29.279 L 52.27 29.279 L 52.057 29.385 L 51.527 29.279 C 50.216 29.458 48.912 29.882 47.865 30.711 L 47.865 30.711 L 47.812 30.871 L 46.591 31.561 L 46.538 31.72 Q 44.5 33.768 40.806 34.161 Q 38.589 34.361 37.357 33.577 Q 36.564 32.194 36.508 30.075 Q 36.746 29.942 36.614 29.438 L 36.508 29.013 L 36.614 28.589 L 36.614 28.376 Q 37.393 23.955 37.357 18.717 Q 37.065 18.532 37.251 17.868 Q 37.489 17.736 37.357 17.231 L 37.251 17.019 C 37.278 13.624 37.427 10.235 37.668 6.848 C 37.767 5.449 37.958 3.806 36.667 2.849 L 36.667 2.849 L 36.401 2.69 L 36.348 2.531 L 36.189 2.584 L 36.136 2.425 L 35.924 2.531 L 35.924 2.425 L 36.083 2.371 L 35.711 2.318 L 35.552 2.371 L 35.605 2.212 C 35.12 2.137 34.577 2.106 34.119 2.318 L 34.119 2.318 L 34.119 2.212 L 34.332 2.106 Z " fill="rgb(255,255,0)" vector-effect="non-scaling-stroke" stroke-width="1" stroke="rgb(255,255,0)" stroke-linejoin="miter" stroke-linecap="square" stroke-miterlimit="3"/><path d=" M 34.438 2.212 C 35.011 2.125 35.708 2.093 36.189 2.478 L 36.189 2.478 L 36.242 2.637 L 36.401 2.584 L 36.454 2.743 L 36.614 2.69 L 36.561 2.849 L 37.251 3.433 Q 37.834 4.654 37.781 6.511 Q 37.213 11.515 37.251 17.125 Q 37.489 17.258 37.357 17.762 Q 37.065 17.948 37.251 18.611 Q 37.861 19.115 37.357 20.734 Q 37.229 24.905 36.508 28.482 L 36.614 28.907 L 36.508 29.332 C 36.727 29.454 36.665 29.773 36.614 29.968 L 36.614 29.968 L 36.508 30.181 Q 36.516 32.348 37.41 33.63 Q 39.017 34.359 41.549 34.161 Q 44.619 33.463 46.591 31.667 L 46.644 31.508 L 47.865 30.818 L 47.918 30.658 C 49.069 29.77 50.523 29.393 51.951 29.279 L 51.951 29.279 L 52.164 29.385 C 52.462 28.977 53.045 29.223 53.437 29.279 C 54.246 29.392 55.536 29.661 55.628 30.703 C 55.649 30.944 55.644 31.115 55.613 31.348 L 55.613 31.348 L 55.242 31.826 L 52.11 33.153 L 52.057 33.312 L 51.049 33.683 L 50.996 33.843 L 50.094 34.214 L 50.041 34.373 C 49.628 34.35 49.212 34.473 49.085 34.904 L 49.085 34.904 L 47.016 36.231 L 46.963 36.39 C 46.37 36.526 45.811 36.814 45.423 37.292 L 45.423 37.292 L 45.37 37.452 L 44.893 37.611 L 44.84 37.77 L 44.468 37.929 L 44.415 38.088 L 42.876 38.884 L 42.823 39.044 L 42.239 39.309 L 42.08 39.68 L 41.602 39.84 L 41.443 40.105 L 41.178 40.264 L 41.125 40.423 L 40.966 40.477 L 40.7 40.848 L 40.435 40.901 L 40.382 41.06 L 40.116 41.113 L 40.063 41.273 L 39.586 41.538 L 39.426 41.909 L 39.055 42.069 L 39.002 42.228 L 38.737 42.281 C 38.763 42.493 38.712 42.718 38.471 42.759 L 38.471 42.759 L 38.312 42.812 L 38.259 42.971 L 37.994 43.024 L 37.94 43.183 C 37.64 43.144 37.311 43.21 37.251 43.555 L 37.251 43.555 L 37.197 43.714 L 36.826 43.767 L 36.667 44.032 L 36.508 44.085 L 36.454 44.245 L 39.692 44.669 L 36.242 44.563 L 37.887 45.306 L 35.393 45.2 L 34.385 45.784 L 34.332 45.943 L 36.932 45.624 L 34.119 46.155 L 33.748 46.314 L 33.695 46.474 L 33.323 46.527 L 33.27 46.686 L 36.083 47.429 L 32.209 47.323 L 31.519 47.482 L 31.466 47.641 C 30.605 48.233 31.698 49.005 30.67 49.127 L 28.547 48.65 L 28.494 48.809 Q 27.071 50.252 25.999 50.719 Q 25.327 49.888 23.93 49.658 L 23.824 49.446 L 23.081 49.658 C 22.997 49.07 22.255 49.536 21.913 49.446 L 21.913 49.446 L 21.117 49.286 L 21.064 49.127 L 18.676 50.825 L 19.79 48.915 C 19.29 48.369 17.113 51.239 16.394 51.197 L 17.243 48.703 L 17.773 47.96 L 17.508 47.907 L 17.455 47.641 L 15.81 48.809 L 16.5 47.11 L 15.279 48.172 L 14.218 47.323 L 14.536 45.465 L 13.475 46.474 L 14.218 45.147 L 14.058 44.457 L 13.899 44.404 L 13.846 44.245 L 13.687 44.192 L 13.475 45.943 L 13.369 43.449 L 13.156 45.412 L 13.156 43.236 C 13.19 42.948 13.181 45.726 12.944 45.518 L 12.838 43.502 L 12.095 42.546 C 11.795 42.16 12.014 39.833 12.042 39.362 L 12.042 39.362 L 11.564 41.166 Q 11.17 36.412 11.14 32.834 Q 11.262 28.519 10.29 25.298 Q 9.393 23.489 9.547 20.628 Q 9.702 18.457 9.123 17.019 Q 8.468 15.445 8.38 13.304 Q 8.222 11.289 9.282 10.491 L 10.98 10.279 L 10.98 10.491 L 11.193 10.385 L 11.193 10.598 L 11.405 10.491 L 11.511 10.81 L 11.883 11.075 C 13.068 13.378 13.337 16.058 13.262 18.611 L 13.262 18.611 L 13.793 21.689 Q 13.849 23.173 14.748 23.812 Q 16.042 25.49 15.916 28.589 Q 15.903 32.051 17.667 33.737 Q 18.989 35.175 21.913 35.01 Q 23.242 34.747 24.089 34.002 Q 24.669 33.361 25.84 33.312 Q 26.224 33.671 26.955 33.683 L 26.742 33.79 L 28.6 33.843 L 29.29 33.577 L 29.078 33.471 L 29.237 33.418 L 29.555 33.524 L 29.555 33.418 L 29.396 33.365 L 30.404 32.781 L 30.404 32.994 L 31.094 32.516 Q 32.713 31.056 32.527 27.793 Q 32.489 25.313 33.111 23.494 Q 33.531 22.003 33.429 19.991 Q 32.686 16.754 32.58 12.88 L 32.686 12.455 C 32.387 9.707 32.303 6.938 32.368 4.176 L 32.368 4.176 L 32.474 3.857 L 32.474 3.645 L 33.376 2.637 L 33.589 2.743 L 33.695 2.531 L 33.854 2.478 L 33.907 2.318 L 34.438 2.212 Z " fill="rgb(255,255,0)"/><path d=" M 33.801 2.318 L 33.854 2.478 L 33.642 2.584 L 33.589 2.743 L 33.376 2.637 L 33.27 2.955 C 32.95 2.536 32.677 3.174 32.58 3.433 L 32.58 3.433 L 32.633 3.592 L 32.474 3.539 L 32.58 3.751 C 32.275 4.087 32.301 4.609 32.368 5.025 L 32.368 5.025 L 32.368 7.572 Q 32.713 7.811 32.474 8.634 Q 32.206 11.078 32.686 12.773 Q 32.421 12.933 32.58 13.516 Q 32.611 16.245 33.217 18.399 Q 33.517 19.744 33.429 21.477 Q 32.526 24.501 32.474 28.376 Q 32.581 31.296 31.041 32.569 Q 29.865 34.152 26.796 33.843 L 26.796 33.737 L 26.955 33.683 L 25.893 33.206 L 26.318 33.683 C 26.436 33.424 26.784 33.471 27.008 33.524 L 27.008 33.524 L 27.539 33.63 C 28.304 33.617 29.097 33.489 29.768 33.1 L 29.768 33.1 L 29.98 33.206 L 30.086 32.887 L 30.086 33.1 L 30.351 32.94 Q 29.927 32.622 30.776 32.304 Q 31.97 30.844 31.837 28.058 Q 32.536 25.201 32.368 21.477 L 32.156 20.522 L 32.262 19.991 L 32.156 19.673 L 31.943 15.852 C 32.042 15.382 32.121 14.791 31.837 14.366 L 31.837 14.366 L 31.943 13.835 C 31.724 13.713 31.786 13.394 31.837 13.198 L 31.837 13.198 L 31.837 11.287 Q 32.209 11.022 31.943 10.12 Q 31.625 9.908 31.837 9.165 L 31.837 6.299 L 31.837 6.086 C 31.781 4.817 32.026 3.389 33.164 2.637 L 33.164 2.637 L 33.801 2.318 Z " fill="rgb(255,255,0)"/><line x1="32.952" y1="2.743" x2="32.421" y2="3.38"/><path d=" M 31.89 4.547 L 31.943 5.025 C 31.643 5.225 31.757 5.699 31.837 5.98 L 31.837 5.98 L 31.837 6.193 Q 31.682 8.842 31.943 11.075 Q 31.705 11.208 31.837 11.712 L 31.837 13.623 L 31.943 14.153 L 31.837 14.366 C 31.847 16.141 31.97 17.92 32.262 19.673 L 32.262 19.673 L 32.262 19.885 L 32.156 20.416 Q 32.619 21.916 32.368 24.131 Q 31.773 26.508 31.731 29.438 Q 31.586 31.734 30.192 32.781 Q 29.059 33.559 27.114 33.524 Q 25.6 33.446 24.991 32.463 Q 24.227 33.397 23.081 33.949 L 22.921 33.896 L 22.868 34.055 L 21.807 34.161 L 21.595 34.161 C 20.168 34.155 18.635 33.808 17.72 32.622 L 17.72 32.622 L 17.19 31.561 L 17.243 31.401 L 17.084 31.348 C 16.494 29.7 16.209 27.973 16.069 26.233 C 15.987 25.213 16.176 24.088 15.598 23.175 L 15.598 23.175 L 15.704 22.857 L 15.598 22.857 L 15.544 23.016 L 15.385 22.751 Q 15.598 22.549 15.81 22.857 Q 16.241 23.222 16.287 23.971 Q 16.197 21.175 17.773 20.044 Q 18.88 19.081 21.17 19.301 Q 22.618 19.605 23.346 20.628 Q 23.705 21.012 23.717 21.742 Q 23.559 19.514 24.991 18.877 Q 26.099 18.073 27.963 18.027 Q 30.064 18.209 30.988 19.567 Q 31.672 20.369 31.625 21.902 L 31.625 22.114 L 31.678 23.441 Q 32.01 22.764 31.837 21.583 Q 30.932 19.198 31.413 15.427 Q 31.917 15.029 31.519 13.729 L 31.625 8.74 C 31.49 7.348 31.495 5.9 31.89 4.547 L 31.89 4.547 Z " fill="rgb(189,189,0)"/><path d=" M 11.829 10.491 L 12.413 10.969 C 13.77 12.642 13.9 14.686 14.186 16.726 C 14.468 18.737 14.917 20.729 15.598 22.645 L 15.598 22.645 L 15.332 22.698 C 14.305 19.69 13.652 16.562 13.262 13.41 L 13.262 13.41 L 13.315 13.251 L 13.156 13.198 L 13.262 12.88 L 13.05 12.773 L 13.156 12.561 L 12.944 12.455 L 13.05 12.243 L 12.838 12.137 L 12.838 11.924 C 12.732 11.31 12.429 10.736 11.829 10.491 L 11.829 10.491 Z  M 8.115 10.704 L 7.849 11.075 L 7.531 11.712 L 7.584 11.871 L 7.425 11.924 L 7.478 12.084 L 7.318 12.137 L 7.425 12.455 L 7.212 12.561 C 7.464 12.923 7.401 13.431 7.318 13.835 L 7.318 13.835 L 7.212 14.153 L 7.425 14.259 Q 9.468 21.609 10.078 30.393 Q 9.635 30.746 9.866 31.773 Q 10.105 31.906 9.972 32.41 Q 9.707 32.569 9.866 33.153 L 9.866 35.063 C 9.901 39.728 10.838 44.709 14.058 48.278 L 14.058 48.278 L 14.324 48.437 L 14.589 48.809 Q 18.168 52.182 24.991 52.311 Q 29.182 51.461 32.633 49.87 Q 38.1 47.588 41.602 43.342 L 41.762 43.077 L 41.921 43.024 L 42.292 42.44 L 42.982 41.856 L 44.097 40.53 L 44.362 40.37 L 45.477 39.15 L 45.636 39.097 L 46.007 38.619 Q 50.314 34.752 56.144 32.41 Q 56.492 31.749 56.515 30.765 Q 56.802 31.168 56.675 31.985 Q 56.481 32.853 55.879 33.312 Q 49.997 35.391 46.166 39.521 L 40.594 46.792 L 40.435 46.845 L 40.276 47.11 L 40.116 47.164 L 38.896 48.49 C 36.546 50.62 33.719 52.152 30.723 53.161 L 30.723 53.161 L 30.564 53.107 L 30.404 53.373 Q 27.509 54.246 23.399 53.904 Q 16.856 53.388 13.687 49.499 Q 8.729 43.63 9.547 31.985 Q 9.892 31.746 9.654 30.924 L 9.654 27.952 L 7.743 17.444 Q 6.998 15.536 7 12.88 Q 7.236 11.471 8.115 10.704 Z " fill-rule="evenodd" fill="rgb(255,255,0)"/><path d=" M 28.069 18.346 L 28.175 18.558 Q 29.652 18.621 30.351 19.46 Q 31.437 20.657 31.147 23.228 Q 31.403 25.202 31.307 27.527 Q 31.062 28.928 30.086 29.597 Q 29.043 30.358 27.432 30.552 Q 26.079 30.42 25.469 29.544 Q 24.047 28.206 24.301 25.192 Q 24.593 25.006 24.407 24.343 L 24.407 22.114 C 23.897 21.705 24.145 20.816 24.301 20.31 L 24.301 20.31 L 24.832 19.567 L 24.779 19.407 C 24.959 19.678 25.129 19.381 25.203 19.195 L 25.203 19.195 L 25.363 19.142 L 25.31 18.983 L 25.522 19.089 L 26.212 18.717 L 26.265 18.558 L 26.477 18.664 L 28.069 18.346 Z " fill="rgb(255,255,0)"/><path d=" M 30.298 18.877 L 31.041 19.726 L 30.298 18.877 Z  M 24.779 19.089 L 24.354 19.62 L 24.779 19.089 Z " fill-rule="evenodd" fill="rgb(135,94,73)"/><path d=" M 19.684 19.513 L 20.533 19.62 L 21.064 19.513 L 21.064 19.62 L 20.905 19.673 L 21.17 19.726 L 21.382 19.62 L 21.488 19.832 L 21.701 19.726 L 21.807 19.938 Q 22.457 20.084 22.709 20.628 Q 23.376 21.553 23.134 23.388 Q 23.25 26.296 23.877 28.695 Q 23.873 30.23 22.974 30.871 Q 22.222 31.657 20.639 31.614 Q 18.422 31.39 17.296 30.075 Q 16.326 27.382 16.765 23.282 Q 16.718 21.748 17.402 20.946 Q 16.898 20.548 17.986 20.15 L 18.941 19.726 L 19.153 19.832 L 19.153 19.62 L 19.578 19.726 L 19.684 19.513 Z " fill="rgb(255,255,0)"/><path d=" M 27.539 19.832 C 28.057 19.802 28.613 19.841 29.078 20.097 L 29.078 20.097 L 29.131 20.256 L 29.608 20.628 Q 30.943 23.061 30.882 26.89 Q 30.752 27.981 30.086 28.536 Q 29.091 29.505 26.902 29.279 Q 25.988 29.078 25.469 28.482 Q 24.699 27.66 24.726 26.041 Q 25.044 25.829 24.832 25.086 L 25.256 22.751 C 25.282 21.807 25.558 20.819 26.371 20.256 L 26.371 20.256 L 27.539 19.832 Z " fill="rgb(255,255,0)"/><line x1="17.667" y1="20.15" x2="17.137" y2="20.787"/><path d=" M 19.79 20.999 Q 21.356 20.708 21.754 21.583 Q 22.217 22.235 22.072 23.494 Q 22.196 25.227 22.709 26.572 Q 23.263 27.557 23.134 29.225 L 22.762 29.915 C 22.463 30.228 22.069 30.429 21.653 30.538 C 20.273 30.899 18.24 30.47 17.402 29.225 C 16.903 28.485 17.151 27.382 17.19 26.572 C 17.272 24.838 17.249 23.105 18.516 21.742 L 18.516 21.742 L 19.79 20.999 Z " fill="rgb(255,255,0)"/><line x1="41.762" y1="45.412" x2="41.337" y2="45.943"/><line x1="41.231" y1="46.049" x2="40.7" y2="46.686"/><line x1="39.851" y1="47.535" x2="39.32" y2="48.172"/><line x1="14.165" y1="49.87" x2="14.908" y2="50.719"/></g><path d=" M 29.053 50.568 C 27.157 48.702 29.19 43.557 33.59 39.086 C 37.99 34.615 43.101 32.5 44.997 34.365 C 46.893 36.231 44.86 41.376 40.461 45.847 C 36.061 50.318 30.949 52.434 29.053 50.568 Z " fill="rgb(255,255,0)"/><rect x="32.58" y="3.804" width="5.095" height="39.166" transform="matrix(1,0,0,1,0,0)" fill="rgb(255,255,0)"/><rect x="32.262" y="26.413" width="2.654" height="5.413" transform="matrix(1,0,0,1,0,0)" fill="rgb(255,255,0)"/><path d=" M 47.904 35.338 C 47.211 34.452 48.253 32.479 50.228 30.935 C 52.204 29.39 54.37 28.856 55.063 29.742 C 55.755 30.628 54.713 32.601 52.738 34.145 C 50.762 35.689 48.596 36.224 47.904 35.338 Z " fill="rgb(255,255,0)"/></g></svg>