<?xml version="1.0" standalone="no"?><!-- Generator: Gravit.io --><svg xmlns="http://www.w3.org/2000/svg" xmlns:xlink="http://www.w3.org/1999/xlink" style="isolation:isolate" viewBox="0 0 60 60" width="60" height="60"><defs><clipPath id="_clipPath_47mvEszM7ZO1NXlfb3dWv1o6MuBZlM8h"><rect width="60" height="60"/></clipPath></defs><g clip-path="url(#_clipPath_47mvEszM7ZO1NXlfb3dWv1o6MuBZlM8h)"><g id="pin-308802"><path d=" M 30 1.276 C 33.537 1.256 36.754 2.287 39.181 3.706 C 41.681 5.168 43.617 7.121 45.089 9.423 C 46.625 11.825 47.683 14.663 47.772 18.365 C 47.817 20.261 47.507 22.018 47.069 23.475 C 46.627 24.949 45.915 26.182 45.281 27.498 C 44.044 30.068 42.494 32.423 40.938 34.779 C 36.303 41.798 31.952 48.956 30.047 58.763 L 30.047 58.764 C 30.032 58.691 30.017 58.618 30 58.549 L 30 1.276 L 30 1.276 Z " fill="rgb(179,179,0)"/><path d=" M 30 1.276 C 29.095 1.232 28.156 1.295 27.205 1.439 C 21.577 2.287 17.382 5.516 14.878 9.455 C 13.355 11.849 12.299 14.778 12.227 18.429 C 12.153 22.165 13.316 25.046 14.75 27.53 C 15.467 28.773 16.112 30.038 16.858 31.235 C 19.094 34.821 21.51 38.235 23.596 41.933 C 26.377 46.863 28.678 52.178 30 58.549 L 30 1.276 L 30 1.276 Z " fill="rgb(255,255,0)"/><path d=" M 30 9.423 C 34.497 9.423 38.147 13.073 38.147 17.57 C 38.147 22.067 34.497 25.718 30 25.718 L 30 9.423 L 30 9.423 Z " fill="rgb(255,255,255)"/><path d=" M 30 9.423 C 25.503 9.423 21.853 13.073 21.853 17.57 C 21.853 22.067 25.503 25.718 30 25.718 L 30 9.423 L 30 9.423 Z " fill="rgb(255,255,255)"/></g></g></svg>