<?xml version="1.0" standalone="no"?><!-- Generator: Gravit.io --><svg xmlns="http://www.w3.org/2000/svg" xmlns:xlink="http://www.w3.org/1999/xlink" style="isolation:isolate" viewBox="0 0 100 100" width="100" height="100"><defs><clipPath id="_clipPath_zE2NzN7KLFEECA7HNMtb4hawldhoDxsb"><rect width="100" height="100"/></clipPath></defs><g clip-path="url(#_clipPath_zE2NzN7KLFEECA7HNMtb4hawldhoDxsb)"><g><g><path d=" M 23.232 75.475 C 10.784 56.907 19.569 42.406 19.569 42.406 C 17.528 41.795 11 46.119 11 46.119 C 14.671 32.52 34.865 20.967 34.865 20.967 C 32.623 20.138 26.299 21.785 26.299 21.785 C 42.82 5.714 63.016 11.69 63.016 11.69 C 63.625 8.182 73.625 2 73.625 2 C 72.602 3.024 72.19 8.598 72.19 8.598 C 73.21 6.74 76.479 4.885 76.479 4.885 C 74.645 9.209 76.479 18.484 76.479 18.484 C 81.782 23.849 87.695 42.407 87.695 42.407 L 89.945 45.704 C 92.802 49.834 91.752 56.326 88.923 57.865 C 78.319 63.651 77.293 53.127 77.293 53.127 C 68.521 52.096 61.993 42.196 61.993 42.196 C 50.166 48.38 56.753 65.824 61.86 72.523 C 68.421 81.11 63.617 95 63.617 95 C 63.617 95 35.523 93.824 23.232 75.475 Z " fill="rgb(255,153,0)" vector-effect="non-scaling-stroke" stroke-width="1" stroke="rgb(255,255,255)" stroke-linejoin="miter" stroke-linecap="butt" stroke-miterlimit="4"/></g></g></g></svg>