<?xml version="1.0" standalone="no"?><!-- Generator: Gravit.io --><svg xmlns="http://www.w3.org/2000/svg" xmlns:xlink="http://www.w3.org/1999/xlink" style="isolation:isolate" viewBox="0 0 100 100" width="100" height="100"><defs><clipPath id="_clipPath_Z2PRYGPlOirZcgMbIPBZmBTayVQ9rCPK"><rect width="100" height="100"/></clipPath></defs><g clip-path="url(#_clipPath_Z2PRYGPlOirZcgMbIPBZmBTayVQ9rCPK)"><g><path d=" M 50 20.269 C 29.929 20.269 12.63 32.101 4.683 49.175 C 4.439 49.692 4.439 50.298 4.683 50.825 C 12.63 67.899 29.929 79.731 50 79.731 C 70.071 79.731 87.37 67.899 95.317 50.825 C 95.561 50.308 95.561 49.702 95.317 49.175 C 87.37 32.101 70.071 20.269 50 20.269 M 50 70.516 C 38.666 70.516 29.489 61.329 29.489 50.005 C 29.489 38.671 38.676 29.494 50 29.494 C 61.334 29.494 70.511 38.681 70.511 50.005 C 70.511 61.329 61.324 70.516 50 70.516" fill="rgb(255,255,255)" vector-effect="non-scaling-stroke" stroke-width="0.021" stroke="rgb(255,255,255)" stroke-linejoin="miter" stroke-linecap="butt" stroke-miterlimit="4"/><circle vector-effect="non-scaling-stroke" cx="50.00097623772998" cy="49.99414257362005" r="13.130397468218625" fill="rgb(255,255,255)" stroke-width="0.021" stroke="rgb(255,255,255)" stroke-linejoin="miter" stroke-linecap="butt" stroke-miterlimit="4"/></g></g></svg>