<svg id="Layer_1" data-name="Layer 1" xmlns="http://www.w3.org/2000/svg" viewBox="0 0 100 120"><defs><style>.cls-1,.cls-2{fill:#17a2b8;}.cls-1,.cls-2,.cls-3{stroke:#17a2b8;}.cls-1,.cls-2,.cls-3,.cls-6{stroke-miterlimit:10;}.cls-2{stroke-width:0.2px;}.cls-3,.cls-7{fill:#fff;}.cls-3{stroke-width:2px;}.cls-4,.cls-5{fill:none;stroke-linecap:square;stroke-miterlimit:3;}.cls-4,.cls-5,.cls-6{stroke:#000;}.cls-5{stroke-width:0.83px;}.cls-6{fill:#ff8a0b;}.cls-8{isolation:isolate;font-size:2.26px;font-family:Nosifer-Regular, Nosifer;}.cls-9{fill:#ffee17;}</style></defs><title>Artboard 1</title><path class="cls-1" d="M50.85,117.28S39.77,85.51,25,67.86,12.7,38.44,12.7,38.44H88.85S91.31,50.2,76.54,67.86s-25.85,49.42-25.85,49.42"/><polygon class="cls-2" points="47.19 106.53 53.56 106.53 50.83 118.48 47.19 106.53"/><circle class="cls-3" cx="50.77" cy="39.63" r="37.63"/><path class="cls-4" d="M28.06,25.79a2.35,2.35,0,0,1-1.13-1.42c-.09-.5-1.41-.68-4-.56a2.36,2.36,0,0,0-.57,2c0,1,.42,1.53,1.13,1.7,1.95.27,3.08.65,3.4,1.13"/><path class="cls-4" d="M72.21,25.79a2.35,2.35,0,0,0,1.13-1.42c.1-.5,1.42-.68,4-.56a2.39,2.39,0,0,1,.56,2c0,1-.41,1.53-1.13,1.7-1.94.27-3.08.65-3.4,1.13"/><g id="E30"><path class="cls-4" d="M50.71,56.36H25c-2.75-.18-4.26-.74-4.53-1.7a8.83,8.83,0,0,1-.28-3.12c.35-.06.53-.16.56-.28s.13-1.25.29-3.4a10.66,10.66,0,0,1-.29-4.81,9.2,9.2,0,0,0,0-2.26,21,21,0,0,0,.57-2.27,3.19,3.19,0,0,1,.56-3.11c.68.11,1.06,0,1.14-.28.11-.46,1.72-4.33,3.68-5.38a20.57,20.57,0,0,1,6.22-1.7c5.23-.38,8.91-.56,11-.56h6.51"/><path class="cls-4" d="M50.42,56.36H76.18c2.74-.18,4.25-.74,4.53-1.7A8.83,8.83,0,0,0,81,51.54c-.35-.06-.54-.16-.57-.28s-.12-1.25-.28-3.4a10.63,10.63,0,0,0,.28-4.81,10.34,10.34,0,0,1,0-2.26,18.3,18.3,0,0,1-.56-2.27,3.17,3.17,0,0,0-.57-3.11c-.68.11-1.05,0-1.13-.28-.11-.46-1.73-4.33-3.68-5.38a20.65,20.65,0,0,0-6.23-1.7c-5.22-.38-8.9-.56-11-.56H50.71"/><g id="LineUnderGrill"><path class="cls-4" d="M80.14,42.2c-.54,1.06-1.86,1.63-4,1.7s-10.78.17-26,.28"/><line class="cls-4" x1="80.14" y1="42.2" x2="80.28" y2="41.95"/><g id="Group"><path class="cls-4" d="M21,42.49c.54.86,1.86,1.34,4,1.41s10.78.17,26,.28"/><line class="cls-5" x1="21" y1="42.45" x2="20.84" y2="42.2"/></g></g><path class="cls-6" d="M31.46,49.27,24.66,49a.22.22,0,0,0-.23.27l.47,2.55a.37.37,0,0,0,.33.29l6.79.26a.22.22,0,0,0,.24-.27l-.47-2.55A.36.36,0,0,0,31.46,49.27Z"/><path class="cls-6" d="M70,49.27l6.8-.26a.22.22,0,0,1,.23.27l-.47,2.55a.36.36,0,0,1-.33.29l-6.79.26a.22.22,0,0,1-.24-.27l.47-2.55A.36.36,0,0,1,70,49.27Z"/><path class="cls-7" d="M41.11,45.6H60.86a.31.31,0,0,1,.32.31v3.9a.32.32,0,0,1-.32.32H41.11a.31.31,0,0,1-.31-.32v-3.9A.31.31,0,0,1,41.11,45.6Z"/><path class="cls-4" d="M41.11,45.6H60.86a.31.31,0,0,1,.32.31v3.9a.32.32,0,0,1-.32.32H41.11a.31.31,0,0,1-.31-.32v-3.9A.31.31,0,0,1,41.11,45.6Z"/><text class="cls-8" transform="translate(42.27 48.6) scale(0.72 1)">Shady Garage</text><path class="cls-4" d="M26.65,29.75q5.3-13.55,7.92-14.14,2.18-.62,15.29-.86"/><path class="cls-4" d="M73.35,29.18q-5.3-13-7.93-13.6-2.18-.6-15.28-.83"/></g><g id="GrillVenstre"><g id="Group-2" data-name="Group"><path class="cls-4" d="M24.38,39.66c.21-1.95.6-3,1.16-3.12s7.35-.32,20.35-.56"/><path class="cls-4" d="M24.38,39.66a2.35,2.35,0,0,0,2.17,2.7"/><g id="Group-3" data-name="Group"><path class="cls-4" d="M26.55,42.36a10.12,10.12,0,0,0,1.23.13q3.9.16,18.11.28c-.52-3.51-.43-5.68.29-6.51A2.12,2.12,0,0,1,47.31,36"/></g></g><path class="cls-4" d="M26.43,36.26q-2.22-5,2.48-7.36"/><g id="Lykter"><g id="Group-4" data-name="Group"><path d="M25.8,39.37a2.55,2.55,0,1,1,2.54,2.55A2.54,2.54,0,0,1,25.8,39.37Z"/><path class="cls-9" d="M27.07,39.37a1.28,1.28,0,1,1,1.27,1.28A1.27,1.27,0,0,1,27.07,39.37Z"/></g><path d="M32.59,39.37a2.83,2.83,0,1,1,2.83,2.83A2.83,2.83,0,0,1,32.59,39.37Z"/></g><path class="cls-4" d="M45.89,42.77h4.25c.36,0,.55-.4.57-1.13s0-2.34,0-4.81c0-.55-.28-.83-.85-.85s-1.9,0-4,0h0"/></g><g id="GrillHøyre"><g id="Group-5" data-name="Group"><path class="cls-4" d="M77.06,39.66c-.21-1.95-.6-3-1.16-3.12s-7.35-.32-20.35-.56"/><path class="cls-4" d="M77.06,39.66a2.35,2.35,0,0,1-2.17,2.7"/><g id="Group-6" data-name="Group"><path class="cls-4" d="M74.89,42.36a10.12,10.12,0,0,1-1.23.13q-3.9.16-18.11.28c.52-3.51.43-5.68-.29-6.51A2.12,2.12,0,0,0,54.13,36"/></g></g><path class="cls-4" d="M75,36.26q2.22-5-2.48-7.36"/><g id="Lykter-2" data-name="Lykter"><g id="Group-7" data-name="Group"><path d="M75.64,39.37a2.55,2.55,0,1,0-2.55,2.55A2.55,2.55,0,0,0,75.64,39.37Z"/><path class="cls-9" d="M74.37,39.37a1.28,1.28,0,1,0-1.28,1.28A1.27,1.27,0,0,0,74.37,39.37Z"/></g><path d="M68.85,39.37A2.83,2.83,0,1,0,66,42.2,2.83,2.83,0,0,0,68.85,39.37Z"/></g><path class="cls-4" d="M55.55,42.77H51.3c-.36,0-.55-.4-.57-1.13s0-2.34,0-4.81c0-.55.28-.83.85-.85s1.9,0,4,0h0"/></g></svg>