<?xml version="1.0" encoding="utf-8"?>
<!-- Generator: Adobe Illustrator 16.0.0, SVG Export Plug-In . SVG Version: 6.00 Build 0)  -->
<!DOCTYPE svg PUBLIC "-//W3C//DTD SVG 1.1//EN" "http://www.w3.org/Graphics/SVG/1.1/DTD/svg11.dtd">
<svg version="1.1" id="Layer_1" xmlns="http://www.w3.org/2000/svg" xmlns:xlink="http://www.w3.org/1999/xlink" x="0px" y="0px"
	 width="100px" height="100px" viewBox="0 0 100 100" enable-background="new 0 0 100 100" xml:space="preserve">
<path fill="#17A2B8" d="M82.439,35.927l0.053-0.242l-33.251,0.121l-33.25-0.121l0.053,0.242h-0.053l0.76,7.697
	c1.473,11.582,18,34.018,26.924,45.14l5.566,6.75l5.568-6.75c8.924-11.122,25.139-32.82,26.612-44.403l1.07-8.434H82.439z"/>
<circle fill-rule="evenodd" clip-rule="evenodd" fill="#FFFFFF" stroke="#85F4FF" stroke-miterlimit="10" cx="49.161" cy="35.707" r="33.17"/>
<g>
	<path fill="none" stroke="#17A2B8" stroke-width="0.5" stroke-miterlimit="10" d="M75.836,39.236
		c-0.143-0.348-0.551-0.732-1.279-1.122c1.387-2.681,0.646-4.789-0.991-7.128c-1.691-2.419-4.792-2.004-7.528-2.236
		c0.725-0.51,1.025-1.596,0.101-2.129c-0.517-0.298-1.511,0.103-2.044,0.069c-0.729-1.591-1.492-3.591-2.752-4.753
		c-1.282-1.183-3.077-1.566-4.769-1.742c-0.563-0.059-4.917-0.517-5.122-0.115c-0.05,0.1,0.014,0.159-0.053,0.268
		c-1.297,0.317-2.791,0.335-4.059-0.054c0.14-0.026,0.277-0.064,0.416-0.092c-0.182-0.074-0.399-0.082-0.589-0.132
		c0.015-0.036,0.225-0.169,0.208-0.198c-2.867-0.24-6.385-0.043-9.239,0.495c-1.46,0.275-2.788,0.67-3.588,1.991
		c-0.652,1.079-0.614,2.884-1.818,3.572c-0.595,0.34-1.138-0.261-1.587,0.218c-0.41,0.436,0.106,1.562-0.339,2.152
		c-0.926,1.226-3.327,0.215-4.713,0.943c-1.2,0.63-2.201,2.219-2.63,3.462c-0.373,1.082-0.467,2.306-0.173,3.43
		c0.22,0.844,1.285,2.13,0.075,2.705c-0.324-0.01-0.8,0.106-0.906,0.476c-0.242,0.846,1.18,0.822,1.785,0.864
		c-0.298,2.532-0.989,8.211,1.169,10.209c1.018,0.942,1.629,0.246,2.892,0.212c1.187-0.031,2.274,0.77,3.125-0.209
		c0.88-1.014,0.989-3.537,0.98-4.805c0.926,0.382,2.072,0.131,3.048,0.179c1.116,0.055,2.193,0.233,3.373,0.24
		c2.793,0.015,5.587,0.005,8.379-0.027c3.982-0.046,7.966,0.042,11.949,0.028c1.959-0.008,3.56-0.163,5.533,0.006
		c0.302,1.612,0.522,4.859,2.667,5.002c1.104,0.073,1.939-0.403,3.096-0.22c4.391,0.696,3.581-7.397,3.401-10.147
		C75.312,40.505,76.127,39.946,75.836,39.236z M62.274,24.71L62.274,24.71L62.274,24.71L62.274,24.71z"/>
	<g>
		<path fill-rule="evenodd" clip-rule="evenodd" fill="#17A2B8" stroke="#FFFFFF" stroke-width="0.1" stroke-miterlimit="10" d="
			M55.568,30.225c-0.086-0.034-0.172-0.094-0.261-0.098c-1.212-0.055-2.423-0.097-3.636-0.153c-0.574-0.027-1.149-0.063-1.721-0.122
			c-0.367-0.038-0.164-0.301-0.178-0.497c0.649,0.238,1.238,0.634,1.954,0.424c0.184-0.054,0.361-0.165,0.546-0.173
			c0.494-0.025,0.991-0.008,1.515-0.008c-0.062-0.032-0.1-0.051-0.139-0.071c0.002,0.018,0.002,0.035,0.004,0.051
			c0.889,0,1.78-0.052,2.664,0.01c3,0.209,5.996,0.459,8.995,0.688c0.258,0.02,0.467,0.093,0.607,0.322
			c0.129,0.211,0.325,0.23,0.551,0.195c0.441-0.069,0.864-0.076,1.316,0.062c0.405,0.123,0.867,0.042,1.301,0.084
			c1.137,0.112,2.271,0.234,3.405,0.371c0.292,0.035,0.576,0.138,0.848,0.276c-0.51-0.082-1.02-0.165-1.53-0.248
			c-0.006,0.022-0.012,0.044-0.018,0.066c0.146,0.041,0.29,0.104,0.439,0.121c1.083,0.119,1.834,0.784,2.471,1.575
			c0.228,0.284,0.338,0.699,0.398,1.072c0.078,0.481,0.087,0.981,0.063,1.469c-0.036,0.742-0.299,1.428-0.646,2.08
			c-0.054,0.101-0.114,0.199-0.167,0.3c-0.117,0.22-0.191,0.431,0.113,0.571c0.029,0.013,0.039,0.067,0.037,0.062
			c-0.157,0.183-0.296,0.34-0.431,0.501c-0.347,0.419-0.85,0.451-1.321,0.472c-1.516,0.064-3.034,0.085-4.551,0.127
			c-0.188,0.005-0.375,0.043-0.562,0.056c-0.56,0.039-1.12,0.073-1.681,0.11c-0.101,0.007-0.201,0.019-0.293,0.028
			c0.273-0.103,0.559-0.201,0.838-0.316c0.154-0.064,0.324-0.137,0.253-0.364c-0.06-0.194-0.196-0.255-0.39-0.223
			c-0.081,0.013-0.164,0.011-0.288,0.019c0.14,0.318-0.07,0.436-0.293,0.525c-0.204,0.081-0.414,0.169-0.629,0.191
			c-0.743,0.076-1.464,0.271-2.235,0.216c-1.127-0.08-2.263-0.019-3.395-0.031c-3.375-0.038-6.75-0.076-10.125-0.125
			c-4.622-0.067-9.244-0.142-13.866-0.223c-0.647-0.011-1.294-0.073-1.94-0.126c-0.175-0.015-0.355-0.062-0.513-0.138
			c-0.11-0.053-0.219-0.167-0.258-0.278c-0.016-0.046,0.147-0.161,0.235-0.237c0.051-0.043,0.116-0.072,0.175-0.107
			c-0.008-0.028-0.016-0.057-0.023-0.086c-0.372,0.058-0.745,0.116-1.192,0.186c0.167,0.241,0.318,0.462,0.468,0.68
			c-0.787-0.048-1.593-0.117-2.4-0.142c-1.938-0.058-3.875-0.096-5.813-0.139c-0.259-0.005-0.485-0.06-0.69-0.336
			c0.176-0.017,0.316,0.006,0.41-0.049c0.119-0.071,0.297-0.225,0.28-0.31c-0.067-0.338-0.156-0.687-0.318-0.988
			c-0.814-1.518-1.007-3.071-0.278-4.666c0.146-0.319,0.446-0.569,0.677-0.849c0.1-0.121,0.241-0.221,0.301-0.358
			c0.219-0.487,0.664-0.467,1.08-0.52c0.091-0.012,0.197,0.019,0.274-0.017c0.726-0.333,1.517-0.265,2.278-0.378
			c0.733-0.109,1.468-0.214,2.205-0.301c0.195-0.023,0.399,0.023,0.658,0.042c0.117-0.217,0.391-0.242,0.681-0.241
			c0.273,0.001,0.546-0.002,0.817-0.024c0.129-0.01,0.299-0.03,0.375-0.114c0.232-0.255,0.521-0.277,0.829-0.29
			c3.246-0.132,6.491-0.276,9.738-0.394c0.612-0.022,1.229,0.065,1.845,0.08c0.271,0.007,0.544-0.054,0.817-0.061
			c0.288-0.006,0.587-0.032,0.861,0.035c0.603,0.148,1.187-0.092,1.784-0.034c0.165,0.016,0.343-0.12,0.525-0.19
			c0.033,0.055,0.062,0.114,0.099,0.166c0.115,0.165,0.086,0.284-0.119,0.309c-0.28,0.035-0.562,0.064-0.845,0.068
			c-2.096,0.028-4.192,0.05-6.288,0.07c-0.605,0.006-1.211-0.003-1.817-0.001c-0.088,0-0.176,0.025-0.265,0.039
			c-0.003,0.026-0.007,0.053-0.011,0.079c0.121,0.036,0.24,0.098,0.361,0.103c0.499,0.019,0.998,0.023,1.497,0.027
			c0.89,0.007,1.779-0.003,2.667,0.016c1.267,0.027,2.533,0.084,3.8,0.106c0.309,0.005,0.62-0.083,0.931-0.107
			c0.182-0.014,0.368,0.005,0.549,0.029c0.426,0.056,0.848,0.168,1.274,0.176c1.341,0.026,2.683,0.017,4.022,0.017
			c0.095,0,0.189-0.033,0.283-0.051C55.562,30.286,55.566,30.255,55.568,30.225z M63.414,38.991c0-0.003,0-0.006,0.002-0.009
			c0.574-0.035,1.148-0.058,1.722-0.106c1.021-0.086,1.64-0.632,1.823-1.638c0.07-0.389,0.127-0.797,0.085-1.186
			c-0.133-1.237-0.317-2.469-0.476-3.703c-0.027-0.212-0.162-0.242-0.312-0.186c-0.205,0.078-0.355,0.208-0.294,0.476
			c0.058,0.244,0.1,0.494,0.129,0.743c0.113,0.976,0.225,1.952,0.325,2.93c0.023,0.221-0.027,0.431-0.254,0.546
			c-0.047-0.776-0.074-1.538-0.146-2.297c-0.072-0.772-0.258-1.523-0.537-2.25c-0.018,0.181,0.021,0.351,0.045,0.522
			c0.138,0.983,0.299,1.963,0.398,2.95c0.061,0.595,0,1.194-0.324,1.731c-0.107,0.179-0.204,0.365-0.335,0.6
			c0.175-0.085,0.291-0.142,0.427-0.208c0.091,0.231,0,0.333-0.168,0.425c-0.524,0.288-1.108,0.245-1.66,0.245
			c-4.318,0.001-8.636-0.029-12.955-0.052c-0.18,0-0.36-0.023-0.541-0.036c0.001-0.014,0.004-0.028,0.005-0.042
			c0.044-0.015,0.087-0.03,0.188-0.064c-0.598-0.134-1.118-0.209-1.681-0.108c-0.559,0.1-1.143,0.054-1.716,0.072
			c0.001,0.027,0.001,0.055,0.002,0.083c0.61,0,1.221,0,1.831,0c-4.048,0.044-8.098,0.098-12.143-0.12c0.142,0,0.285,0,0.426,0
			c-1.038,0.041-2.076,0.041-3.108-0.036c-0.89-0.066-1.428-0.642-1.567-1.531c-0.175-1.121-0.053-2.212,0.287-3.289
			c0.144-0.456,0.247-0.925,0.361-1.36c-0.251-0.126-0.454-0.228-0.678-0.341c-0.169,0.896-0.368,1.733-0.473,2.582
			c-0.085,0.691-0.095,1.398-0.07,2.095c0.027,0.772,0.316,1.464,0.972,1.914c0.287,0.198,0.656,0.329,1.003,0.377
			c0.462,0.063,0.94,0.015,1.412,0.018c4.507,0.027,9.013,0.055,13.521,0.087c0.132,0.001,0.263,0.052,0.428,0.087
			c0.107-0.1,0.618-0.137,0.798-0.046c0.068,0.034,0.167,0.012,0.251,0.013c0.073,0.001,0.147-0.003,0.22-0.001
			c0.629,0.016,1.256,0.043,1.885,0.046c2.6,0.014,5.199,0.021,7.799,0.031c0.07,0,0.14,0.005,0.211,0.009
			c-0.002,0.013-0.002,0.026-0.002,0.039c-2.158,0-4.316,0-6.475,0c0,0.019,0,0.038,0,0.056c3.504,0,7.009,0,10.513,0
			c0.001-0.022,0.001-0.045,0.001-0.067C64.186,38.991,63.8,38.991,63.414,38.991z M32.876,31.114
			c-0.009,0.033-0.018,0.066-0.026,0.099c0.084,0.089,0.158,0.194,0.256,0.263c0.125,0.087,0.273,0.213,0.405,0.205
			c0.394-0.026,0.781-0.148,1.173-0.162c1.571-0.054,3.142-0.098,4.713-0.116c3.678-0.042,7.358-0.131,11.035-0.08
			c4.515,0.062,9.03,0.24,13.544,0.389c0.543,0.018,1.116-0.07,1.632,0.221c0.03,0.018,0.105-0.007,0.139-0.036
			c0.163-0.14,0.317-0.288,0.517-0.472c-0.144-0.057-0.225-0.109-0.311-0.119c-0.749-0.081-1.498-0.199-2.249-0.221
			c-4.854-0.139-9.71-0.289-14.565-0.369c-3.079-0.051-6.16-0.032-9.239,0.038c-2.177,0.049-4.35,0.236-6.525,0.36
			C33.209,31.123,33.042,31.114,32.876,31.114z M24.606,36.585c0.417,0.903,1.717,1.438,2.833,1.193
			c1.261-0.276,2.12-1.262,2.159-2.478c0.036-1.122-0.571-2.24-1.352-2.456c0.196,0.22,0.38,0.428,0.565,0.636
			c-0.024,0.025-0.048,0.05-0.073,0.075c-0.08-0.054-0.179-0.092-0.237-0.164c-0.721-0.886-2.114-0.873-3.025-0.398
			c-0.422,0.219-0.568,0.664-0.816,1.025c-0.211,0.307-0.367,0.622-0.232,1.006c0.045,0.128,0.137,0.266,0.12,0.387
			c-0.067,0.468,0.136,0.869,0.399,1.183c0.577,0.689,1.426,0.838,2.264,0.898c0.321,0.023,0.656-0.141,0.981-0.218
			c-0.298,0.234-0.658,0.403-1.046,0.429C26.12,37.772,25.242,37.448,24.606,36.585z M73.748,33.92
			c-0.143-0.116-0.253-0.231-0.386-0.309c-0.331-0.196-0.653-0.442-1.014-0.547c-1.126-0.324-2.711,0.521-2.993,1.54
			c-0.136,0.491-0.281,0.988-0.087,1.494c0.353,0.916,1.324,1.671,2.62,1.366c-0.264,0-0.528,0-0.792,0
			c0.623-0.042,1.218-0.165,1.794-0.368c-0.005-0.032-0.01-0.064-0.015-0.097c-0.099-0.018-0.199-0.036-0.385-0.07
			c0.607,0.002,0.836-0.479,1.311-0.749c-0.05,0.179-0.062,0.283-0.105,0.371c-0.207,0.417-0.529,0.73-0.944,0.93
			c-0.522,0.251-1.092,0.298-1.656,0.25c-0.31-0.026-0.61-0.166-0.952-0.265c0.505,0.468,1.101,0.458,1.679,0.458
			c1.011,0.001,2.293-0.99,2.457-2.037c0.038-0.242,0.017-0.497-0.003-0.744c-0.015-0.185-0.071-0.367-0.108-0.55
			c-0.035,0.007-0.07,0.014-0.105,0.021c0.017,0.091,0.052,0.184,0.045,0.273c-0.024,0.319-0.044,0.641-0.104,0.954
			c-0.036,0.188-0.185,0.197-0.334,0.097c0.008-0.1,0.015-0.186,0.021-0.276c-0.186,0.025-0.346,0.047-0.508,0.069
			c-0.022,0.132-0.05,0.255-0.063,0.379c-0.051,0.508-0.056,0.501-0.568,0.599c-0.271,0.051-0.53,0.151-0.706,0.203
			c-0.218-0.068-0.379-0.168-0.529-0.154c-0.353,0.033-0.695-0.217-0.754-0.596c0.651-0.136,1.301-0.271,1.98-0.413
			c-0.093-0.199-0.179-0.386-0.266-0.572c-0.042-0.089-0.085-0.177-0.127-0.266c0.131-0.005,0.263-0.01,0.394-0.018
			c0.104-0.006,0.229,0.018,0.309-0.029c0.285-0.168,0.464-0.108,0.464,0.22c-0.001,0.261,0.148,0.289,0.322,0.319
			c0.229,0.041,0.269-0.148,0.278-0.295c0.021-0.317,0.007-0.637,0.007-0.964c-0.095-0.032-0.212-0.072-0.374-0.128
			C73.648,33.969,73.691,33.948,73.748,33.92z M52.629,34.236c-0.266-0.017-0.493-0.008-0.71-0.05
			c-0.271-0.053-0.522-0.129-0.578,0.273c-0.069-0.025-0.123-0.035-0.164-0.062c-0.341-0.217-0.696-0.288-1.106-0.208
			c-0.187,0.036-0.403-0.084-0.607-0.131c-0.097-0.022-0.194-0.058-0.293-0.061c-0.274-0.008-0.547-0.003-0.85-0.003
			c-0.027,0.04-0.077,0.129-0.142,0.207c-0.098,0.12-0.225,0.221-0.301,0.353c-0.042,0.072-0.004,0.19-0.002,0.287
			c0.076-0.023,0.158-0.036,0.227-0.074c0.117-0.065,0.217-0.18,0.339-0.211c0.121-0.03,0.303-0.026,0.381,0.046
			c0.079,0.073,0.124,0.275,0.08,0.374c-0.121,0.266,0.008,0.284,0.213,0.296c0.144,0.009,0.286,0.054,0.491,0.095
			c-0.136,0.117-0.206,0.178-0.313,0.271c0.291-0.023,0.53-0.043,0.783-0.063c-0.027-0.041-0.067-0.101-0.069-0.104
			c0.351-0.214,0.716-0.383,1.014-0.632c0.332-0.278,0.671-0.407,1.098-0.351C52.338,34.516,52.545,34.476,52.629,34.236z
			 M73.241,39.021c-0.138,0.023-0.332,0.106-0.378,0.056c-0.149-0.166-0.297-0.16-0.498-0.151c-0.57,0.025-1.145,0.009-1.657,0.009
			c0.365,0.068,0.793,0.149,1.222,0.23c-0.008,0.037-0.016,0.075-0.022,0.112c-0.288-0.056-0.574-0.126-0.865-0.164
			c-0.299-0.039-0.603-0.057-0.905-0.062c-0.301-0.005-0.607,0.053-0.905,0.019c-0.562-0.065-0.636-0.078-0.805,0.063
			c0.183,0.071,0.367,0.191,0.561,0.21c0.51,0.049,1.023,0.052,1.536,0.077c0.427,0.021,0.853,0.063,1.279,0.062
			c0.456-0.002,0.911-0.041,1.367-0.069c0.113-0.007,0.238-0.01,0.332-0.061c0.063-0.035,0.137-0.18,0.112-0.224
			c-0.061-0.109-0.169-0.197-0.271-0.276c-0.037-0.03-0.112-0.013-0.188-0.018C73.187,38.902,73.206,38.946,73.241,39.021z
			 M25.422,38.779c1.549,0.346,3.058,0.308,4.576,0.026c-0.332-0.132-0.667-0.298-1.009-0.32c-0.772-0.05-1.548-0.035-2.322-0.033
			C26.242,38.452,25.807,38.435,25.422,38.779z M31.165,34.221c0.036-0.048,0.073-0.096,0.109-0.145
			c0.066-0.007,0.139,0.001,0.195-0.026c0.047-0.023,0.109-0.091,0.105-0.133c-0.027-0.25,0.1-0.559-0.258-0.694
			c-0.054-0.021-0.089-0.128-0.105-0.201c-0.025-0.114-0.027-0.234-0.039-0.352c-0.087,0.052-0.173,0.106-0.261,0.156
			c-0.144,0.081-0.409,0.157-0.409,0.237c-0.001,0.164,0.127,0.336,0.222,0.493C30.862,33.784,31.017,34,31.165,34.221z
			 M30.835,35.97c0.203-0.27,0.395-0.51,0.565-0.764c0.036-0.053,0.02-0.212-0.019-0.232c-0.122-0.063-0.27-0.118-0.402-0.109
			c-0.109,0.007-0.305,0.114-0.302,0.168C30.694,35.359,30.604,35.716,30.835,35.97z M30.032,35.353
			c-0.295,0.634-0.558,1.197-0.821,1.764C29.672,37.143,30.262,35.994,30.032,35.353z M62.481,38.522
			c-0.001-0.014-0.003-0.027-0.005-0.041c-1.611,0-3.223,0-4.834,0c0,0.014,0,0.027,0.001,0.041
			C59.256,38.522,60.869,38.522,62.481,38.522z M33.55,31.948c-0.035-0.005-0.07-0.011-0.104-0.016
			c-0.288,1.057-0.39,2.143-0.453,3.148C33.168,34.092,33.359,33.02,33.55,31.948z M50.667,39.265c0-0.024,0.001-0.049,0.002-0.074
			c-0.883,0-1.768,0-2.651,0c-0.001,0.024-0.001,0.049-0.001,0.074C48.901,39.265,49.784,39.265,50.667,39.265z M31.234,32.101
			c-0.002-0.053-0.005-0.105-0.008-0.158c-0.25,0-0.503-0.012-0.752,0.007c-0.083,0.006-0.161,0.093-0.241,0.144
			c0.059,0.081,0.103,0.2,0.182,0.233c0.14,0.06,0.332,0.172,0.391-0.121c0.008-0.039,0.136-0.058,0.211-0.075
			C31.088,32.113,31.162,32.11,31.234,32.101z M25.096,38.366c-0.069,0.058-0.12,0.109-0.178,0.148
			c-0.065,0.043-0.153,0.061-0.203,0.115c-0.054,0.059-0.074,0.147-0.108,0.223c0.08,0.021,0.179,0.084,0.237,0.057
			c0.227-0.103,0.441-0.233,0.688-0.37C25.317,38.454,25.188,38.402,25.096,38.366z M65.828,39.078
			c-0.464,0.19-0.917,0.375-1.396,0.571C65.014,39.769,65.779,39.456,65.828,39.078z M63.474,39.437
			c-0.011,0.032-0.021,0.064-0.03,0.097c0.189,0.045,0.378,0.116,0.568,0.125c0.08,0.003,0.164-0.125,0.246-0.194
			c-0.115-0.056-0.229-0.156-0.345-0.156C63.767,39.309,63.62,39.391,63.474,39.437z"/>
		<path fill-rule="evenodd" clip-rule="evenodd" fill="#17A2B8" stroke="#FFFFFF" stroke-width="0.1" stroke-miterlimit="10" d="
			M31.032,50.875c-0.857,0-1.788,0-2.72,0c-0.723-0.001-1.449-0.035-2.169,0.007c-0.625,0.036-0.968-0.315-1.172-0.799
			c-0.281-0.663-0.452-1.36-0.485-2.093c-0.045-0.992-0.184-1.979-0.211-2.971c-0.033-1.246,0.001-2.494,0.02-3.742
			c0.003-0.27,0.059-0.539,0.094-0.809c0.038-0.278-0.045-0.448-0.361-0.433c-0.048,0.002-0.098-0.025-0.224-0.061
			c0.113-0.029,0.155-0.049,0.197-0.049c2.2,0.003,4.4,0.009,6.6,0.014c0.063,0,0.125,0.002,0.188,0.009
			c2.314,0.263,4.64,0.229,6.962,0.261c0.069,0.001,0.138,0,0.207,0.016c-0.197,0.009-0.393,0.019-0.589,0.028
			c0,0.025,0,0.051,0,0.076c1.857,0,3.714,0,5.571,0c0-0.005,0-0.011,0.001-0.016c-0.679,0-1.357,0-2.036,0c0-0.013,0-0.026,0-0.04
			c1.09,0,2.182-0.009,3.272,0.002c1.625,0.017,3.249,0.051,4.874,0.073c1.506,0.021,3.012,0.03,4.518,0.056
			c0.428,0.007,0.853,0.075,1.279,0.083c0.805,0.017,1.609,0.012,2.415,0.013c3.229,0.004,6.458,0.008,9.686,0.01
			c1.52,0.001,3.038-0.022,4.557,0.006c0.64,0.012,1.278,0.13,2.009,0.209c-0.342,0.651-0.667,1.271-0.991,1.892
			c0.021,0.012,0.04,0.024,0.061,0.036c0.332-0.563,0.666-1.127,1.05-1.777c0.046,0.292,0.103,0.494,0.104,0.696
			c0.008,1.362,0.061,2.727-0.013,4.085c-0.079,1.483-0.292,2.957-0.813,4.365c-0.025,0.069-0.055,0.137-0.084,0.204
			c-0.252,0.6-0.32,0.644-0.973,0.644c-1.76,0-3.521-0.008-5.282,0.01c-0.281,0.002-0.441-0.108-0.603-0.303
			c-0.397-0.483-0.614-1.05-0.722-1.65c-0.155-0.863-0.264-1.734-0.39-2.602c-0.021-0.137-0.007-0.27-0.212-0.277
			c-0.646-0.022-1.291-0.087-1.934-0.077c-0.312,0.005-0.619,0.145-0.93,0.218c-0.098,0.023-0.258,0.072-0.287,0.033
			c-0.205-0.27-0.475-0.151-0.723-0.151c-1.762,0.003-3.523,0.011-5.284,0.01c-5.346-0.001-10.692-0.005-16.039-0.007
			c-0.66,0-1.32,0.018-1.978-0.006c-0.275-0.01-0.583-0.044-0.813-0.177c-0.397-0.229-0.761-0.216-1.169-0.072
			c-0.157,0.056-0.347,0.021-0.522,0.024c-0.554,0.008-1.109,0.025-1.664,0.015c-0.214-0.004-0.43-0.062-0.641-0.114
			c-0.357-0.088-0.381-0.07-0.425,0.291c-0.102,0.828-0.215,1.655-0.323,2.482c-0.039,0.301-0.035,0.612-0.121,0.897
			c-0.087,0.292-0.256,0.562-0.398,0.835C31.297,50.437,31.184,50.614,31.032,50.875z M27.527,42.812
			c-0.02,0.56,0.213,0.933,0.644,1.097c0.403,0.153,0.943,0.008,1.229-0.367c0.089-0.117,0.115-0.295,0.128-0.449
			c0.004-0.045-0.191-0.157-0.203-0.146c-0.1,0.1-0.208,0.209-0.257,0.337c-0.121,0.314-0.383,0.4-0.649,0.352
			c-0.187-0.034-0.371-0.194-0.505-0.344c-0.086-0.095-0.078-0.274-0.116-0.414c-0.005-0.02-0.038-0.032-0.07-0.059
			c-0.023,0.103-0.042,0.186-0.077,0.338C27.599,43.013,27.572,42.938,27.527,42.812z M70.84,43.2
			c-0.182,0.243-0.347,0.463-0.512,0.685c-0.188-0.071-0.364-0.107-0.506-0.198c-0.14-0.09-0.246-0.234-0.402-0.39
			c0.021,0.16,0.036,0.267,0.052,0.386c-0.075,0-0.127,0-0.178,0c-0.005,0.017-0.01,0.035-0.015,0.053
			c0.184,0.096,0.368,0.193,0.632,0.332c-0.082-0.127-0.106-0.167-0.153-0.241c0.276,0.036,0.504,0.347,0.764,0.092
			c0.192-0.188,0.364-0.396,0.583-0.636C70.936,43.229,70.869,43.209,70.84,43.2z M31.87,41.114
			c-0.902-0.301-1.819-0.575-2.803-0.441c-0.182,0.025-0.374-0.017-0.56-0.035c-0.061-0.006-0.122-0.054-0.179-0.047
			c-0.078,0.008-0.151,0.05-0.226,0.078c0.134,0.035,0.268,0.097,0.402,0.1C29.63,40.792,30.766,40.724,31.87,41.114z
			 M26.229,42.872c-0.464-0.892-0.927-1.783-1.391-2.675C25.087,41.207,25.598,42.073,26.229,42.872z"/>
		<path fill-rule="evenodd" clip-rule="evenodd" fill="#17A2B8" stroke="#FFFFFF" stroke-width="0.1" stroke-miterlimit="10" d="
			M41.259,22.23c-0.039,0.183-0.095,0.356-0.111,0.533c-0.03,0.345-0.046,0.691-0.053,1.036c-0.006,0.295-0.203,0.299-0.413,0.295
			c-0.256-0.004-0.193-0.191-0.189-0.341c0.005-0.241,0.035-0.484,0.009-0.721c-0.013-0.111-0.129-0.298-0.201-0.299
			c-0.311-0.006-0.622,0.043-0.934,0.073c0.002,0.034,0.005,0.068,0.007,0.102c0.125,0.029,0.249,0.057,0.383,0.088
			c-0.279,0.312-0.548,0.613-0.866,0.967c0.199,0.067,0.311,0.105,0.487,0.166c-0.371,0.093-0.687,0.178-1.006,0.25
			c-0.333,0.076-0.507,0.265-0.576,0.614c-0.132,0.678-0.304,1.349-0.478,2.018c-0.026,0.098-0.147,0.225-0.241,0.242
			c-0.658,0.115-1.321,0.206-2.043,0.313c0.104-0.343,0.198-0.667,0.299-0.988c0.232-0.737,0.467-1.473,0.703-2.209
			c0.058-0.178,0.132-0.352,0.187-0.53c0.097-0.316-0.179-0.395-0.37-0.585c-0.099,0.156-0.198,0.277-0.258,0.415
			c-0.545,1.235-1.086,2.474-1.623,3.713c-0.058,0.132-0.083,0.279-0.125,0.418c-0.096,0.326-0.351,0.375-0.64,0.367
			c-0.163-0.004-0.326,0-0.529,0c0.093-0.222,0.185-0.448,0.283-0.672c0.706-1.612,1.413-3.224,2.125-4.833
			c0.046-0.104,0.146-0.183,0.221-0.273c0.024-0.029,0.061-0.057,0.065-0.089c0.045-0.351,0.17-0.45,0.509-0.443
			c0.256,0.004,0.53,0.044,0.679-0.276c0.037-0.078,0.223-0.104,0.344-0.122c0.902-0.126,1.802-0.311,2.708-0.351
			c2.387-0.107,4.777-0.152,7.166-0.213c0.244-0.006,0.488,0.043,0.733,0.067c0,0.03,0,0.061,0.001,0.091
			c-0.106,0.014-0.213,0.041-0.32,0.041c-0.455-0.001-0.789,0.253-1.155,0.477c-0.295,0.181-0.654,0.264-0.991,0.366
			c-0.458,0.139-0.918,0.292-1.389,0.369c-0.606,0.1-1.224,0.151-1.839,0.18C41.656,22.489,41.485,22.336,41.259,22.23z"/>
		<path fill-rule="evenodd" clip-rule="evenodd" fill="#17A2B8" stroke="#FFFFFF" stroke-width="0.1" stroke-miterlimit="10" d="
			M63.8,28.417c-0.149-0.115-0.298-0.23-0.481-0.372c0.035,0,0.008-0.009-0.005,0.001c-0.414,0.338-0.586,0.293-0.778-0.212
			c-0.538-1.412-1.16-2.783-1.933-4.083c-0.122-0.205-0.28-0.391-0.44-0.568c-0.049-0.053-0.193-0.093-0.238-0.061
			c-0.144,0.104-0.277,0.233-0.387,0.374c-0.076,0.099-0.115,0.23-0.158,0.352c-0.025,0.071-0.049,0.157-0.033,0.226
			c0.09,0.378,0.185,0.756,0.293,1.129c0.16,0.553,0.335,1.102,0.502,1.653c0.059,0.196,0.115,0.394,0.175,0.598
			c-0.276,0.108-0.623-0.26-0.78,0.18c-0.325,0.047-0.477-0.163-0.564-0.423c-0.338-1.001-0.67-2.004-0.994-3.009
			c-0.124-0.384-0.219-0.777-0.326-1.167c-0.025,0.002-0.051,0.004-0.076,0.006c-0.033,0.102-0.066,0.203-0.117,0.364
			c-0.473-0.557-1.119-0.586-1.746-0.66c-0.436-0.052-0.875-0.071-1.312-0.116c-0.312-0.032-0.661-0.01-0.924-0.146
			c-0.304-0.157-0.562-0.435-0.779-0.709c-0.149-0.191-0.192-0.465-0.287-0.713c0.93,0,1.862-0.047,2.789,0.012
			c1.209,0.077,2.421,0.194,3.619,0.379c0.633,0.098,1.24,0.373,1.855,0.575c0.169,0.055,0.328,0.139,0.035,0.292
			c0.404,0.372,0.568,0.832,0.764,1.3c0.436,1.042,0.965,2.044,1.455,3.062c0.557,0.414,0.566,1.138,0.979,1.634
			C63.87,28.349,63.835,28.383,63.8,28.417z"/>
		<path fill-rule="evenodd" clip-rule="evenodd" fill="#17A2B8" stroke="#FFFFFF" stroke-width="0.1" stroke-miterlimit="10" d="
			M55.709,27.924c-0.762-0.047-1.459-0.094-2.157-0.133c-1.233-0.068-2.468-0.127-3.701-0.195c-1.925-0.106-3.841,0.086-5.76,0.178
			c-0.519,0.025-1.036,0.056-1.601,0.086c0.077-0.202,0.129-0.343,0.201-0.531c-0.111,0.047-0.187,0.079-0.279,0.117
			c0.011-0.046,0.011-0.081,0.027-0.102c0.213-0.273,0.497-0.403,0.842-0.407c2.031-0.021,4.062-0.051,6.093-0.055
			c0.289,0,0.578,0.132,0.87,0.183c0.149,0.026,0.306,0.005,0.495,0.005c-0.057-0.086-0.083-0.125-0.115-0.173
			c0.034-0.011,0.062-0.028,0.088-0.027c1.339,0.04,2.678,0.079,4.017,0.124c0.337,0.011,0.608,0.126,0.735,0.477
			C55.512,27.605,55.6,27.725,55.709,27.924z"/>
		<path fill-rule="evenodd" clip-rule="evenodd" fill="#17A2B8" stroke="#FFFFFF" stroke-width="0.1" stroke-miterlimit="10" d="
			M33.783,28.681c-0.647,0.09-1.294,0.18-1.897,0.264c-0.265-0.576,0.117-0.944,0.297-1.354c0.241-0.55,0.552-1.068,0.799-1.615
			c0.337-0.744,0.638-1.505,0.965-2.253c0.069-0.159,0.183-0.299,0.277-0.447c0.027,0.008,0.056,0.015,0.083,0.023
			c-0.038,0.136-0.058,0.279-0.115,0.406c-0.438,0.994-0.895,1.98-1.324,2.979c-0.273,0.638-0.51,1.292-0.783,1.986
			c0.578-0.048,1.13-0.094,1.683-0.14C33.772,28.58,33.777,28.63,33.783,28.681z"/>
		<path fill-rule="evenodd" clip-rule="evenodd" fill="#17A2B8" stroke="#FFFFFF" stroke-width="0.1" stroke-miterlimit="10" d="
			M41.774,27.58c-2.403,0.134-4.807,0.268-7.21,0.402c2.385-0.428,4.792-0.509,7.205-0.497
			C41.771,27.516,41.772,27.548,41.774,27.58z"/>
		<path fill-rule="evenodd" clip-rule="evenodd" fill="#17A2B8" stroke="#FFFFFF" stroke-width="0.1" stroke-miterlimit="10" d="
			M62.137,23.537c0.906,1.769,1.813,3.538,2.72,5.307c-0.028,0.019-0.058,0.037-0.086,0.056c-0.263-0.093-0.406-0.312-0.517-0.553
			c-0.355-0.781-0.696-1.569-1.058-2.347c-0.344-0.74-0.706-1.471-1.058-2.207c-0.034-0.07-0.053-0.147-0.078-0.221
			C62.086,23.56,62.111,23.548,62.137,23.537z"/>
		<path fill-rule="evenodd" clip-rule="evenodd" fill="#17A2B8" stroke="#FFFFFF" stroke-width="0.1" stroke-miterlimit="10" d="
			M65.391,27.85c0.023,0.16,0.073,0.321,0.062,0.479c-0.005,0.087-0.095,0.222-0.171,0.242c-0.13,0.034-0.366,0.045-0.406-0.024
			c-0.235-0.4-0.433-0.824-0.627-1.247c-0.017-0.035,0.081-0.123,0.126-0.186c0.057,0.055,0.159,0.107,0.162,0.165
			c0.026,0.447,0.162,0.535,0.562,0.343C65.346,27.502,65.438,27.566,65.391,27.85z"/>
		<path fill-rule="evenodd" clip-rule="evenodd" fill="#17A2B8" stroke="#FFFFFF" stroke-width="0.1" stroke-miterlimit="10" d="
			M24.904,31.127c0.191-0.339,0.375-0.683,0.582-1.013c0.028-0.044,0.209-0.057,0.248-0.016c0.109,0.112,0.401,0.175,0.249,0.395
			c-0.237,0.343-0.544,0.625-0.973,0.715C24.974,31.181,24.939,31.154,24.904,31.127z"/>
		<path fill-rule="evenodd" clip-rule="evenodd" fill="#17A2B8" stroke="#FFFFFF" stroke-width="0.1" stroke-miterlimit="10" d="
			M73.134,31.133c-0.226-0.148-0.465-0.28-0.667-0.456c-0.059-0.051-0.011-0.226-0.012-0.343c0.113,0.015,0.28-0.013,0.332,0.052
			c0.162,0.204,0.281,0.441,0.417,0.666C73.181,31.08,73.156,31.106,73.134,31.133z"/>
		<path fill-rule="evenodd" clip-rule="evenodd" fill="#17A2B8" stroke="#FFFFFF" stroke-width="0.1" stroke-miterlimit="10" d="
			M38.58,28.519c-0.755,0.037-1.51,0.075-2.266,0.111c-0.001-0.017-0.002-0.035-0.003-0.052c0.752-0.066,1.504-0.133,2.257-0.2
			C38.573,28.425,38.576,28.472,38.58,28.519z"/>
	</g>
</g>
<circle fill="#FFFF00" cx="27.024" cy="33.957" r="2.928"/>
<circle fill="#FFFF00" cx="71.523" cy="34.398" r="2.928"/>
</svg>
