<svg xmlns="http://www.w3.org/2000/svg" xmlns:xlink="http://www.w3.org/1999/xlink" style="isolation:isolate" viewBox="0 0 130 130" width="130" height="130"><defs><clipPath id="_clipPath_1nTwPBOxwEqIAFionXRtpy0ZkQhdzRwc"><rect width="130" height="130"/></clipPath></defs><g clip-path="url(#_clipPath_1nTwPBOxwEqIAFionXRtpy0ZkQhdzRwc)"><polygon points="63.5,127.412,27.744,65.481,99.256,65.481" fill="rgb(0,0,0)"/><path d=" M 21.875 44.813 C 21.875 21.874 40.499 3.25 63.437 3.25 C 86.376 3.25 105 21.874 105 44.812 C 105 67.751 86.376 86.375 63.438 86.375 C 40.499 86.375 21.875 67.751 21.875 44.813 Z " fill="rgb(255,255,255)" vector-effect="non-scaling-stroke" stroke-width="0.873" stroke="rgb(0,0,0)" stroke-linejoin="miter" stroke-linecap="square" stroke-miterlimit="3"/><g id="Group"><path d=" M 54.857 56.103 L 45.213 60.333 L 29.307 60.164 Q 28.912 59.431 28.743 58.246 C 28.574 57.062 27.953 47.361 28.235 44.654 C 28.518 41.946 28.743 39.013 29.082 38.055 C 29.42 37.096 32.184 37.321 33.989 35.009 Q 35.793 32.696 41.067 26.21 Q 47.92 25.167 63.148 25.167" fill="none" vector-effect="non-scaling-stroke" stroke-width="0.902" stroke="rgb(0,0,0)" stroke-linejoin="miter" stroke-linecap="square" stroke-miterlimit="3"/><path d=" M 72.1 56.103 L 81.745 60.333 L 97.65 60.164 Q 98.045 59.431 98.214 58.246 C 98.384 57.062 99.004 47.361 98.722 44.654 C 98.44 41.946 98.214 39.013 97.876 38.055 C 97.538 37.096 94.774 37.321 92.969 35.009 Q 91.164 32.696 85.891 26.21 Q 79.038 25.167 63.809 25.167" fill="none" vector-effect="non-scaling-stroke" stroke-width="0.902" stroke="rgb(0,0,0)" stroke-linejoin="miter" stroke-linecap="square" stroke-miterlimit="3"/><path d=" M 47.694 59.516 Q 50.413 60.305 63.741 60.305" fill="none" vector-effect="non-scaling-stroke" stroke-width="0.902" stroke="rgb(0,0,0)" stroke-linejoin="miter" stroke-linecap="square" stroke-miterlimit="3"/><path d=" M 78.885 59.516 Q 75.87 60.305 61.09 60.305" fill="none" vector-effect="non-scaling-stroke" stroke-width="0.902" stroke="rgb(0,0,0)" stroke-linejoin="miter" stroke-linecap="square" stroke-miterlimit="3"/><path d=" M 63.966 54.806 L 53.588 54.806 L 44.451 58.528 L 34.158 58.303 L 32.748 55.934 Q 36.245 50.407 36.978 50.35 Q 37.711 50.294 52.658 53.452 L 63.994 53.509" fill="none" vector-effect="non-scaling-stroke" stroke-width="0.541" stroke="rgb(0,0,0)" stroke-linejoin="miter" stroke-linecap="square" stroke-miterlimit="3"/><path d=" M 63.543 54.806 L 73.921 54.806 L 83.058 58.528 L 93.352 58.303 L 94.762 55.934 Q 91.265 50.407 90.532 50.35 Q 89.798 50.294 74.852 53.452 L 63.515 53.509" fill="none" vector-effect="non-scaling-stroke" stroke-width="0.541" stroke="rgb(0,0,0)" stroke-linejoin="miter" stroke-linecap="square" stroke-miterlimit="3"/><path d=" M 34.524 34.586 L 51.332 35.601 L 77.728 35.601 L 92.054 34.247" fill="none" vector-effect="non-scaling-stroke" stroke-width="0.541" stroke="rgb(0,0,0)" stroke-linejoin="miter" stroke-linecap="square" stroke-miterlimit="3"/><path d=" M 35.032 34.586 L 46.517 44.927 L 59.659 46.205 Q 59.659 45.159 63.966 45.159" fill="none" vector-effect="non-scaling-stroke" stroke-width="0.541" stroke="rgb(0,0,0)" stroke-linejoin="miter" stroke-linecap="square" stroke-miterlimit="3"/><path d=" M 92.111 34.473 L 80.849 44.914 L 67.964 46.205 Q 67.964 45.149 63.741 45.149" fill="none" vector-effect="non-scaling-stroke" stroke-width="0.541" stroke="rgb(0,0,0)" stroke-linejoin="miter" stroke-linecap="square" stroke-miterlimit="3"/><path d=" M 32.79 41.058 L 35.272 45.288 L 41.758 46.614 Q 42.35 46.726 42.886 46.332 Q 43.422 45.937 44.691 44.893 L 33.044 40.607 Q 32.649 40.691 32.79 41.058 Z " fill="rgb(0,0,0)" vector-effect="non-scaling-stroke" stroke-width="0.271" stroke="rgb(0,0,0)" stroke-linejoin="miter" stroke-linecap="square" stroke-miterlimit="3"/><line x1="33.876" y1="41.707" x2="36.583" y2="45.232" vector-effect="non-scaling-stroke" stroke-width="0.271" stroke="rgb(255,255,0)" stroke-linejoin="miter" stroke-linecap="square" stroke-miterlimit="3"/><path d=" M 38.021 45.457 L 37.344 44.954 L 38.303 44.16" fill="none" vector-effect="non-scaling-stroke" stroke-width="0.271" stroke="rgb(255,255,0)" stroke-linejoin="miter" stroke-linecap="square" stroke-miterlimit="3"/><path d=" M 38.924 43.088 L 39.262 44.386 L 40.841 46.05" fill="none" vector-effect="non-scaling-stroke" stroke-width="0.271" stroke="rgb(255,255,0)" stroke-linejoin="miter" stroke-linecap="square" stroke-miterlimit="3"/><path d=" M 42.082 46.191 L 41.8 45.965 L 43.154 44.752" fill="none" vector-effect="non-scaling-stroke" stroke-width="0.271" stroke="rgb(255,255,0)" stroke-linejoin="miter" stroke-linecap="square" stroke-miterlimit="3"/><path d=" M 95.021 40.945 L 92.539 45.175 L 86.053 46.501 Q 85.461 46.614 84.925 46.219 Q 84.389 45.824 83.12 44.78 L 94.767 40.494 Q 95.162 40.579 95.021 40.945 Z " fill="rgb(0,0,0)" vector-effect="non-scaling-stroke" stroke-width="0.271" stroke="rgb(0,0,0)" stroke-linejoin="miter" stroke-linecap="square" stroke-miterlimit="3"/><line x1="93.935" y1="41.594" x2="91.228" y2="45.119" vector-effect="non-scaling-stroke" stroke-width="0.271" stroke="rgb(255,255,0)" stroke-linejoin="miter" stroke-linecap="square" stroke-miterlimit="3"/><path d=" M 89.789 45.344 L 90.466 44.841 L 89.507 44.047" fill="none" vector-effect="non-scaling-stroke" stroke-width="0.271" stroke="rgb(255,255,0)" stroke-linejoin="miter" stroke-linecap="square" stroke-miterlimit="3"/><path d=" M 88.887 42.976 L 88.549 44.273 L 86.969 45.937" fill="none" vector-effect="non-scaling-stroke" stroke-width="0.271" stroke="rgb(255,255,0)" stroke-linejoin="miter" stroke-linecap="square" stroke-miterlimit="3"/><path d=" M 85.728 46.078 L 86.01 45.852 L 84.657 44.639" fill="none" vector-effect="non-scaling-stroke" stroke-width="0.271" stroke="rgb(255,255,0)" stroke-linejoin="miter" stroke-linecap="square" stroke-miterlimit="3"/><g id="Group"><path d=" M 63.91 48.334 Q 62.387 47.431 62.725 46.726 Q 62.528 46.529 63.853 46.529" fill="none" vector-effect="non-scaling-stroke" stroke-width="0.271" stroke="rgb(0,0,0)" stroke-linejoin="miter" stroke-linecap="square" stroke-miterlimit="3"/><path d=" M 63.996 48.334 Q 65.519 47.431 65.181 46.726 Q 65.378 46.529 64.053 46.529" fill="none" vector-effect="non-scaling-stroke" stroke-width="0.271" stroke="rgb(0,0,0)" stroke-linejoin="miter" stroke-linecap="square" stroke-miterlimit="3"/></g><path d=" M 31.408 36.588 L 30.224 35.432 L 29.942 36.221 L 26.332 36.109 L 24.922 34.022 L 25.965 32.753 L 31.295 32.753 L 32.085 33.994 L 31.69 34.501 L 32.959 35.883 L 31.408 36.588 Z " fill="none" vector-effect="non-scaling-stroke" stroke-width="0.541" stroke="rgb(0,0,0)" stroke-linejoin="miter" stroke-linecap="square" stroke-miterlimit="3"/><path d=" M 94.945 36.362 L 96.129 35.206 L 96.411 35.996 L 100.021 35.883 L 101.431 33.796 L 100.388 32.527 L 95.058 32.527 L 94.268 33.768 L 94.663 34.276 L 93.394 35.657 L 94.945 36.362 Z " fill="none" vector-effect="non-scaling-stroke" stroke-width="0.541" stroke="rgb(0,0,0)" stroke-linejoin="miter" stroke-linecap="square" stroke-miterlimit="3"/></g><g style="isolation:isolate" id="Layer 0"/></g></svg>
