<svg xmlns="http://www.w3.org/2000/svg" viewBox="0 0 80 100"><defs><style>.cls-1,.cls-2{fill:#0dffff;}.cls-1,.cls-2,.cls-3{stroke:#0dffff;}.cls-1,.cls-2,.cls-3,.cls-6{stroke-miterlimit:10;}.cls-2{stroke-width:0.2px;}.cls-3,.cls-7{fill:#fff;}.cls-3{stroke-width:2px;}.cls-4,.cls-5{fill:none;stroke-linecap:square;stroke-miterlimit:3;}.cls-4,.cls-5,.cls-6{stroke:#000;}.cls-5{stroke-width:0.83px;}.cls-6{fill:#ff8a0b;}.cls-8{isolation:isolate;font-size:1.9px;font-family:Nosifer-Regular, Nosifer;}.cls-9{fill:#ffee17;}</style></defs><title>Artboard 1</title><g id="Layer_2" data-name="Layer 2"><path class="cls-1" d="M41.06,98S31.79,71.4,19.43,56.63,9.13,32,9.13,32H72.87s2.06,9.85-10.3,24.63S40.94,98,40.94,98"/><polygon class="cls-2" points="38 89 43.33 89 41.05 99 38 89"/></g><g id="Layer_1" data-name="Layer 1"><circle class="cls-3" cx="41" cy="33" r="31.5"/><path class="cls-4" d="M22,21.41A2,2,0,0,1,21,20.23c-.07-.42-1.18-.58-3.31-.48a2,2,0,0,0-.48,1.66c0,.81.35,1.28.95,1.42,1.63.23,2.57.55,2.84,1"/><path class="cls-4" d="M59,21.41a1.94,1.94,0,0,0,.94-1.18c.08-.42,1.19-.58,3.32-.48a2,2,0,0,1,.48,1.66c0,.81-.35,1.28-.95,1.42-1.63.23-2.58.55-2.85,1"/><g id="E30"><path class="cls-4" d="M40.94,47H19.38c-2.29-.14-3.56-.62-3.79-1.42A7.2,7.2,0,0,1,15.36,43c.29,0,.45-.13.47-.23s.1-1.06.24-2.85a9,9,0,0,1-.24-4,8.27,8.27,0,0,0,0-1.89,15.69,15.69,0,0,0,.47-1.9,2.63,2.63,0,0,1,.48-2.6c.57.09.88,0,.95-.24s1.44-3.62,3.08-4.5A16.88,16.88,0,0,1,26,23.31q6.56-.48,9.24-.48h5.45"/><path class="cls-4" d="M40.71,47H62.27c2.3-.14,3.56-.62,3.79-1.42A7.42,7.42,0,0,0,66.3,43c-.3,0-.45-.13-.48-.23s-.1-1.06-.24-2.85a9,9,0,0,0,.24-4,8.27,8.27,0,0,1,0-1.89,15.69,15.69,0,0,1-.47-1.9,2.63,2.63,0,0,0-.48-2.6c-.56.09-.88,0-.94-.24s-1.45-3.62-3.08-4.5a17,17,0,0,0-5.22-1.42q-6.56-.48-9.24-.48H40.94"/><g id="LineUnderGrill"><path class="cls-4" d="M65.58,35.15c-.45.89-1.55,1.36-3.31,1.43s-9,.14-21.8.23"/><line class="cls-4" x1="65.58" y1="35.15" x2="65.7" y2="34.94"/><g id="Group"><path class="cls-4" d="M16.07,35.39c.45.73,1.56,1.12,3.31,1.19s9,.14,21.8.23"/><line class="cls-5" x1="16.08" y1="35.36" x2="15.95" y2="35.15"/></g></g><path class="cls-6" d="M24.83,41.07l-5.68-.22a.18.18,0,0,0-.2.22l.39,2.14a.32.32,0,0,0,.28.25l5.69.21a.18.18,0,0,0,.19-.22l-.39-2.14A.3.3,0,0,0,24.83,41.07Z"/><path class="cls-6" d="M57.06,41.07l5.68-.22a.18.18,0,0,1,.2.22l-.39,2.14a.33.33,0,0,1-.28.25l-5.69.21a.17.17,0,0,1-.19-.22l.39-2.14A.29.29,0,0,1,57.06,41.07Z"/><path class="cls-7" d="M32.91,38H49.45a.26.26,0,0,1,.26.26v3.26a.27.27,0,0,1-.26.27H32.91a.27.27,0,0,1-.26-.27V38.26A.26.26,0,0,1,32.91,38Z"/><path class="cls-4" d="M32.91,38H49.45a.26.26,0,0,1,.26.26v3.26a.27.27,0,0,1-.26.27H32.91a.27.27,0,0,1-.26-.27V38.26A.26.26,0,0,1,32.91,38Z"/><text class="cls-8" transform="translate(33.88 40.51) scale(0.72 1)">Shady Garage</text><path class="cls-4" d="M20.81,24.73q4.43-11.34,6.63-11.83,1.83-.53,12.79-.73"/><path class="cls-4" d="M59.9,24.25q-4.44-10.9-6.64-11.38-1.82-.49-12.79-.7"/></g><g id="GrillVenstre"><g id="Group-2" data-name="Group"><path class="cls-4" d="M18.91,33c.17-1.63.5-2.49,1-2.61s6.15-.26,17-.47"/><path class="cls-4" d="M18.91,33a2,2,0,0,0,1.81,2.26"/><g id="Group-3" data-name="Group"><path class="cls-4" d="M20.72,35.28a7.57,7.57,0,0,0,1,.11c2.18.1,7.24.17,15.17.24q-.68-4.41.23-5.45a1.79,1.79,0,0,1,1-.24"/></g></g><path class="cls-4" d="M20.62,30.18c-1.23-2.77-.54-4.83,2.08-6.16"/><g id="Lykter"><g id="Group-4" data-name="Group"><path d="M20.09,32.78a2.14,2.14,0,1,1,2.14,2.14A2.14,2.14,0,0,1,20.09,32.78Z"/><path class="cls-9" d="M21.16,32.78a1.07,1.07,0,1,1,1.07,1.07A1.07,1.07,0,0,1,21.16,32.78Z"/></g><path d="M25.78,32.78a2.37,2.37,0,1,1,2.37,2.37A2.38,2.38,0,0,1,25.78,32.78Z"/></g><path class="cls-4" d="M36.92,35.63h3.55c.3,0,.46-.34.47-1s0-2,0-4c0-.45-.22-.69-.71-.71s-1.58,0-3.31,0h0"/></g><g id="GrillHøyre"><g id="Group-5" data-name="Group"><path class="cls-4" d="M63,33c-.17-1.63-.5-2.49-1-2.61s-6.15-.26-17-.47"/><path class="cls-4" d="M63,33a2,2,0,0,1-1.81,2.26"/><g id="Group-6" data-name="Group"><path class="cls-4" d="M61.19,35.28a7.4,7.4,0,0,1-1,.11c-2.18.1-7.24.17-15.16.24q.66-4.41-.24-5.45a1.79,1.79,0,0,0-.95-.24"/></g></g><path class="cls-4" d="M61.29,30.18c1.24-2.77.54-4.83-2.08-6.16"/><g id="Lykter-2" data-name="Lykter"><g id="Group-7" data-name="Group"><path d="M61.82,32.78a2.14,2.14,0,1,0-2.13,2.14A2.14,2.14,0,0,0,61.82,32.78Z"/><path class="cls-9" d="M60.75,32.78a1.07,1.07,0,1,0-1.06,1.07A1.07,1.07,0,0,0,60.75,32.78Z"/></g><path d="M56.13,32.78a2.37,2.37,0,1,0-2.37,2.37A2.38,2.38,0,0,0,56.13,32.78Z"/></g><path class="cls-4" d="M45,35.63H41.44c-.3,0-.46-.34-.47-1s0-2,0-4c0-.45.23-.69.71-.71s1.59,0,3.32,0h0"/></g></g></svg>