<?xml version="1.0" standalone="no"?><!-- Generator: Gravit.io --><svg xmlns="http://www.w3.org/2000/svg" xmlns:xlink="http://www.w3.org/1999/xlink" style="isolation:isolate" viewBox="0 0 50 50" width="50" height="50"><defs><clipPath id="_clipPath_kFzb7YPPLZZ9zeddF2ykAgcaIOx7brHy"><rect width="50" height="50"/></clipPath></defs><g clip-path="url(#_clipPath_kFzb7YPPLZZ9zeddF2ykAgcaIOx7brHy)"><g><path d=" M 38.464 25.636 C 38.464 33.357 32.321 39.619 24.743 39.619 C 17.164 39.619 11.021 33.357 11.021 25.636 C 16.561 25.476 17.164 27.639 24.743 27.639 C 32.321 27.639 32.321 25.636 38.464 25.636 Z " fill="rgb(255,255,255)"/><path d=" M 38.464 25.849 C 38.464 33.57 32.321 39.832 24.743 39.832 C 17.164 39.832 11.021 33.57 11.021 25.849 C 17.164 25.849 17.164 27 24.743 27 C 32.321 27 32.321 25.849 38.464 25.849 Z " fill="none" vector-effect="non-scaling-stroke" stroke-width="1.254" stroke="rgb(81,9,14)" stroke-linejoin="miter" stroke-linecap="butt" stroke-miterlimit="10"/><g><g><path d=" M 17.908 22.799 C 20.714 20.573 21.772 19.463 22.168 17.988 C 22.525 16.656 21.94 14.538 20.579 14.351 C 18.461 14.061 17.488 15.638 17.569 17.015 C 17.488 15.638 16.426 13.972 14.267 14.721 C 12.969 15.171 12.782 17.216 13.251 18.512 C 13.687 19.712 14.942 20.902 17.908 22.799 Z " fill="rgb(231,62,96)"/></g><g style="opacity:0.75;"><g opacity="0.75"><path d=" M 17.908 22.799 C 20.714 20.573 21.772 19.463 22.168 17.988 C 22.525 16.656 21.94 14.538 20.579 14.351 C 18.461 14.061 17.488 15.638 17.569 17.015 C 17.488 15.638 16.426 13.972 14.267 14.721 C 12.969 15.171 12.782 17.216 13.251 18.512 C 13.687 19.712 14.942 20.902 17.908 22.799 Z " fill="rgb(183,28,34)"/></g></g></g><g><g><path d=" M 31.446 22.861 C 34.568 21.105 35.788 20.176 36.412 18.782 C 36.974 17.522 36.73 15.338 35.415 14.939 C 33.37 14.319 32.16 15.723 32.024 17.095 C 32.16 15.723 31.375 13.91 29.124 14.309 C 27.772 14.549 27.264 16.538 27.523 17.893 C 27.764 19.148 28.816 20.52 31.446 22.861 Z " fill="rgb(231,62,96)"/></g><g style="opacity:0.75;"><g opacity="0.75"><path d=" M 31.446 22.861 C 34.568 21.105 35.788 20.176 36.412 18.782 C 36.974 17.522 36.73 15.338 35.415 14.939 C 33.37 14.319 32.16 15.723 32.024 17.095 C 32.16 15.723 31.375 13.91 29.124 14.309 C 27.772 14.549 27.264 16.538 27.523 17.893 C 27.764 19.148 28.816 20.52 31.446 22.861 Z " fill="rgb(183,28,34)"/></g></g></g></g></g></svg>