<?xml version="1.0" encoding="utf-8"?>
<!-- Generator: Adobe Illustrator 16.0.0, SVG Export Plug-In . SVG Version: 6.00 Build 0)  -->
<!DOCTYPE svg PUBLIC "-//W3C//DTD SVG 1.1//EN" "http://www.w3.org/Graphics/SVG/1.1/DTD/svg11.dtd">
<svg version="1.1" id="Layer_1" xmlns="http://www.w3.org/2000/svg" xmlns:xlink="http://www.w3.org/1999/xlink" x="0px" y="0px"
	 width="100px" height="100px" viewBox="0 0 100 100" enable-background="new 0 0 100 100" xml:space="preserve">
<path fill="#17A2B8" d="M82.979,36.902l0.053-0.242L49.781,36.78l-33.25-0.121l0.053,0.242h-0.053l0.76,7.697
	c1.473,11.583,18,34.018,26.924,45.139l5.566,6.75l5.568-6.75c8.924-11.121,25.139-32.82,26.612-44.402l1.07-8.434H82.979z"/>
<circle fill-rule="evenodd" clip-rule="evenodd" fill="#FFFFFF" stroke="#85F4FF" stroke-miterlimit="10" cx="49.701" cy="36.682" r="33.17"/>
<path fill="#FFFF00" d="M73.426,36.207c0,1.707-2.089,3.092-4.668,3.092c-2.583,0-4.674-1.385-4.674-3.092
	c0-1.709,2.091-3.094,4.674-3.094C71.337,33.113,73.426,34.498,73.426,36.207z"/>
<path fill="#FFFF00" d="M34.472,36.277c0,1.707-2.114,3.092-4.724,3.092c-2.614,0-4.73-1.385-4.73-3.092
	c0-1.709,2.116-3.093,4.73-3.093C32.358,33.184,34.472,34.568,34.472,36.277z"/>
<g>
	<path fill="#17A2B8" d="M41.55,34.2c-0.391-0.042-0.789-0.02-1.184-0.025c-1.977-0.024-3.955-0.052-5.931-0.075
		c-0.154-0.002-0.328-0.017-0.457,0.047c-0.093,0.045-0.161,0.209-0.17,0.326c-0.003,0.063,0.137,0.193,0.216,0.198
		c0.408,0.02,0.817,0.008,1.226,0.008c0.96-0.001,1.92,0,2.88,0c0.001,0.035,0.001,0.071,0.001,0.107
		c1.128,0,2.258,0.009,3.388-0.013c0.132-0.003,0.263-0.181,0.394-0.279C41.792,34.392,41.68,34.213,41.55,34.2z"/>
	<path fill="#17A2B8" d="M41.416,34.856c-1.188-0.002-2.375-0.001-3.562-0.001c0-0.028,0-0.057,0-0.085
		c-1.159,0-2.318,0-3.477,0.001c-0.128,0-0.273-0.028-0.376,0.023c-0.101,0.053-0.204,0.188-0.213,0.292
		c-0.005,0.067,0.15,0.191,0.25,0.215c0.13,0.03,0.276-0.027,0.417-0.023c2.317,0.061,4.633,0.126,6.95,0.187
		c0.229,0.006,0.495,0.021,0.503-0.304C41.916,34.818,41.64,34.856,41.416,34.856z"/>
	<path fill="#17A2B8" d="M75.624,41.665c-0.357,0.615-0.569,1.143-0.299,1.783c-0.046-0.009-0.092-0.017-0.137-0.025
		c-0.131,0.193-0.271,0.38-0.388,0.581c-0.079,0.132-0.128,0.283-0.182,0.428c-0.242,0.655-0.481,1.309-0.744,2.025
		c0.153-0.057,0.21-0.079,0.218-0.081c-0.082,0.649-0.155,1.292-0.25,1.93c-0.035,0.235-0.101,0.473-0.194,0.691
		c-0.054,0.126-0.194,0.215-0.363,0.392c-0.026-0.554-0.09-0.977-0.054-1.39c0.039-0.432,0.148-0.864,0.273-1.282
		c0.144-0.488,0.303-0.976,0.514-1.438c0.729-1.581,0.91-3.258,0.935-4.967c0.002-0.133-0.02-0.269-0.033-0.402
		C75.292,40.936,75.574,41.674,75.624,41.665c0.062-0.012-2.267-8.013-2.304-8.082c0.367,0.012-1.802-3.028-3.215-5.025
		c0.172,0.086,0.391,0.069,0.764,0.01c0.095-0.015,0.195,0,0.292,0.002c0.309,0.009,0.62,0.05,0.924,0.021
		c0.462-0.048,0.916-0.159,1.377-0.216c0.439-0.056,0.735-0.325,0.751-0.766c0.014-0.338,0.012-0.679-0.014-1.018
		c-0.036-0.466-0.464-0.999-0.842-0.991c-1.439,0.027-2.877,0.088-4.314,0.133c-0.119,0.004-0.239-0.016-0.422-0.029
		c0.316,0.701,0.607,1.405,0.945,2.086c-0.331-0.471-0.558-0.806-0.601-0.903c-0.149-0.336-0.321-0.662-0.484-0.992
		c-1.118-2.26-2.315-4.472-3.782-6.531c-0.572-0.805-1.277-1.393-2.315-1.459c-0.409-0.026-0.817-0.079-1.227-0.095
		c-3.109-0.125-6.221-0.273-9.331-0.358c-4.472-0.12-8.944-0.143-13.409,0.188c-0.95,0.07-1.734,0.391-2.339,1.175
		c-1.58,2.042-2.964,4.209-4.24,6.449c-0.225,0.393-0.479,0.769-0.687,1.17c-0.037,0.071-0.209,0.279-0.477,0.581
		c0.274-0.523,0.552-1.056,0.845-1.617c-1.303-0.064-2.527-0.122-3.751-0.185c-0.085-0.003-0.168-0.023-0.25-0.042
		c-0.685-0.157-1.137,0.216-1.123,0.903c0.005,0.222-0.022,0.45-0.078,0.665c-0.149,0.575,0.086,1.036,0.677,1.144
		c0.732,0.136,1.479,0.204,2.216,0.323c0.12,0.021,0.237,0.043,0.34,0.054c-1.935,2.119-4.886,5.302-4.521,5.318
		c-0.235,0.538-0.483,1.098-0.562,1.672c-0.117,0.865-1.274,8.481-1.32,9.357c0,0.003,0,0.006,0,0.008
		c-0.026,0.129-0.052,0.257-0.077,0.387c-0.062,0.331-0.151,0.664-0.145,0.996c0.013,0.731,0.083,1.462,0.118,2.193
		c0.024,0.495-0.02,0.996,0.047,1.482c0.121,0.877,0.321,1.744,0.456,2.619c0.202,1.312,1.478,2.316,2.581,2.366
		c1.326,0.061,2.657,0.047,3.987,0.038c0.185,0,0.402-0.115,0.546-0.242c0.468-0.418,0.775-0.975,0.94-1.553
		c0.278-0.975,0.443-1.98,0.651-2.974c0.005-0.024,0.008-0.046,0.01-0.067c1.001-0.713,1.589-2.079,3.075-2.035
		c1.768,0.053,3.537,0.086,5.306,0.118c0.373,0.007,0.761,0.069,1.011-0.363c0.057-0.1,0.361-0.069,0.552-0.076
		c0.138-0.004,0.278,0.029,0.483,0.053c0.208,0.376,0.354,0.467,1.032,0.477c3.481,0.047,6.963,0.083,10.446,0.13
		c0.505,0.006,0.982-0.001,1.117-0.509c0.292,0.073,0.524,0.134,0.759,0.19c0.107,0.026,0.217,0.046,0.324,0.071
		c0.295,0.071,0.59,0.204,0.886,0.205c1.628,0.008,3.257-0.003,4.884-0.033c1.688-0.03,3.369,1.357,5.055,1.942
		c-0.005,0.061,0,0.131,0.011,0.212c0.066,0.475,0.11,0.951,0.175,1.425c0.019,0.139,0.081,0.271,0.116,0.406
		c0.069,0.284,0.145,0.566,0.2,0.854c0.226,1.149,0.51,1.791,1.882,1.775c1.424-0.014,2.847-0.094,4.269-0.168
		c0.215-0.012,0.421-0.146,0.633-0.215c0.652-0.212,0.841-0.881,1.28-1.304c0.048-0.048,0.014-0.183,0.018-0.276
		c0.015-0.422,0.006-0.848,0.05-1.266c0.076-0.727,0.256-1.448,0.268-2.173C76.13,46.79,76.199,44.273,75.624,41.665z
		 M71.675,38.742c0,0.021,0.001,0.043,0.001,0.065c-2.142,0-4.283,0-6.413,0c-0.265-0.384-0.223-0.796-0.188-1.24
		c0.063-0.817,0.019-1.642,0.045-2.461c0.01-0.305-0.002-0.657,0.408-0.822c0.048,0.153,0.089,0.281,0.136,0.43
		c0.122-0.769,0.123-0.793,0.906-0.775c1.611,0.038,3.222,0.11,4.833,0.152c0.299,0.008,0.407,0.112,0.455,0.408
		c0.065,0.391,0.206,0.77,0.292,1.072c0.006-0.02,0.027-0.086,0.063-0.194c0.047,0.183,0.092,0.282,0.095,0.383
		c0.017,0.732,0.02,1.465,0.038,2.199c0.006,0.266-0.118,0.388-0.37,0.414c-0.375,0.038-0.75,0.08-1.125,0.12
		c-0.005,0.049-0.009,0.098-0.015,0.147C71.116,38.674,71.396,38.708,71.675,38.742z M53.242,33.559
		c0.001-0.022,0.001-0.043,0.001-0.065c4.196,0,8.394,0,12.589,0c0.001,0.022,0.003,0.046,0.004,0.069c-2.838,0-5.676,0-8.514-0.001
		c-0.155,0-0.312-0.007-0.467-0.007c-0.654-0.001-0.654,0-0.687,0.624c-0.259-0.019-0.259-0.019-0.201-0.621
		C55.058,33.559,54.15,33.559,53.242,33.559z M71.627,33.114c0,0.014,0,0.028,0,0.04c0.063,0.016,0.127,0.033,0.208,0.054
		c-0.902,0.035-0.896,0.035-0.959-0.879c-0.009-0.129-0.028-0.257-0.053-0.385c0.567,0.46,1.091,0.866,1.521,1.159
		C72.105,33.104,71.865,33.114,71.627,33.114z M61.383,24.816c0.123,0.068,0.217,0.12,0.32,0.177
		c-0.034,0.059-0.051,0.121-0.072,0.122c-0.237,0.022-0.476,0.052-0.712,0.046c-0.306-0.008-0.43-0.237-0.208-0.433
		c0.537-0.479,0.465-1.063,0.388-1.664c-0.012-0.082-0.013-0.164-0.02-0.272C61.469,23.215,61.679,24.58,61.383,24.816z
		 M56.216,18.527c1.604,0.116,3.209,0.23,4.812,0.344c-0.003,0.058-0.008,0.115-0.013,0.173c-1.607-0.12-3.217-0.241-4.825-0.362
		C56.198,18.631,56.208,18.578,56.216,18.527z M47.27,19.443c0.31-0.004,0.492,0.055,0.435,0.421
		c-0.056,0.353,0.137,0.473,0.472,0.468c0.495-0.004,1-0.04,1.484,0.042c0.904,0.155,1.785-0.136,2.68-0.061
		c0.285,0.024,0.467-0.12,0.431-0.434c-0.024-0.232,0.05-0.344,0.299-0.336c1.951,0.065,3.903,0.111,5.854,0.199
		c0.354,0.016,0.707,0.185,1.049,0.313c0.122,0.046,0.21,0.182,0.268,0.368C60.12,20.418,60,20.406,59.88,20.409
		c-1.525,0.029-3.052,0.056-4.577,0.095c-0.514,0.014-0.847,0.255-0.929,0.799c-0.104,0.711-0.266,1.415-0.337,2.128
		c-0.035,0.349-0.098,0.537-0.482,0.481c-0.064-0.01-0.135,0.015-0.218,0.025c-0.067,0.339-0.11,0.603,0.381,0.577
		c0.211-0.011,0.434,0.093,0.645,0.167c0.061,0.021,0.094,0.122,0.139,0.186c-0.07,0.05-0.141,0.143-0.212,0.146
		c-0.974,0.022-1.945,0.035-2.919,0.04c-0.08,0-0.22-0.073-0.23-0.13c-0.105-0.59-0.599-0.587-1.013-0.64
		c-0.628-0.079-1.266-0.094-1.911-0.055c0.6,0.115,1.202,0.229,1.8,0.347c0.109,0.022,0.235,0.04,0.317,0.105
		c0.076,0.061,0.134,0.18,0.14,0.276c0.002,0.043-0.143,0.106-0.229,0.137c-0.064,0.022-0.141,0.008-0.21,0.008
		c-1.232-0.009-2.463-0.017-3.694-0.03c-0.13-0.001-0.259-0.03-0.39-0.046c-0.01-0.054-0.021-0.108-0.03-0.163
		c0.441-0.163,0.884-0.326,1.384-0.51c0.027-0.239-0.231-0.221-0.421-0.215c-0.349,0.011-0.435-0.139-0.464-0.475
		c-0.064-0.756-0.164-1.514-0.302-2.261c-0.112-0.598-0.414-0.826-1.037-0.87c-1.058-0.073-2.118-0.13-3.177-0.195
		c-0.234-0.016-0.47-0.038-0.704-0.056c-0.021-0.041-0.041-0.082-0.062-0.124c0.136-0.111,0.258-0.248,0.411-0.328
		c0.649-0.344,1.364-0.341,2.07-0.351C44.837,19.46,46.054,19.463,47.27,19.443z M58.966,23.202
		c-0.576,0.035-1.159,0.007-1.738,0.007c0,0.011,0,0.021,0,0.033c-0.553,0-1.104-0.003-1.656,0.002
		c-0.366,0.003-0.523-0.179-0.483-0.529c0.035-0.309,0.056-0.627,0.157-0.914c0.052-0.148,0.263-0.337,0.407-0.341
		c1.244-0.033,2.489-0.041,3.733-0.015c0.16,0.003,0.317,0.25,0.472,0.39c0.024,0.024,0.022,0.08,0.031,0.121
		C60.099,22.952,59.974,23.14,58.966,23.202z M46.054,25.405c0.094,0.014,0.169,0.152,0.253,0.231
		c-0.017,0.04-0.034,0.081-0.051,0.12c-1.933-0.294-3.865-0.59-5.797-0.885c0.006-0.039,0.011-0.079,0.018-0.119
		C42.368,24.687,44.201,25.133,46.054,25.405z M40.658,21.833c0.057-0.267,0.24-0.458,0.543-0.443
		c1.159,0.05,2.318,0.089,3.473,0.176c0.216,0.016,0.563,0.201,0.597,0.361c0.089,0.43,0.059,0.888,0.024,1.33
		c-0.003,0.063-0.289,0.141-0.448,0.147c-0.453,0.02-0.906,0.007-1.471,0.007c-0.735-0.073-1.579-0.155-2.423-0.247
		c-0.107-0.012-0.255-0.036-0.306-0.109C40.362,22.654,40.57,22.236,40.658,21.833z M44.996,18.345
		c0.003,0.054,0.007,0.108,0.01,0.162c-1.737,0.09-3.474,0.181-5.21,0.271c-0.002-0.053-0.006-0.105-0.009-0.157
		C41.523,18.529,43.261,18.437,44.996,18.345z M39.442,25.221c1.05,0.115,2.101,0.224,3.147,0.364c1.12,0.15,2.235,0.331,3.354,0.5
		c0.115,0.018,0.227,0.055,0.341,0.083c-0.008,0.046-0.015,0.094-0.021,0.14c-2.399-0.347-4.797-0.693-7.245-1.047
		C39.178,25.245,39.312,25.207,39.442,25.221z M38.792,25.198c-0.151,0.113-0.206,0.189-0.261,0.189
		c-0.634,0.006-1.271-0.038-1.902,0.006c-0.759,0.051-1.51,0.188-2.268,0.261c-0.576,0.054-1.155,0.064-1.732,0.094
		c-0.003-0.056-0.006-0.112-0.009-0.168C34.62,25.229,36.636,25.11,38.792,25.198z M29.154,27.005
		c-0.036-0.016-0.06-0.059-0.086-0.092c-0.31-0.396-0.618-0.79-0.985-1.257c0.823,0.043,1.597,0.084,2.37,0.126
		c0.013,0.036,0.025,0.073,0.038,0.109c-0.286,0.17-0.668,0.305-0.25,0.696c0.051,0.048-0.008,0.216-0.016,0.328
		c-0.015,0.219-0.032,0.438-0.048,0.656c-0.096,0.106-0.198,0.218-0.304,0.336C29.831,27.394,29.517,27.179,29.154,27.005z
		 M32.61,27.187c2.362-0.075,4.723-0.189,7.085-0.221c2.829-0.039,5.66-0.009,8.49-0.009c0,0.019,0,0.037,0,0.055
		c0.706,0,1.414-0.017,2.119,0.002c4.329,0.121,8.657,0.248,12.984,0.385c0.162,0.004,0.314,0.148,0.48,0.188
		c0.201,0.048,0.414,0.09,0.617,0.069c0.183-0.02,0.359-0.192,0.534-0.187c0.775,0.024,3.614,2.606,5.822,4.407
		c0.001,0.226,0.025,0.448,0.052,0.669c0.04,0.319-0.072,0.475-0.418,0.462c-0.466-0.017-0.934,0-1.4-0.003
		c-11.069-0.084-22.139-0.177-33.209-0.25c-2.534-0.017-5.066,0.038-7.601,0.054c-0.19,0.001-0.381-0.045-0.591-0.073
		c-0.027,0.266-0.28,0.309-0.591,0.295c-0.325-0.014-0.65,0.015-0.976,0.008c-0.088-0.002-0.172,0.002-0.253,0.015
		C27.607,31.528,32.331,27.196,32.61,27.187z M42.006,35.005c0.027,0.399-0.111,0.537-0.531,0.528
		c-2.123-0.046-4.245-0.062-6.367-0.086c-0.213-0.002-0.425,0.001-0.638,0.004c-0.747,0.014-0.903,0.136-0.93,0.9
		c-0.023,0.616,0.022,1.236,0.053,1.854c0.016,0.298-0.161,0.47-0.556,0.47c-0.721,0-1.442-0.007-2.165-0.014
		c-1.528-0.014-3.056-0.03-4.584-0.047c-0.148-0.002-0.296-0.02-0.443-0.03c-0.003-0.038-0.005-0.077-0.009-0.115
		c0.234-0.029,0.47-0.058,0.704-0.088c-0.446-0.207-0.461-0.607-0.531-0.995c-0.169-0.94-0.212-1.873-0.014-2.819
		c0.127-0.609,0.155-0.676,0.786-0.693c0.396-0.01,0.793,0.045,1.188,0.023c1.067-0.058,2.133-0.152,3.202-0.209
		c0.501-0.027,1.007-0.006,1.574-0.006c-0.086,0.144-0.127,0.21-0.177,0.295c0.176,0.049,0.418,0.193,0.501,0.129
		c0.335-0.255,0.667-0.111,1.008-0.099c0.76,0.025,1.521,0.016,2.281,0.028c1.584,0.029,3.168,0.065,4.753,0.095
		c0.169,0.003,0.355,0.034,0.504-0.024c0.126-0.049,0.207-0.209,0.309-0.321c-0.107-0.074-0.214-0.21-0.323-0.213
		c-2.404-0.043-4.811-0.146-7.212-0.072c-1.237,0.039-2.464-0.101-3.701-0.016c-1.24,0.087-2.489,0.055-3.735,0.049
		c-0.697-0.003-1.321,0.068-1.507,1.015c-0.188-0.866,0.667-1.39,1.201-1.38c2.006,0.034,4.012,0.106,6.018,0.129
		c1.584,0.02,3.168-0.028,4.752-0.013c1.188,0.012,2.373,0.1,3.561,0.112c1.808,0.021,3.617,0.006,5.425,0.098
		c-1.223,0-2.445,0-3.667,0c-0.696,0-0.695,0-0.71,0.704C42.017,34.468,41.989,34.739,42.006,35.005z M34.108,38.152
		c-0.015-0.062-0.029-0.124-0.043-0.185c0.105-0.036,0.215-0.108,0.315-0.096c0.255,0.032,0.505,0.146,0.759,0.149
		c2.188,0.039,4.375,0.061,6.562,0.088c0.053,0.001,0.105,0,0.158,0.044C39.275,38.152,36.691,38.152,34.108,38.152z M40.704,38.792
		c-1.886,0-4.196,0-6.507,0c0.002-0.056,0.005-0.112,0.007-0.168C36.513,38.684,38.82,38.743,40.704,38.792z M34.019,36.816
		c0.03-0.198,0.009-0.361,0.079-0.424c0.071-0.064,0.333-0.049,0.336-0.035c0.068,0.374,0.368,0.306,0.605,0.312
		c1.724,0.039,3.447,0.071,5.171,0.101c0.53,0.009,1.062,0.001,1.592,0.001c-0.001,0.016-0.001,0.031-0.002,0.046
		C39.221,36.816,36.641,36.816,34.019,36.816z M41.761,37.497c-0.001,0.025-0.001,0.049-0.001,0.074
		c-2.551-0.048-5.102-0.097-7.653-0.146c0.001-0.039,0.002-0.079,0.002-0.118C36.661,37.37,39.21,37.434,41.761,37.497z
		 M41.547,36.195c-1.61-0.01-3.221-0.04-4.831-0.056c-0.886-0.009-1.772-0.001-2.658-0.001c-0.005-0.055-0.009-0.11-0.014-0.164
		c0.113-0.103,0.225-0.206,0.258-0.236c0.227,0.101,0.404,0.243,0.586,0.249c2.175,0.067,4.35,0.117,6.525,0.158
		c0.18,0.003,0.359-0.088,0.574-0.088C41.84,36.105,41.694,36.196,41.547,36.195z M45.049,35.348
		c0.469-0.408,1.039-0.611,1.65-0.337c0.285,0.128,0.51,0.083,0.795,0.03c0.385-0.072,0.796-0.007,1.195,0
		c0.214,0.003,0.446,0.063,0.638-0.001c0.438-0.144,0.845-0.154,1.281,0.016c0.173,0.067,0.414,0.052,0.597-0.01
		c0.516-0.172,1.003-0.184,1.457,0.14c0.541,0.386,0.682,0.879,0.469,1.576c-0.153,0.502-0.684,0.858-1.425,0.861
		c-0.491-0.345-1.131,0-1.749-0.038c-0.656-0.04-1.298,0.019-1.936-0.01c-0.625-0.027-1.224-0.079-1.858,0.014
		c-0.715,0.105-1.196-0.391-1.352-1.108C44.717,36.045,44.719,35.636,45.049,35.348z M72.769,49.377
		c-0.337,0.099-0.689,0.179-1.039,0.196c-0.839,0.04-1.678,0.075-2.517,0.102c0.42-0.768,0.808-2.033,1.112-2.386
		c0.323-0.375,0.631-0.765,0.928-1.16c0.104-0.137,0.16-0.312,0.278-0.551c-0.266,0-0.441-0.002-0.62,0
		c-4.558,0.074-9.115,0.146-13.673,0.229c-0.277,0.004-0.554,0.096-0.856,0.153c-0.137-0.245,0.303-0.774-0.257-0.921
		c-0.723-0.191-0.581,0.495-0.714,0.769c-4.32,0-8.551,0-12.799,0c-0.05-0.189-0.123-0.351-0.132-0.514
		c-0.024-0.432-0.333-0.383-0.611-0.386c-0.372-0.006-0.28,0.283-0.288,0.49c-0.013,0.319-0.003,0.64-0.003,1.038
		c-0.229-0.757-0.246-0.752-1.003-0.775c-4.485-0.133-8.97-0.273-13.455-0.409c-0.176-0.006-0.352,0.016-0.683,0.032
		c0.375,0.537,0.665,0.977,0.979,1.4c0.297,0.4,1.397,1.829,2.33,2.76c-0.229-0.01-0.455-0.021-0.683-0.033
		c-1.37-0.077-2.757,0.078-4.094-0.42c-0.37-0.138-0.379-0.292-0.307-0.584c0.207-0.842,0.035-1.644-0.255-2.469
		c-0.129,0.102-0.23,0.181-0.333,0.261c-0.269-0.397-0.197-0.851,0.038-0.948c-0.072-0.186-0.165-0.356-0.204-0.538
		c-0.065-0.298-0.095-0.603-0.157-1.022c-0.096,0.218-0.138,0.315-0.18,0.413c-0.016-0.006-0.033-0.011-0.05-0.017
		c0.016-0.235,0.033-0.472,0.049-0.708c-0.03-0.008-0.059-0.015-0.09-0.023c-0.018,0.038-0.04,0.074-0.062,0.112
		c0.33-1.469,0.89-3.897,1.285-4.612c-0.225,0.009-0.449,0.024-0.672,0.033c0.132-0.272,0.458-0.195,0.846-0.232
		c0.012-0.003,0.024-0.006,0.034-0.003c-0.012,0.001-0.023,0.001-0.034,0.003c-0.052,0.015-0.111,0.085-0.174,0.199
		c0.127-0.004,0.252-0.009,0.379-0.007c1.102,0.016,2.204,0.051,3.305,0.067c0.717,0.01,1.433,0.002,2.15,0.002
		c0-0.022,0-0.045,0-0.066c-0.741,0-1.481,0-2.222,0c1.03-0.029,2.06-0.065,3.086-0.018c1.083,0.049,2.162,0.223,3.245,0.263
		c2.136,0.078,4.272,0.129,6.409,0.143c6.95,0.045,13.901,0.087,20.852,0.083c1.16,0,2.347,0.084,3.489-0.288
		c0.203-0.066,0.464,0.042,0.696,0.077c0.123,0.017,0.245,0.072,0.369,0.073c0.877,0.006,1.753,0.003,2.63,0.003
		c0-0.008,0-0.016,0-0.025c-0.666-0.054-1.334-0.107-2-0.16c0.893-0.066,1.786-0.114,2.673-0.052
		c0.829,0.059,1.657-0.17,2.502,0.188c0.438,0.185,1.052-0.038,1.584-0.077c0.001-0.03,0.002-0.058,0.004-0.088
		c-0.086-0.025-0.171-0.049-0.256-0.074c0.614-0.141,0.705-0.24,0.593-0.722c-0.074-0.313-0.187-0.617-0.281-0.926
		c-0.027-0.019-0.054-0.037-0.081-0.054c-0.033,0.104-0.065,0.209-0.099,0.314c-0.057-0.022-0.114-0.047-0.172-0.069
		c-0.069-0.526-0.139-1.052-0.201-1.578c-0.006-0.047,0.038-0.142,0.056-0.14c0.006,0,0.012,0,0.017,0
		c-0.112-0.318-0.22-0.61-0.313-0.865c0.031,0.314,0.063,0.628,0.096,0.941c-0.177-0.369-0.226-0.767-0.367-1.129
		c-0.138-0.357-0.37-0.677-0.54-0.975c0.066,0.027,0.225,0.111,0.396,0.154c0.035,0.009,0.191,0.402,0.416,1.008
		c-0.013-0.128-0.026-0.257-0.039-0.385c0.025-0.015,0.049-0.03,0.074-0.043c0.149,0.313,0.317,0.62,0.437,0.944
		c0.039,0.105,0.146,0.355-0.158,0.35c0.454,1.262,1.032,2.917,1.481,4.16c-0.034,0.002-0.068,0.005-0.103,0.007
		c0,0.251,0.003,0.5,0,0.752c-0.024,1.541-0.208,3.042-0.906,4.453c-0.25,0.504-0.41,1.055-0.58,1.594
		c-0.212,0.679-0.373,1.365-0.157,2.084C73.261,49.1,73.042,49.296,72.769,49.377z"/>
	<path fill="#17A2B8" d="M68.854,41.268c-0.438-0.015-0.876,0.024-1.314,0.026c-2.689,0.012-5.378,0.02-8.065,0.027
		c-0.876,0.003-1.753,0.001-2.628,0.001c0.289,0.001,0.542-0.336,0.872-0.101c0.09,0.064,0.334-0.085,0.526-0.145
		c0.137,0.255,0.358,0.268,0.642-0.057c0.147,0.321,0.377,0.252,0.608,0.164c0.052-0.02,0.102-0.085,0.147-0.08
		c0.365,0.04,0.729,0.104,1.096,0.132c0.093,0.007,0.197-0.132,0.29-0.125c0.36,0.027,0.718,0.128,1.074,0.122
		c0.563-0.009,1.125-0.116,1.688-0.121c0.576-0.004,1.151,0.083,1.728,0.095c0.645,0.013,1.291-0.019,1.936-0.025
		c0.54-0.006,1.081-0.001,1.64-0.001c-0.04-0.527-0.328-0.526-0.619-0.522c-1.824,0.016-3.649,0.038-5.473,0.049
		c-1.868,0.012-3.736,0.015-5.604,0.025c-0.564,0.002-0.693,0.129-0.716,0.696c-0.02,0.505-0.035,1.011-0.042,1.517
		c-0.012,0.899-0.007,0.9,0.9,0.958c0.154,0.01,0.312,0.012,0.467,0.01c1.768-0.012,3.535-0.02,5.303-0.043
		c1.724-0.023,3.447-0.068,5.172-0.09c0.422-0.004,0.63-0.175,0.639-0.598c0.012-0.56,0.045-1.119,0.033-1.678
		C69.152,41.418,68.962,41.271,68.854,41.268z M59.322,41.97c0-0.011-0.001-0.024-0.001-0.035c3.048,0,6.096,0,9.145,0
		c0,0.011,0,0.024,0,0.035C65.419,41.97,62.37,41.97,59.322,41.97z"/>
	<path fill="#17A2B8" d="M55.35,41.436c-0.031-0.644-0.114-0.698-0.782-0.704c-2.589-0.021-5.179-0.041-7.767-0.063
		c-1.246-0.009-2.49-0.021-3.737-0.031c-0.286-0.002-0.542,0.036-0.505,0.504c0.23-0.061,0.429-0.113,0.652-0.172
		c0.139,0.234,0.394,0.247,0.704-0.044c0.193,0.306,0.481,0.29,0.651,0.037c0.125,0.062,0.243,0.173,0.351,0.165
		c0.143-0.014,0.277-0.119,0.415-0.186c0.054,0.042,0.157,0.191,0.259,0.191c0.159-0.001,0.317-0.104,0.482-0.166
		c0.067,0.188,0.311,0.279,0.564,0.125c0.031-0.02,0.043-0.07,0.064-0.106c0.025,0.018,0.05,0.031,0.073,0.052
		c0.224,0.194,0.399,0.124,0.653-0.003c0.106-0.054,0.416,0.217,0.665,0.043c0.033-0.024,0.046-0.076,0.073-0.124
		c0.235,0.3,0.512,0.288,0.711-0.008c0.18,0.296,0.445,0.314,0.752,0.053c0.201,0.267,0.441,0.264,0.671-0.006
		c0.202,0.284,0.425,0.293,0.739,0.03c0.226,0.279,0.462,0.272,0.679,0.017c0.079,0.063,0.165,0.186,0.232,0.175
		c0.312-0.045,0.617-0.038,0.929,0.004c0.092,0.013,0.254-0.142,0.287-0.112c0.232,0.211,0.417,0.12,0.671,0.021
		c0.195-0.078,0.466,0.03,0.702,0.062c0.204,0.029,0.406,0.066,0.61,0.1c-0.003,0.01-0.006,0.021-0.008,0.031
		c-4.22,0-8.439,0-12.69,0c0.039,0.195,0.065,0.33,0.105,0.53c0.232-0.061,0.436-0.114,0.554-0.145
		c0.168,0.052,0.286,0.106,0.41,0.125c0.452,0.063,0.903-0.09,1.36,0.011c0.129,0.029,0.292-0.127,0.434-0.118
		c0.36,0.021,0.717,0.094,1.074,0.129c0.088,0.009,0.183-0.046,0.273-0.078c0.033-0.011,0.083-0.062,0.085-0.061
		c0.349,0.378,0.804-0.065,1.181,0.146c0.042,0.024,0.166-0.097,0.251-0.151c-0.007,0.039-0.012,0.077-0.019,0.114
		c0.567,0.026,1.137,0.097,1.701,0.065c0.56-0.031,1.114,0.026,1.668,0.004c0.561-0.021,1.104,0.082,1.657,0.106
		c-3.569,0-7.139,0-10.741,0c0.051,0.246-0.05,0.521,0.324,0.513c0.321-0.007,0.643,0.011,0.964-0.007
		c0.281-0.016,0.607-0.179,0.832-0.085c0.489,0.206,0.972,0.064,1.453,0.106c0.239,0.021,0.485-0.042,0.727-0.039
		c0.43,0.007,0.859,0.045,1.289,0.05c0.281,0.003,0.565-0.044,0.846-0.035c0.858,0.028,1.718,0.087,2.576,0.107
		c0.803,0.02,1.607,0.004,2.411,0.004c0,0.027,0,0.056,0,0.084c-3.802,0-7.604,0-11.395,0c-0.111,0.468,0.12,0.541,0.458,0.491
		c0.079-0.012,0.154-0.078,0.229-0.075c0.87,0.042,1.741,0.116,2.612,0.132c1.027,0.021,2.057-0.022,3.084-0.014
		c1.118,0.009,2.234,0.05,3.351,0.064c0.947,0.011,1.892,0.002,2.838,0.002c0,0.031,0,0.062-0.001,0.093c-4.175,0-8.35,0-12.525,0
		c-0.019,0.041-0.038,0.082-0.057,0.124c0.135,0.089,0.261,0.229,0.407,0.256c0.286,0.054,0.584,0.058,0.876,0.061
		c2.03,0.015,4.06,0.024,6.09,0.031c1.638,0.007,3.275,0.008,4.913,0.016c0.397,0.002,0.611-0.166,0.608-0.581
		C55.353,42.677,55.378,42.055,55.35,41.436z"/>
	<path fill="#17A2B8" d="M41.136,41.958c-0.389-0.036-0.756-0.07-1.124-0.103c0.001-0.039,0.003-0.078,0.004-0.117
		c0.363,0,0.727,0,1.106,0c0-0.16,0-0.298,0-0.535c-4.086-0.088-8.161-0.176-12.254-0.264c-0.014,0.37,0,0.551,0.396,0.536
		c0.712-0.025,1.427,0.025,2.141,0.05c1.247,0.042,2.494,0.098,3.742,0.132c1.462,0.04,2.923,0.063,4.384,0.093
		c-0.003,0.036-0.005,0.071-0.009,0.106c-3.554-0.076-7.108-0.15-10.663-0.224c-0.032,0.055-0.064,0.11-0.096,0.166
		c0.121,0.124,0.236,0.35,0.363,0.355c1.362,0.065,2.726,0.102,4.089,0.131c0.717,0.016,1.435,0.003,2.151,0.003
		c0,0.042,0,0.083-0.001,0.125c-0.505,0-1.01,0.007-1.517-0.001c-1.556-0.024-3.112-0.057-4.668-0.068
		c-0.121-0.001-0.33,0.12-0.349,0.214c-0.044,0.226,0.124,0.294,0.345,0.299c0.689,0.014,1.378,0.05,2.068,0.073
		c1.136,0.039,2.271,0.073,3.407,0.109c-0.001,0.008-0.001,0.016-0.002,0.025c-1.911,0-3.823,0-5.849,0
		c0.152,0.16,0.22,0.297,0.312,0.319c0.284,0.064,0.576,0.098,0.868,0.114c0.533,0.028,1.066,0.032,1.6,0.05
		c1.026,0.037,2.053,0.082,3.079,0.11c1.016,0.027,2.032,0.034,3.048,0.055c0.974,0.018,1.946,0.049,2.92,0.061
		c0.33,0.004,0.528-0.145,0.511-0.52C41.123,42.832,41.136,42.409,41.136,41.958z"/>
	<path fill="#17A2B8" d="M44.602,31.392c2.561,0.03,5.121,0.067,7.682,0.096c0.158,0.002,0.319-0.076,0.479-0.07
		c0.221,0.009,0.438,0.088,0.658,0.091c0.594,0.011,1.187-0.01,1.781-0.004c0.202,0.002,0.379,0.004,0.376-0.264
		c-0.003-0.211,0.037-0.425-0.318-0.401c-0.363,0.024-0.731-0.045-1.097-0.051c-1.287-0.02-2.575-0.037-3.862-0.042
		c-2.306-0.011-4.614-0.017-6.92-0.014c-0.107,0-0.24,0.086-0.316,0.171c-0.088,0.101-0.128,0.245-0.226,0.449
		c0.158,0.02,0.304,0.05,0.449,0.052C43.725,31.405,44.164,31.386,44.602,31.392z"/>
	<path fill="#17A2B8" d="M74.081,41.408c0.044-0.343,0.009-0.496-0.402-0.433c-0.495,0.075-1.003,0.074-1.506,0.106
		c-0.002-0.064-0.004-0.126-0.007-0.191c0.347,0,0.694,0.005,1.04-0.002c0.71-0.014,0.768-0.039,0.818-0.25
		c-0.896,0-1.812-0.021-2.726,0.006c-0.803,0.024-0.912,0.134-0.888,0.929c0.019,0.641,0.116,1.28,0.18,1.925
		c0.895,0.265,1.965,0.062,2.633-0.382C73.852,42.698,73.995,42.083,74.081,41.408z M72.734,42.478
		c-0.174,0.235-0.363,0.459-0.565,0.671c-0.014,0.014-0.262-0.119-0.264-0.187c-0.008-0.25,0.004-0.516,0.09-0.745
		c0.043-0.12,0.254-0.178,0.389-0.264c0.018,0.032,0.035,0.065,0.054,0.099c-0.05,0.021-0.1,0.04-0.245,0.101
		c0.309,0.021,0.522,0.036,0.637,0.044C72.803,42.28,72.795,42.398,72.734,42.478z"/>
	<path fill="#17A2B8" d="M31.699,40.852c0.351-0.024,0.827,0.289,1.092-0.376c0.022,0.465,0.231,0.467,0.513,0.36
		c-0.023-0.068-0.045-0.136-0.083-0.249c0.315,0.002,0.574,0.722,0.894,0.078c0.164,0.341,0.419,0.37,0.72,0.089
		c0.194,0.281,0.458,0.279,0.692-0.007c0.168,0.313,0.428,0.315,0.672,0.004c0.175,0.32,0.47,0.327,0.694,0.017
		c0.184,0.326,1.106,0.351,1.285,0.125c0.782,0.296,1.56,0.089,2.306,0.166c0.199,0.02,0.401,0.002,0.625,0.002
		c-0.068-0.478-0.374-0.475-0.675-0.482c-2.008-0.048-4.016-0.1-6.023-0.144c-1.669-0.038-3.337-0.069-5.006-0.102
		c-0.275-0.006-0.475,0.065-0.414,0.537C29.912,40.871,30.809,40.911,31.699,40.852z"/>
	<path fill="#17A2B8" d="M35.951,31.301c1.862,0.016,3.725,0.032,5.586,0.032c0.089,0,0.228-0.137,0.257-0.237
		c0.072-0.241-0.034-0.35-0.306-0.35c-1.792,0.002-3.585-0.01-5.376-0.015c-0.064,0-0.127,0.033-0.237,0.065
		c0.08,0.103,0.133,0.171,0.184,0.238c-0.068,0.044-0.156,0.099-0.304,0.193C35.874,31.274,35.913,31.301,35.951,31.301z"/>
	<path fill="#17A2B8" d="M56.832,31.248c0.003,0.062,0.007,0.125,0.011,0.187c1.832,0.052,3.665,0.103,5.497,0.065
		c0.003-0.062,0.007-0.124,0.01-0.185c-0.45-0.023-0.899-0.046-1.155-0.059c0.261-0.016,0.713-0.043,1.261-0.076
		c-0.359-0.315-5.287-0.383-5.654-0.119c0.252,0.048,0.448,0.086,0.584,0.112C57.242,31.191,57.037,31.22,56.832,31.248z"/>
	<path fill="#17A2B8" d="M51.327,36.2c-0.034,0.183-0.058,0.392-0.113,0.594c-0.081,0.305,0.057,0.468,0.335,0.512
		c0.407,0.063,0.784,0.023,1.042-0.369c0.33-0.5,0.362-0.968,0.074-1.369c-0.235-0.329-0.664-0.472-1.094-0.351
		c-0.298,0.084-0.548,0.199-0.308,0.587C51.323,35.9,51.305,36.045,51.327,36.2z"/>
	<path fill="#17A2B8" d="M46.042,37.258c0.601,0.011,0.727-0.156,0.654-0.757c-0.033-0.272,0.053-0.557,0.043-0.835
		c-0.003-0.141-0.062-0.337-0.165-0.406c-0.298-0.203-0.805-0.108-1.105,0.153c-0.442,0.386-0.414,0.831-0.214,1.333
		C45.407,37.125,45.669,37.258,46.042,37.258z"/>
	<path fill="#17A2B8" d="M47.446,36.639c-0.088,0.54-0.021,0.636,0.506,0.634c0.65-0.003,0.724-0.113,0.63-0.756
		c-0.038-0.27,0.043-0.557,0.034-0.834c-0.004-0.141-0.081-0.396-0.134-0.399c-0.322-0.013-0.647,0.02-0.968,0.068
		c-0.048,0.008-0.129,0.232-0.095,0.273C47.702,35.962,47.501,36.305,47.446,36.639z"/>
	<path fill="#17A2B8" d="M49.337,36.669c-0.101,0.511-0.003,0.633,0.514,0.612c0.67-0.028,0.709-0.1,0.613-0.77
		c-0.039-0.269-0.007-0.562,0.063-0.826c0.068-0.255-0.012-0.422-0.229-0.441c-0.282-0.025-0.576,0.021-0.854,0.086
		c-0.071,0.016-0.175,0.27-0.137,0.323C49.55,35.995,49.404,36.333,49.337,36.669z"/>
</g>
</svg>
