<?xml version="1.0" encoding="utf-8"?>
<!-- Generator: Adobe Illustrator 16.0.0, SVG Export Plug-In . SVG Version: 6.00 Build 0)  -->
<!DOCTYPE svg PUBLIC "-//W3C//DTD SVG 1.1//EN" "http://www.w3.org/Graphics/SVG/1.1/DTD/svg11.dtd">
<svg version="1.1" id="Layer_1" xmlns="http://www.w3.org/2000/svg" xmlns:xlink="http://www.w3.org/1999/xlink" x="0px" y="0px"
	 width="100px" height="100px" viewBox="0 0 100 100" enable-background="new 0 0 100 100" xml:space="preserve">
<path fill="#17A2B8" d="M81.18,35.847l0.053-0.242l-33.251,0.121l-33.25-0.121l0.053,0.242h-0.053l0.76,7.697
	c1.473,11.582,18,34.018,26.924,45.14l5.566,6.75l5.568-6.75c8.924-11.122,25.139-32.82,26.612-44.403l1.07-8.434H81.18z"/>
<circle fill-rule="evenodd" clip-rule="evenodd" fill="#FFFFFF" stroke="#85F4FF" stroke-miterlimit="10" cx="47.901" cy="35.626" r="33.17"/>
<g>
	<g>
		<g>
			<path fill-rule="evenodd" clip-rule="evenodd" fill="#17A2B8" d="M32.969,28.311c0.078-0.197,0.13-0.365,0.209-0.519
				c0.114-0.221,0.149-0.493,0.394-0.641c0.051-0.032,0.068-0.121,0.101-0.184c-0.014-0.009-0.027-0.02-0.042-0.029
				c-0.063,0.059-0.123,0.118-0.229,0.216c0.107-0.313,0.198-0.581,0.309-0.9c0.054,0.291,0.101,0.527,0.146,0.764
				c0.007-0.005,0.048-0.032,0.088-0.06c0.021,0.141,0.042,0.282,0.064,0.419c0.028,0.012,0.045,0.024,0.062,0.025
				c0.416,0.022,0.43,0.059,0.223,0.433c-0.139,0.25-0.255,0.514-0.38,0.771c-0.06,0.118-0.01,0.184,0.102,0.205
				c0.117,0.022,0.237,0.045,0.353,0.037c0.055-0.004,0.117-0.072,0.152-0.126c0.123-0.181,0.237-0.369,0.354-0.553
				c0.025,0.016,0.052,0.032,0.076,0.049c-0.166,0.262-0.333,0.524-0.499,0.786c-0.22-0.039-0.433-0.076-0.689-0.121
				c-0.036,0.279-0.07,0.554-0.104,0.828c-0.001,0.012,0.003,0.026-0.001,0.038c-0.089,0.274,0.12,0.487,0.154,0.738
				c0.202,1.481,0.734,2.864,1.259,4.25c0.029,0.076,0.059,0.152,0.083,0.229c0.069,0.208,0.188,0.354,0.425,0.355
				c0.197,0,0.262,0.135,0.349,0.284c0.199,0.345,0.47,0.624,0.847,0.779c0.042,0.016,0.09,0.01,0.146,0
				c-0.814-0.402-1.105-1.175-1.405-1.939c-0.168-0.429-0.327-0.863-0.448-1.311c0.089,0.237,0.172,0.478,0.267,0.713
				c0.169,0.416,0.345,0.831,0.522,1.245c0.02,0.05,0.056,0.096,0.09,0.138c0.13,0.155,0.305,0.287,0.384,0.463
				c0.119,0.267,0.363,0.355,0.564,0.508c0.45,0.343,0.984,0.34,1.511,0.371c0.51,0.03,1.018,0.058,1.54,0.086
				c-0.134,0.019-0.253,0.035-0.373,0.051c0.001,0.024,0.003,0.049,0.004,0.072c0.063,0.01,0.125,0.028,0.186,0.03
				c1.127,0.026,2.251,0.061,3.378,0.073c2.295,0.023,4.591,0.057,6.887,0.047c2.39-0.009,4.779-0.063,7.168-0.098
				c0.111-0.002,0.236,0.006,0.146-0.184c0.604-0.027,1.185-0.049,1.764-0.081c0.423-0.024,0.807-0.166,1.137-0.428
				c0.144-0.114,0.265-0.26,0.381-0.403c0.061-0.077,0.088-0.18,0.136-0.268c0.195-0.366,0.429-0.716,0.588-1.098
				c0.513-1.238,0.932-2.508,1.106-3.846c0.069-0.538,0.067-1.072-0.084-1.608c0.138-0.019,0.265-0.03,0.39-0.053
				c0.147-0.027,0.23-0.095,0.146-0.26c-0.137-0.266-0.273-0.532-0.405-0.802c-0.044-0.091-0.072-0.192-0.108-0.288
				c0.104-0.029,0.207-0.06,0.312-0.086c0.029-0.007,0.06-0.004,0.145-0.008c-0.063-0.216-0.121-0.411-0.188-0.641
				c0.081,0.022,0.112,0.023,0.114,0.032c0.076,0.239,0.322,0.307,0.468,0.472c0.131,0.147,0.241,0.315,0.342,0.484
				c0.068,0.118,0.123,0.149,0.276,0.124c0.254-0.042,0.519-0.014,0.779-0.007c0.118,0.003,0.235,0.021,0.353,0.033
				c0.639,0.068,1.277,0.133,1.916,0.206c0.211,0.023,0.419,0.073,0.63,0.1c0.479,0.062,0.896,0.281,1.256,0.581
				c0.173,0.144,0.265,0.396,0.367,0.612c0.094,0.197,0.168,0.406,0.218,0.618c0.057,0.241,0.085,0.49,0.113,0.736
				c0.036,0.31,0.074,0.621,0.088,0.931c0.021,0.486,0.025,0.973,0.029,1.459c0.002,0.204-0.148,0.254-0.321,0.262
				c-0.812,0.035-1.622,0.071-2.435,0.106c-0.074,0.003-0.15-0.001-0.224,0.015c-0.042,0.008-0.102,0.043-0.109,0.077
				c-0.048,0.187-0.081,0.376-0.124,0.594c0.09,0,0.156-0.002,0.224,0c0.567,0.025,1.138,0.024,1.7,0.09
				c0.315,0.036,0.618,0.182,0.926,0.28c0.125,0.04,0.247,0.086,0.371,0.128c0.174,0.062,0.303,0.167,0.365,0.35
				c0.019,0.056,0.052,0.123,0.1,0.151c0.272,0.16,0.38,0.417,0.489,0.699c0.158,0.41,0.375,0.796,0.567,1.193
				c0.022,0.045,0.076,0.092,0.068,0.129c-0.061,0.319,0.14,0.569,0.259,0.819c0.128,0.269,0.081,0.529,0.134,0.788
				c0.06,0.287,0.186,0.561,0.279,0.841c0.021,0.065,0.054,0.139,0.043,0.203c-0.03,0.179-0.11,0.354-0.115,0.531
				c-0.004,0.133,0.073,0.271,0.125,0.403c0.082,0.212,0.218,0.416,0.247,0.635c0.024,0.18,0.063,0.402-0.146,0.565
				c-0.057,0.045-0.045,0.235-0.006,0.334c0.04,0.099,0.075,0.165,0.021,0.273c-0.062,0.116-0.04,0.227,0.103,0.292
				c0.049,0.024,0.097,0.081,0.116,0.132c0.047,0.124,0.112,0.256,0.104,0.382c-0.009,0.164-0.035,0.373-0.141,0.472
				c-0.108,0.102-0.166,0.194-0.128,0.312c0.063,0.198,0.02,0.388,0,0.582c-0.014,0.132,0.002,0.242,0.152,0.305
				c0.095,0.042,0.171,0.428,0.133,0.543c-0.102,0.303-0.195,0.608-0.29,0.913c-0.008,0.024,0.004,0.068,0.021,0.083
				c0.229,0.199,0.203,0.439,0.161,0.707c-0.032,0.209-0.073,0.4-0.191,0.578c-0.034,0.048-0.019,0.148,0.008,0.212
				c0.089,0.232,0.106,0.443,0.018,0.697c-0.104,0.292-0.103,0.619-0.157,0.931c-0.02,0.117-0.066,0.228-0.103,0.344
				c-0.068,0.218-0.137,0.438-0.203,0.66c-0.007,0.03,0.002,0.064-0.007,0.092c-0.126,0.362-0.244,0.729-0.389,1.085
				c-0.048,0.119-0.169,0.207-0.248,0.314c-0.055,0.073-0.09,0.161-0.146,0.233c-0.101,0.135-0.189,0.299-0.323,0.387
				c-0.172,0.115-0.389,0.162-0.577,0.254c-0.117,0.057-0.227,0.132-0.322,0.221c-0.136,0.12-0.282,0.175-0.469,0.199
				c-1.221,0.154-2.448,0.069-3.672,0.075c-0.591,0.008-1.084-0.231-1.509-0.636c-0.628-0.595-1.038-1.324-1.294-2.141
				c-0.128-0.398-0.222-0.809-0.318-1.219c-0.023-0.107,0.002-0.224-0.004-0.334c-0.005-0.09,0.003-0.194-0.035-0.267
				c-0.146-0.271-0.219-0.554-0.2-0.859c0-0.02-0.007-0.042,0-0.056c0.184-0.402-0.058-0.736-0.179-1.087
				c-0.066-0.192-0.076-0.373,0.062-0.541c0.009-0.01,0.022-0.021,0.021-0.029c-0.014-0.172,0-0.351-0.053-0.509
				c-0.057-0.173-0.214-0.216-0.404-0.233c-0.228-0.02-0.425-0.109-0.666,0.031c-0.129,0.075-0.357-0.024-0.54-0.045
				c-0.056-0.006-0.112-0.016-0.168-0.016c-0.644,0.001-1.289,0.006-1.934,0.004c-0.135-0.001-0.211,0.022-0.202,0.183
				c0.009,0.143-0.089,0.141-0.173,0.078c-0.497-0.373-1.039-0.142-1.564-0.12c-0.033,0.001-0.07,0.03-0.094,0.057
				c-0.101,0.11-0.189,0.116-0.298,0.002c-0.036-0.038-0.107-0.053-0.165-0.059c-0.101-0.008-0.202,0.009-0.301-0.003
				c-0.249-0.029-0.428,0.072-0.622,0.227c-0.215,0.17-0.481,0.279-0.735,0.394c-0.29,0.13-0.59,0.241-0.885,0.357
				c-0.07,0.026-0.143,0.056-0.215,0.064c-0.285,0.034-0.57,0.054-0.854,0.09c-0.497,0.063-0.922-0.145-1.369-0.31
				c-0.461-0.17-0.858-0.414-1.198-0.765c-0.064-0.067-0.183-0.112-0.277-0.114c-0.514-0.011-1.026-0.011-1.54-0.003
				c-1.086,0.017-2.173,0.036-3.26,0.065c-0.21,0.005-0.418,0.066-0.626,0.093c-0.211,0.026-0.421,0.049-0.632,0.062
				c-0.922,0.055-1.843,0.101-2.764,0.157c-0.249,0.015-0.497,0.06-0.745,0.063c-0.178,0.001-0.356-0.07-0.533-0.062
				c-0.804,0.035-1.607,0.083-2.411,0.135c-0.23,0.014-0.441,0.019-0.59-0.303c-0.055,0.375-0.265,0.416-0.512,0.382
				c-0.063-0.009-0.155-0.039-0.175-0.086c-0.067-0.154-0.185-0.16-0.323-0.155c-0.079,0.003-0.159-0.024-0.238-0.041
				c-0.171-0.036-0.342-0.087-0.493,0.064c-0.028,0.029-0.094,0.041-0.137,0.033c-0.191-0.043-0.383-0.096-0.532,0.084
				c-0.037,0.043-0.068,0.117-0.058,0.169c0.065,0.341,0.063,0.666-0.046,1.01c-0.067,0.216,0.011,0.476,0.016,0.717
				c0.005,0.19,0.031,0.388-0.01,0.569c-0.056,0.247-0.097,0.469-0.006,0.728c0.055,0.154-0.023,0.359-0.045,0.542
				c-0.013,0.12-0.063,0.244-0.044,0.359c0.148,0.914,0.053,1.78-0.484,2.562c-0.185,0.271-0.316,0.591-0.615,0.764
				c-0.13,0.073-0.281,0.156-0.423,0.158c-1.237,0.015-2.478,0.015-3.715,0.011c-0.145,0-0.289-0.059-0.434-0.096
				c-0.234-0.061-0.466-0.145-0.703-0.179c-0.199-0.028-0.338-0.12-0.452-0.268c-0.46-0.598-0.764-1.254-0.776-2.027
				c-0.003-0.162-0.095-0.319-0.114-0.485c-0.025-0.235,0.01-0.48-0.035-0.711c-0.07-0.357-0.006-0.694,0.057-1.041
				c0.02-0.102-0.042-0.231-0.1-0.329c-0.163-0.28-0.04-0.536,0.039-0.798c0.032-0.104,0.069-0.217,0.052-0.317
				c-0.041-0.243-0.138-0.476-0.167-0.718c-0.034-0.289-0.113-0.594,0.106-0.857c0.018-0.022,0.023-0.059,0.023-0.089
				c0-0.272,0.013-0.548-0.012-0.82c-0.014-0.16-0.11-0.31-0.139-0.469c-0.022-0.126-0.002-0.26,0.004-0.391
				c0-0.03,0.009-0.072,0.028-0.086c0.198-0.14,0.129-0.343,0.131-0.53c0-0.092,0.004-0.186,0.006-0.279
				c0.002-0.122,0.026-0.241-0.101-0.338c-0.049-0.037-0.054-0.164-0.041-0.242c0.039-0.209,0.101-0.415,0.147-0.623
				c0.024-0.102,0.028-0.208,0.05-0.311c0.067-0.312-0.115-0.603-0.08-0.907c0.025-0.219,0.091-0.433,0.136-0.648
				c0.03-0.14,0.115-0.283-0.026-0.415c-0.019-0.02-0.035-0.058-0.032-0.085c0.031-0.304-0.057-0.624,0.142-0.907
				c0.047-0.065,0.027-0.18,0.031-0.271c0.013-0.283,0.018-0.566,0.041-0.849c0.011-0.134,0.057-0.264,0.085-0.397
				c0.063-0.285,0.124-0.57,0.187-0.854c0.007-0.03,0.024-0.059,0.027-0.089c0.08-0.593,0.436-1.066,0.729-1.556
				c0.093-0.156,0.375-0.219,0.584-0.282c0.591-0.181,1.199-0.239,1.816-0.226c0.037,0.001,0.072-0.008,0.154-0.017
				c-0.057-0.287-0.107-0.565-0.176-0.839c-0.008-0.034-0.112-0.062-0.174-0.065c-0.605-0.028-1.211-0.049-1.817-0.074
				c-0.288-0.012-0.314-0.066-0.354-0.343c-0.121-0.82-0.034-1.639,0.026-2.452c0.057-0.747,0.242-1.479,0.87-2.004
				c0.274-0.229,0.571-0.38,0.922-0.421c0.811-0.095,1.623-0.201,2.437-0.272c0.356-0.03,0.718,0.013,1.08,0.032
				c0.045,0.002,0.093,0.056,0.129,0.095C32.783,28.098,32.862,28.192,32.969,28.311z M61.147,35.46
				c-0.018-0.023-0.032-0.048-0.048-0.072c0.09-0.041,0.177-0.108,0.269-0.115c0.204-0.017,0.314-0.122,0.386-0.302
				c0.47-1.225,0.932-2.452,1.182-3.747c0.12-0.628,0.324-1.243,0.203-1.901c-0.066-0.36-0.046-0.365-0.397-0.312
				c-0.056,0.009-0.12-0.004-0.166,0.021c-0.045,0.027-0.106,0.097-0.099,0.132c0.146,0.612,0.075,1.22-0.032,1.825
				c-0.257,1.429-0.767,2.779-1.323,4.112c-0.197,0.474-0.47,0.898-0.921,1.175c-0.088,0.053-0.177,0.101-0.314,0.177
				c0.416-0.018,0.639-0.279,0.882-0.471c0.057,0.08,0.103,0.146,0.151,0.212c0.076-0.064,0.166-0.121,0.229-0.197
				c0.073-0.084,0.117-0.192,0.184-0.281c0.105-0.143,0.082-0.255-0.053-0.359C61.231,35.394,61.188,35.428,61.147,35.46z
				 M32.055,30.908c-0.003-0.016-0.005-0.031-0.008-0.046c-0.34,0.021-0.679,0.041-1.017,0.064
				c-0.242,0.017-0.481,0.061-0.721,0.056c-0.619-0.014-1.236-0.048-1.854-0.073c-0.118-0.004-0.246-0.003-0.244,0.159
				c0.001,0.167,0.146,0.17,0.261,0.173c0.192,0.004,0.384-0.02,0.578-0.017c0.556,0.007,1.107-0.054,1.667,0.042
				c0.438,0.075,0.897,0.03,1.345,0.024c0.06-0.001,0.158-0.083,0.168-0.139c0.019-0.115-0.044-0.199-0.187-0.195
				c-0.101,0.003-0.203-0.013-0.304-0.02c0.001-0.009,0.001-0.018,0.001-0.027C31.846,30.908,31.95,30.908,32.055,30.908z
				 M48.946,42.69c-0.615,0-1.205,0-1.795,0c0,0.193-0.002,0.374,0,0.554c0.001,0.108,0.04,0.171,0.167,0.167
				c0.488-0.016,0.975-0.028,1.464-0.035c0.111-0.001,0.163-0.043,0.163-0.151C48.946,43.052,48.946,42.878,48.946,42.69z
				 M64.663,31.289c0.174,0.043,0.298,0.092,0.425,0.099c0.082,0.004,0.166-0.071,0.251-0.078c0.166-0.013,0.334,0,0.502-0.004
				c0.031-0.001,0.074-0.032,0.087-0.06c0.065-0.133,0.11-0.082,0.18,0c0.049,0.057,0.13,0.125,0.194,0.124
				c0.362-0.011,0.726-0.048,1.088-0.065c0.279-0.012,0.573,0.083,0.821-0.126c0.042-0.035,0.086-0.068,0.129-0.103
				c-0.058-0.029-0.114-0.081-0.172-0.084c-0.219-0.011-0.44-0.01-0.661-0.006c-0.092,0.002-0.187,0.013-0.276,0.035
				c-0.202,0.049-0.401,0.112-0.603,0.16c-0.057,0.013-0.122-0.005-0.182-0.017c-0.295-0.056-0.59-0.154-0.888-0.159
				c-0.258-0.004-0.521,0.093-0.778,0.152C64.749,31.165,64.727,31.216,64.663,31.289z M68.931,31.449
				c-0.011-0.028-0.021-0.057-0.031-0.084c-1.385,0.033-2.769,0.065-4.147,0.098c-0.022,0.214,0.104,0.186,0.217,0.182
				c1.03-0.034,2.06-0.069,3.089-0.101c0.23-0.007,0.462,0.006,0.691-0.005C68.811,31.537,68.87,31.48,68.931,31.449z
				 M32.216,31.481c-0.004-0.038-0.01-0.076-0.014-0.115c-1.41,0-2.82,0-4.231,0c0.043,0.048,0.095,0.072,0.148,0.076
				c0.131,0.008,0.262,0.007,0.393,0.01c1.156,0.03,2.31,0.06,3.464,0.085C32.056,31.539,32.136,31.5,32.216,31.481z M37.391,45.095
				c-0.434-0.21-0.882-0.294-1.349-0.248c-0.062,0.007-0.119,0.071-0.175,0.113c-0.056,0.042-0.104,0.092-0.155,0.136
				c-0.042,0.035-0.087,0.065-0.096,0.071c0.187,0.073,0.37,0.151,0.556,0.212c0.044,0.015,0.111-0.019,0.159-0.044
				c0.07-0.037,0.126-0.114,0.196-0.126C36.813,45.162,37.102,45.131,37.391,45.095z M46.57,42.686c-0.117,0-0.246,0.001-0.375,0
				c-0.474-0.005-0.327-0.031-0.349,0.406c-0.001,0.039,0.047,0.104,0.087,0.119c0.497,0.188,0.728,0.013,0.658-0.495
				C46.592,42.71,46.585,42.706,46.57,42.686z M33.814,44.781c-0.009,0.013-0.019,0.026-0.029,0.039
				c0.048,0.059,0.087,0.162,0.144,0.17c0.278,0.047,0.561,0.075,0.842,0.09c0.031,0.001,0.116-0.153,0.096-0.19
				c-0.063-0.109-0.037-0.308-0.246-0.297c-0.018,0.001-0.041,0.029-0.052,0.05c-0.104,0.193-0.28,0.205-0.468,0.183
				C34.005,44.815,33.91,44.796,33.814,44.781z M49.998,43.342c-0.224,0-0.423-0.013-0.62,0.004c-0.187,0.017-0.21-0.065-0.19-0.218
				c0.017-0.134,0.019-0.269,0.027-0.405c-0.026,0-0.053,0-0.078,0.001c0.023,0.3,0.046,0.599,0.072,0.914
				c0.443-0.032,0.856-0.062,1.207-0.088c-0.062,0.054-0.163-0.312-0.292-0.06c-0.061-0.013-0.123-0.027-0.185-0.042
				C49.955,43.421,49.974,43.385,49.998,43.342z M42.999,39.255c0-0.014,0.001-0.028,0.001-0.042c0.16,0.095,0.32,0.19,0.509,0.304
				c-0.057-0.232-0.32-0.323-0.237-0.562c0.003-0.006-0.01-0.022-0.02-0.029c-0.103-0.07-0.205-0.14-0.288-0.195
				c-0.06,0.056-0.151,0.103-0.17,0.17c-0.033,0.111-0.019,0.235-0.025,0.354C42.845,39.255,42.921,39.255,42.999,39.255z
				 M46.421,39.401c0-0.076,0.009-0.167-0.006-0.253c-0.005-0.029-0.094-0.076-0.112-0.064c-0.104,0.066-0.21,0.136-0.29,0.228
				c-0.081,0.091-0.128,0.095-0.191-0.004c-0.025-0.041-0.061-0.077-0.092-0.117c-0.058,0.071-0.108,0.133-0.158,0.196
				c0.017,0,0.036,0,0.054,0c0.007,0.089,0.013,0.176,0.022,0.284c0.096-0.08,0.19-0.155,0.275-0.225
				c0.121,0.081,0.236,0.157,0.321,0.213C46.307,39.567,46.359,39.491,46.421,39.401z M53.181,38.664
				c-0.011,0.013-0.02,0.027-0.029,0.041c0.016,0.024,0.029,0.052,0.047,0.073c0.172,0.197,0.189,0.412,0.073,0.641
				c-0.03,0.062-0.081,0.121-0.087,0.185c-0.005,0.064,0.032,0.133,0.053,0.199c0.052-0.029,0.122-0.045,0.153-0.09
				c0.199-0.272,0.187-0.685-0.026-0.94C53.32,38.721,53.242,38.699,53.181,38.664z M43.73,39.992c0-0.016,0-0.033-0.001-0.049
				c-0.38,0-0.761-0.002-1.143,0.003c-0.04,0-0.08,0.046-0.12,0.071c0.035,0.025,0.069,0.07,0.104,0.07
				c0.637,0.004,1.274,0.003,1.957,0.003c-0.388-0.026-0.729-0.05-1.068-0.074c0-0.003,0-0.007,0-0.01
				C43.549,40.001,43.64,39.997,43.73,39.992z M42.189,38.676c-0.032,0.01-0.063,0.021-0.095,0.031
				c0.007,0.09,0.007,0.181,0.02,0.271c0.003,0.037,0.05,0.077,0.042,0.107c-0.07,0.277-0.141,0.55,0.138,0.767
				c0-0.306,0.008-0.605-0.005-0.902C42.285,38.857,42.224,38.768,42.189,38.676z M44.591,39.175c0,0.176,0,0.33,0,0.503
				c0.174-0.07,0.284-0.163,0.307-0.337c0.025-0.179,0.049-0.355-0.185-0.411c-0.095,0.091-0.191,0.184-0.287,0.275
				c0.012,0.013,0.025,0.025,0.039,0.037C44.512,39.217,44.558,39.192,44.591,39.175z M54.742,40.09
				c0.42-0.188,0.287-0.545,0.279-0.809c-0.02-0.597-0.051-0.596-0.245-0.81c0.173,0.251,0.126,0.52,0.097,0.792
				C54.845,39.534,54.917,39.815,54.742,40.09z M47.07,42.637c-0.117,0.044-0.268,0.063-0.276,0.109
				c-0.028,0.17-0.011,0.349-0.011,0.507c0.035,0,0.064-0.008,0.085,0.001c0.049,0.021,0.096,0.049,0.143,0.074
				c0.019-0.046,0.053-0.092,0.056-0.14C47.074,43.026,47.07,42.864,47.07,42.637z M54.257,38.914c-0.089,0-0.239,0-0.4,0
				c0.008,0.131,0.015,0.215,0.02,0.298c0.001,0.028-0.008,0.078,0.001,0.081c0.032,0.011,0.09,0.021,0.101,0.006
				c0.085-0.133,0.169-0.14,0.266,0.034c0.021-0.081,0.032-0.125,0.039-0.147c0.161,0.007,0.025,0.297,0.247,0.255
				C54.446,39.28,54.365,39.124,54.257,38.914z M43.981,38.702c-0.151-0.023-0.175-0.005-0.274,0.229
				c-0.136,0.328-0.071,0.668,0.169,0.848c0.114-0.096,0.056-0.186,0.01-0.294c-0.051-0.112-0.094-0.248-0.075-0.364
				C43.834,38.974,43.923,38.839,43.981,38.702z M57.403,36.82c0.629-0.054,1.233,0.01,1.816-0.18
				C58.876,36.576,57.493,36.698,57.403,36.82z M47.021,39.617c0.144,0.028,0.271,0.053,0.372,0.071
				c0.016-0.079,0.036-0.183,0.057-0.286c0.023-0.002,0.047-0.005,0.069-0.007c-0.049-0.052-0.099-0.104-0.148-0.156
				c0.025-0.043,0.053-0.088,0.084-0.141C47.155,39.138,46.983,39.355,47.021,39.617z M37.945,36.611c0,0.021,0,0.042-0.001,0.062
				c0.512,0.134,1.034,0.097,1.554,0.127c0.003-0.036,0.005-0.071,0.007-0.106C38.985,36.667,38.466,36.639,37.945,36.611z
				 M44.747,42.874c-0.047-0.038-0.086-0.098-0.128-0.099c-0.272-0.013-0.545-0.015-0.818-0.012c-0.033,0-0.067,0.056-0.101,0.086
				c0.031,0.03,0.063,0.089,0.092,0.088c0.222-0.008,0.443-0.027,0.665-0.044C44.54,42.888,44.623,42.882,44.747,42.874z
				 M54.628,39.562c-0.311,0-0.585-0.004-0.861,0.006c-0.044,0.001-0.087,0.072-0.148,0.127c0.208,0.012,0.372,0.042,0.532,0.025
				C54.305,39.704,54.505,39.808,54.628,39.562z M42.547,39.635c0.348,0.029,0.685,0.188,0.987-0.006
				c-0.001-0.035-0.002-0.07-0.004-0.105c-0.286,0-0.571-0.004-0.856,0.005C42.631,39.531,42.589,39.599,42.547,39.635z
				 M50.726,42.71c-0.168,0-0.303,0-0.452,0c-0.021,0.188-0.04,0.366-0.066,0.599c0.081-0.091,0.146-0.14,0.174-0.204
				c0.051-0.118,0.08-0.245,0.118-0.369c0.025,0.001,0.052,0.002,0.077,0.005c0.021,0.109,0.042,0.216,0.063,0.325
				c0.018,0,0.037-0.001,0.056-0.001C50.705,42.951,50.714,42.837,50.726,42.71z M61.477,41.163
				c0.025,0.016,0.053,0.031,0.079,0.047c0.013-0.042,0.04-0.087,0.029-0.123c-0.008-0.038-0.049-0.081-0.085-0.093
				c-0.021-0.007-0.087,0.041-0.087,0.063C61.413,41.093,61.452,41.129,61.477,41.163z"/>
			<path fill-rule="evenodd" clip-rule="evenodd" fill="#17A2B8" d="M40.311,24.401c0.055-0.163,0.093-0.28,0.15-0.448
				c0.393,0,0.805,0.005,1.217-0.001c0.543-0.009,1.087-0.027,1.631-0.04c0.102-0.002,0.181,0.004,0.212-0.145
				c0.013-0.064,0.181-0.098,0.332-0.173c-0.272-0.067-0.519-0.179-0.765-0.18c-2.171-0.018-4.342-0.013-6.512-0.024
				c-0.28,0-0.565-0.024-0.837-0.083c-0.591-0.13-0.895-0.514-0.863-1.117c0.021-0.405,0.075-0.811,0.157-1.208
				c0.236-1.144,0.494-2.284,0.742-3.426c0.157-0.725,0.621-1.111,1.344-1.173c0.581-0.049,1.162-0.081,1.742-0.089
				c3.084-0.047,6.167-0.125,9.25-0.115c3.197,0.011,6.391,0.11,9.586,0.175c0.306,0.007,0.612,0.029,0.917,0.06
				c0.691,0.071,1.165,0.422,1.361,1.103c0.422,1.473,0.767,2.964,1.013,4.478c0.009,0.062,0.015,0.125,0.02,0.187
				c0.041,0.656-0.274,1.069-0.926,1.168c-0.311,0.048-0.634,0.057-0.952,0.058c-1.389,0.004-2.776,0-4.165-0.002
				c-0.043,0-0.086,0.005-0.18,0.011c0.351,0.175,0.737,0.161,0.986,0.455c-0.265,0.131-0.095,0.312-0.04,0.51
				c-0.078-0.015-0.135-0.026-0.191-0.035c-0.189-0.03-0.377-0.075-0.567-0.086c-0.58-0.033-1.16-0.058-1.74-0.075
				c-0.304-0.009-0.61,0.022-0.913,0.003c-2.13-0.14-4.261-0.114-6.393-0.098c-0.444,0.003-0.889,0.015-1.333,0.035
				c-0.33,0.014-0.658,0.062-0.988,0.07c-0.848,0.021-1.695,0.021-2.544,0.043c-0.155,0.003-0.308,0.066-0.463,0.101
				C40.515,24.359,40.434,24.375,40.311,24.401z M54.427,23.928c0.001-0.01,0.004-0.019,0.006-0.029
				c-0.044-0.019-0.086-0.038-0.129-0.053c-0.26-0.088-0.526-0.158-0.776-0.268c-0.286-0.125-0.575-0.171-0.888-0.17
				c-2.457,0.006-4.914,0.002-7.37,0c-0.059,0-0.118,0-0.226,0c0.248,0.125,0.44,0.231,0.642,0.32
				c0.123,0.057,0.259,0.119,0.392,0.125c0.374,0.017,0.75-0.009,1.125,0.01c0.272,0.014,0.54,0.085,0.812,0.107
				c0.243,0.019,0.49,0.006,0.735,0.006c0.277,0,0.553,0,0.831,0.002c0.318,0.001,0.639,0.01,0.958,0.005
				c0.147-0.003,0.294-0.047,0.441-0.042c0.355,0.011,0.71,0.041,1.061,0.062c0.105-0.344,0.105-0.344,0.484-0.339
				c0.062,0.001,0.125,0.004,0.187,0.009c0.1,0.007,0.153,0.048,0.158,0.163c0.005,0.065,0.06,0.173,0.104,0.181
				c0.126,0.022,0.261,0.009,0.391-0.003c0.245-0.024,0.489-0.062,0.733-0.084C54.207,23.92,54.316,23.928,54.427,23.928z
				 M36.581,18.131c-0.03-0.017-0.06-0.033-0.089-0.05c-0.065,0.093-0.166,0.178-0.191,0.281c-0.192,0.801-0.381,1.604-0.549,2.411
				c-0.076,0.372-0.11,0.754-0.152,1.133c-0.017,0.141,0.021,0.273,0.211,0.359C36.07,20.876,36.325,19.504,36.581,18.131z
				 M59.457,18.435c-0.038,0.011-0.075,0.022-0.113,0.033c0.016,0.176,0.011,0.356,0.05,0.526c0.072,0.321,0.188,0.633,0.253,0.955
				c0.09,0.453,0.146,0.912,0.223,1.367c0.007,0.039,0.062,0.067,0.082,0.105c0.016,0.032,0.012,0.073,0.017,0.11
				c0.023,0.22,0.043,0.441,0.076,0.661c0.005,0.04,0.064,0.071,0.101,0.106c0.019-0.049,0.06-0.102,0.052-0.146
				c-0.062-0.358-0.135-0.713-0.197-1.07c-0.012-0.063,0.005-0.131,0.013-0.196c0.009-0.059,0.044-0.121,0.033-0.174
				c-0.126-0.599-0.254-1.198-0.396-1.792C59.61,18.752,59.521,18.597,59.457,18.435z"/>
			<path fill-rule="evenodd" clip-rule="evenodd" fill="#17A2B8" d="M37.374,28.003c1.379,0.006,2.431,1.101,2.425,2.52
				c-0.008,1.371-1.051,2.395-2.433,2.389c-1.351-0.005-2.414-1.098-2.41-2.475C34.958,29.1,36.055,27.997,37.374,28.003z
				 M35.792,29.927c0.027-0.231,0.179-0.262,0.368-0.26c0.675,0.009,1.349,0.01,2.024,0.014c0.128,0,0.256,0,0.384,0
				c0-0.017,0-0.034,0.001-0.05c-0.503-0.013-1.004-0.02-1.506-0.04c-0.259-0.011-0.515-0.036-0.771-0.071
				C36.076,29.49,35.798,29.689,35.792,29.927z M38.085,30.901c-0.001-0.005-0.001-0.01-0.004-0.015
				c-0.268-0.044-0.536-0.088-0.805-0.13c-0.011-0.002-0.024,0.007-0.035,0.009c-0.107,0.021-0.212,0.05-0.319,0.056
				c-0.175,0.009-0.348,0.002-0.524,0.002c0.091,0.032,0.184,0.032,0.275,0.045c0.209,0.03,0.439-0.048,0.622,0.124
				c0.018,0.017,0.07,0,0.104-0.009c0.09-0.025,0.176-0.069,0.267-0.079C37.805,30.89,37.946,30.901,38.085,30.901z"/>
			<path fill-rule="evenodd" clip-rule="evenodd" fill="#17A2B8" d="M59.568,32.943c-1.359,0.002-2.396-1.038-2.398-2.405
				c-0.001-1.371,1.009-2.484,2.261-2.492c1.373-0.008,2.495,1.079,2.497,2.419C61.93,31.889,60.929,32.94,59.568,32.943z
				 M58.084,29.669c0.002,0.011,0.003,0.023,0.004,0.035c1.001,0,2.001,0,3.003,0c-0.076-0.09-0.032-0.305-0.285-0.25
				c0.063,0.042,0.104,0.067,0.179,0.114C59.989,29.603,59.037,29.636,58.084,29.669z M58.303,30.896
				c0.12,0.018,0.216,0.046,0.312,0.044c0.337-0.006,0.674-0.027,1.01-0.032c0.061,0,0.132,0.045,0.18,0.09
				c0.073,0.067,0.121,0.081,0.204,0.006c0.064-0.059,0.156-0.103,0.243-0.121c0.133-0.027,0.273-0.026,0.412-0.037
				c-0.317-0.028-0.631-0.012-0.944,0c-0.318,0.011-0.636,0.029-0.953,0.021c-0.079-0.002-0.147-0.131-0.229-0.141
				c-0.062-0.007-0.139,0.08-0.207,0.125C58.326,30.854,58.325,30.861,58.303,30.896z"/>
			<path fill-rule="evenodd" clip-rule="evenodd" fill="#17A2B8" d="M46.885,31.766c0,1.107,0,2.213,0,3.32
				c0,0.332-0.159,0.521-0.493,0.539c-0.306,0.017-0.613,0.016-0.919,0c-0.375-0.018-0.551-0.186-0.557-0.566
				c-0.01-0.831-0.007-1.663,0-2.494c0.01-1.332,0.025-2.664,0.041-3.996c0.005-0.523,0.146-0.659,0.677-0.662
				c0.219-0.001,0.438-0.003,0.656,0.006c0.401,0.017,0.565,0.184,0.566,0.586c0.003,1.088,0.001,2.177,0.001,3.265
				C46.867,31.766,46.877,31.766,46.885,31.766z"/>
			<path fill-rule="evenodd" clip-rule="evenodd" fill="#17A2B8" d="M49.465,31.764c0,1.101,0.002,2.2,0,3.301
				c0,0.394-0.173,0.571-0.57,0.579c-0.269,0.005-0.539,0.011-0.807,0c-0.416-0.016-0.587-0.194-0.585-0.612
				c0-0.8,0.007-1.6,0.014-2.4c0.011-1.381,0.022-2.763,0.036-4.144c0.003-0.419,0.142-0.563,0.561-0.58
				c0.268-0.01,0.537-0.009,0.806,0.007c0.363,0.021,0.52,0.185,0.521,0.549c0.006,1.101,0.002,2.201,0.002,3.3
				C49.45,31.764,49.458,31.764,49.465,31.764z"/>
			<path fill-rule="evenodd" clip-rule="evenodd" fill="#17A2B8" d="M50.132,31.726c0-1.063-0.001-2.127,0.002-3.19
				c0-0.458,0.148-0.601,0.608-0.609c0.213-0.004,0.426-0.009,0.639-0.004c0.494,0.012,0.639,0.151,0.648,0.642
				c0.019,0.982,0.038,1.964,0.042,2.947c0.001,1.088-0.017,2.176-0.024,3.265c-0.002,0.15,0.012,0.301-0.011,0.448
				c-0.034,0.218-0.165,0.375-0.396,0.385c-0.368,0.017-0.738,0.032-1.104,0.007c-0.314-0.021-0.454-0.249-0.449-0.625
				c0.008-0.82,0.018-1.639,0.025-2.459c0.003-0.269,0-0.537,0-0.807C50.121,31.726,50.125,31.726,50.132,31.726z"/>
			<path fill-rule="evenodd" clip-rule="evenodd" fill="#17A2B8" d="M44.282,31.792c0,1.095,0,2.189-0.001,3.284
				c0,0.316-0.14,0.491-0.45,0.507c-0.343,0.019-0.688,0.016-1.032-0.002c-0.271-0.014-0.438-0.177-0.461-0.456
				c-0.023-0.279-0.013-0.562-0.011-0.842c0.017-1.927,0.031-3.854,0.054-5.78c0.005-0.418,0.155-0.552,0.58-0.565
				c0.256-0.009,0.513-0.011,0.768,0.001c0.39,0.018,0.539,0.177,0.54,0.568c0.002,1.095,0,2.19,0,3.285
				C44.274,31.792,44.277,31.792,44.282,31.792z"/>
			<path fill-rule="evenodd" clip-rule="evenodd" fill="#17A2B8" d="M54.626,31.777c0,0.982-0.002,1.963,0,2.946
				c0,0.106,0.011,0.212,0.012,0.319c0.001,0.313-0.188,0.538-0.493,0.552c-0.312,0.016-0.624,0.017-0.937,0.002
				c-0.374-0.019-0.538-0.21-0.533-0.583c0.017-1.526,0.036-3.052,0.051-4.578c0.006-0.645-0.005-1.289-0.006-1.933
				c-0.001-0.368,0.131-0.523,0.495-0.544c0.285-0.017,0.575-0.017,0.861,0.001c0.36,0.021,0.508,0.176,0.516,0.534
				c0.028,1.094,0.049,2.188,0.072,3.283C54.649,31.777,54.638,31.777,54.626,31.777z"/>
			<path fill-rule="evenodd" clip-rule="evenodd" fill="#17A2B8" d="M41.69,31.772c0,1.088,0.002,2.175-0.003,3.263
				c-0.002,0.329-0.158,0.486-0.481,0.498c-0.307,0.01-0.613,0.012-0.919-0.001c-0.343-0.014-0.512-0.175-0.545-0.519
				c-0.018-0.186-0.001-0.374-0.002-0.561c-0.003-0.45,0.005-0.901-0.012-1.35c-0.019-0.469,0.056-0.911,0.216-1.356
				c0.296-0.822,0.283-1.658-0.048-2.474c-0.121-0.298-0.121-0.597-0.079-0.902c0.026-0.202,0.156-0.342,0.358-0.352
				c0.367-0.017,0.737-0.026,1.104-0.001c0.275,0.017,0.4,0.191,0.402,0.512c0.012,0.863,0.013,1.726,0.018,2.587
				c0.001,0.219,0,0.438,0,0.656C41.696,31.772,41.693,31.772,41.69,31.772z"/>
			<path fill-rule="evenodd" clip-rule="evenodd" fill="#17A2B8" d="M55.282,31.777c0-1.039,0-2.077,0-3.114
				c0-0.508,0.135-0.644,0.649-0.644c0.274,0,0.55,0.002,0.822,0.032c0.244,0.025,0.365,0.171,0.389,0.409
				c0.032,0.314,0.008,0.612-0.107,0.918c-0.323,0.862-0.28,1.723,0.034,2.586c0.093,0.259,0.146,0.544,0.15,0.82
				c0.013,0.756-0.01,1.512-0.018,2.269c-0.004,0.238-0.165,0.453-0.4,0.469c-0.367,0.025-0.737,0.033-1.104,0.013
				c-0.285-0.016-0.438-0.215-0.44-0.532c-0.002-0.745,0.01-1.488,0.015-2.232c0.001-0.332,0-0.663,0-0.994
				C55.275,31.777,55.278,31.777,55.282,31.777z"/>
			<path fill-rule="evenodd" clip-rule="evenodd" fill="#17A2B8" d="M33.395,24.379c0.211,0,0.371,0,0.564,0
				c-0.045,0.37-0.086,0.718-0.133,1.093c-0.079-0.015-0.145-0.022-0.208-0.042c-0.292-0.087-0.584-0.18-0.877-0.267
				c-0.271-0.08-0.401-0.289-0.468-0.538c-0.024-0.086,0.028-0.193,0.051-0.325c-0.026-0.004-0.093-0.02-0.161-0.021
				c-0.288-0.006-0.574,0.002-0.862-0.013c-0.402-0.023-0.533-0.165-0.534-0.562c-0.001-0.763-0.002-1.525-0.002-2.288
				c0-0.28,0.169-0.459,0.449-0.464c0.63-0.01,1.261-0.019,1.893-0.018c0.418,0.001,0.562,0.153,0.564,0.569
				c0.003,0.712,0.002,1.425,0.004,2.138c0,0.212-0.022,0.41-0.204,0.558C33.435,24.229,33.43,24.293,33.395,24.379z"/>
			<path fill-rule="evenodd" clip-rule="evenodd" fill="#17A2B8" d="M63.399,24.387c0.045,0.021,0.09,0.042,0.164,0.075
				c-0.077,0.191-0.136,0.382-0.23,0.554c-0.046,0.082-0.15,0.153-0.242,0.184c-0.316,0.107-0.642,0.193-0.977,0.291
				c-0.054-0.356-0.104-0.693-0.158-1.045c0.129,0,0.244,0,0.412,0c-0.032-0.084-0.041-0.154-0.08-0.198
				c-0.12-0.136-0.188-0.271-0.166-0.468c0.022-0.207-0.015-0.42-0.029-0.631c-0.003-0.056-0.024-0.111-0.024-0.167
				c-0.001-0.494-0.004-0.987,0.002-1.481c0.006-0.321,0.15-0.469,0.475-0.474c0.625-0.011,1.249-0.017,1.875-0.012
				c0.37,0.002,0.528,0.154,0.534,0.528c0.008,0.743,0.008,1.488-0.003,2.231c-0.006,0.357-0.161,0.513-0.517,0.538
				c-0.28,0.02-0.562,0.012-0.843,0.019c-0.063,0.002-0.127,0.012-0.19,0.017C63.401,24.36,63.4,24.374,63.399,24.387z"/>
			<path fill-rule="evenodd" clip-rule="evenodd" fill="#17A2B8" d="M36.063,15.755c0.235-0.225,0.495-0.301,0.83-0.253
				c0.348,0.05,0.71,0.026,1.062-0.001c0.46-0.036,0.914-0.132,1.372-0.157c0.375-0.02,0.753,0.034,1.131,0.045
				c0.25,0.007,0.5,0.006,0.75-0.01c0.113-0.007,0.224-0.059,0.334-0.091c0.053-0.015,0.108-0.046,0.159-0.043
				c0.322,0.017,0.642,0.04,0.963,0.061c0.069,0.005,0.137,0.013,0.206,0.013c0.425-0.003,0.85-0.002,1.274-0.018
				c0.113-0.004,0.223-0.062,0.334-0.089c0.077-0.019,0.157-0.042,0.234-0.04c0.829,0.025,1.657,0.065,2.485,0.081
				c0.94,0.017,1.881,0.023,2.82,0.016c0.32-0.002,0.64-0.068,0.961-0.083c0.118-0.006,0.238,0.052,0.357,0.08
				c0.072,0.015,0.146,0.04,0.219,0.041c0.456,0.01,0.913,0.024,1.369,0.016c0.303-0.005,0.604-0.048,0.906-0.072
				c0.05-0.004,0.107-0.01,0.149,0.008c0.613,0.249,1.261,0.092,1.89,0.164c0.235,0.027,0.486-0.065,0.719-0.029
				c0.607,0.094,1.213,0.176,1.83,0.169c0.268-0.002,0.535-0.017,0.803-0.01c0.237,0.006,0.413,0.14,0.533,0.271
				c-0.312-0.049-0.653-0.143-0.995-0.152c-3.544-0.098-7.089-0.24-10.634-0.254c-3.488-0.013-6.978,0.105-10.465,0.175
				c-0.461,0.01-0.922,0.068-1.382,0.108C36.205,15.707,36.135,15.737,36.063,15.755z"/>
			<path fill-rule="evenodd" clip-rule="evenodd" fill="#17A2B8" d="M41.806,24.918c0.015-0.022,0.026-0.04,0.039-0.059
				c0.011,0.019,0.036,0.052,0.034,0.053c-0.061,0.048-0.124,0.131-0.19,0.134c-0.404,0.019-0.811,0.032-1.217,0.023
				c-0.582-0.012-1.161-0.042-1.743-0.065c-0.044-0.002-0.088,0.001-0.131-0.008c-0.108-0.025-0.256,0.005-0.275-0.163
				c-0.015-0.117,0.147-0.27,0.296-0.276c0.544-0.022,1.087-0.042,1.631-0.057c0.319-0.008,0.638-0.011,0.957-0.011
				C41.608,24.491,41.66,24.529,41.806,24.918z"/>
			<path fill-rule="evenodd" clip-rule="evenodd" fill="#17A2B8" d="M58.097,24.977c-0.087,0.015-0.14,0.032-0.195,0.033
				c-0.879,0.024-1.76,0.048-2.641,0.068c-0.112,0.002-0.224-0.014-0.336-0.027c-0.217-0.027-0.286-0.103-0.268-0.301
				c0.016-0.167,0.128-0.207,0.278-0.203c0.906,0.022,1.812,0.039,2.719,0.062C57.872,24.615,57.996,24.755,58.097,24.977z"/>
		</g>
		<path fill="none" stroke="#17A2B8" stroke-width="0.2" stroke-miterlimit="10" d="M72.236,46.166
			c0.147-0.184,0.057-0.428,0.169-0.618c0.017-0.03,0.006-0.083-0.028-0.104c-0.097-0.057-0.062-0.153-0.077-0.233
			c-0.257-0.185-0.265-0.42-0.148-0.687c0.011-0.028,0.001-0.076-0.017-0.106c-0.074-0.143-0.055-0.29-0.035-0.438
			c0.03-0.016,0.059-0.033,0.087-0.049c0.088-0.045,0.245-0.408,0.186-0.484c-0.095-0.124-0.108-0.256-0.111-0.398
			c-0.001-0.064-0.053-0.101-0.102-0.121c-0.058-0.025-0.108-0.057-0.148-0.104c0-0.05-0.02-0.113,0.004-0.148
			c0.089-0.128,0.06-0.224-0.021-0.352c-0.069-0.109-0.089-0.266,0.082-0.352c0.059-0.031,0.07-0.094,0.084-0.158
			c0.061-0.294-0.054-0.553-0.148-0.817c-0.038-0.123-0.117-0.223-0.181-0.333c-0.058-0.113-0.068-0.212,0.006-0.335
			c0.102-0.173,0.114-0.403,0.064-0.568c-0.044-0.144-0.09-0.317-0.195-0.449c-0.046-0.161-0.142-0.309-0.133-0.485
			c-0.012-0.199,0.053-0.401-0.032-0.596c-0.041-0.071-0.081-0.14-0.122-0.211c0,0.04-0.002,0.082,0.004,0.117
			c-0.006-0.035-0.004-0.077-0.004-0.117c-0.021-0.067-0.043-0.135-0.064-0.203c-0.001-0.181-0.216-0.295-0.153-0.496
			c-0.002-0.034-0.005-0.068-0.009-0.103c0.006-0.086-0.057-0.128-0.113-0.174c-0.069-0.169-0.14-0.337-0.208-0.507
			c-0.029-0.18-0.106-0.335-0.243-0.457c-0.026-0.061-0.063-0.12-0.079-0.184c-0.072-0.322-0.241-0.572-0.546-0.718
			c-0.113-0.35-0.291-0.495-0.593-0.481c-0.253-0.19-0.558-0.292-0.846-0.355c-0.482-0.105-0.982-0.16-1.484-0.119
			c-0.212-0.013-0.423-0.015-0.634,0.007c-0.063-0.035-0.057-0.092-0.04-0.146c0.055-0.168,0.027-0.352,0.104-0.515
			c0.069-0.015,0.139-0.029,0.206-0.043c-0.03-0.06-0.069-0.117-0.098-0.178c0.028,0.061,0.067,0.119,0.098,0.178
			c0.124,0.011,0.245,0.018,0.367-0.005c0.5,0.012,0.999-0.014,1.495-0.075c0.067-0.002,0.134-0.003,0.2-0.004
			c0.034,0.011,0.069,0.015,0.102-0.007c0.203-0.006,0.408,0.019,0.603-0.057c0.151-0.054,0.129-0.177,0.119-0.296
			c0.023-0.299,0.037-0.598,0.024-0.898c0.013-0.257-0.028-0.506-0.107-0.75c0.019-0.154,0.013-0.307-0.037-0.456
			c0.076-0.587-0.139-1.111-0.361-1.632c-0.007-0.019-0.013-0.037-0.018-0.055c-0.035-0.095-0.056-0.196-0.12-0.278
			c-0.015-0.022-0.03-0.044-0.045-0.066c-0.068-0.157-0.205-0.234-0.351-0.301c-0.173-0.125-0.354-0.235-0.555-0.305
			c-0.667-0.232-1.369-0.252-2.058-0.364c-0.465-0.075-0.934-0.059-1.398-0.116c-0.289-0.036-0.598-0.11-0.878,0.064
			c-0.114-0.06-0.105-0.202-0.186-0.284c0.009-0.025,0.002-0.044-0.021-0.056c-0.012-0.022-0.026-0.044-0.038-0.066
			c-0.086-0.168-0.215-0.292-0.382-0.376c-0.033-0.031-0.075-0.033-0.118-0.034c-0.06-0.141-0.122-0.28-0.184-0.42
			c-0.029-0.193-0.171-0.327-0.258-0.49c-0.122-0.229-0.355-0.389-0.411-0.66c0.019-0.013,0.039-0.026,0.028-0.055
			c0.28-0.082,0.556-0.181,0.842-0.24c0.254-0.053,0.379-0.211,0.461-0.435c0.038-0.105,0.075-0.21,0.088-0.322
			c-0.002-0.065-0.047-0.035-0.078-0.035c-0.013-0.001-0.025-0.002-0.037-0.003c-0.064-0.059-0.009-0.091,0.03-0.127
			c0.15-0.002,0.303-0.004,0.453-0.007c0.161,0.002,0.323,0.013,0.484,0.005c0.406-0.018,0.573-0.188,0.575-0.597
			c0.005-0.71,0.004-1.422,0.003-2.133c0-0.112-0.011-0.223-0.067-0.323c-0.05-0.196-0.217-0.243-0.376-0.249
			c-0.693-0.024-1.388-0.021-2.082,0.003c-0.156,0.005-0.271,0.084-0.311,0.248c-0.063,0.072-0.056,0.162-0.058,0.247
			c-0.002,0.317-0.006,0.634-0.001,0.951c0.005,0.209-0.029,0.421,0.023,0.629c-0.011,0.07,0.004,0.134,0.055,0.188
			c0,0.139,0,0.278,0,0.417c-0.031,0.044-0.019,0.095-0.019,0.143c-0.053,0.164,0.046,0.28,0.143,0.382
			c0.055,0.058,0.084,0.112,0.093,0.184c-0.135,0.062-0.271-0.002-0.407,0.015c-0.044-0.16-0.118-0.312-0.122-0.483
			c-0.002-0.066-0.036-0.131-0.103-0.169c0.001-0.039,0.003-0.077,0.003-0.116c0.001-0.01,0.004-0.021,0.008-0.03
			c-0.018-0.104-0.08-0.202-0.049-0.313c0.052-0.193,0.013-0.387-0.022-0.572c-0.109-0.6-0.233-1.196-0.368-1.791
			c-0.226-1.001-0.458-2-0.699-2.999c-0.111-0.46-0.25-0.913-0.377-1.369c0.05-0.068,0.198-0.069,0.147-0.202
			c-0.046-0.122-0.142-0.057-0.223-0.045c-0.11-0.109-0.114-0.297-0.272-0.372c-0.012-0.031-0.038-0.037-0.065-0.037
			c-0.105-0.269-0.335-0.356-0.594-0.397c-0.268-0.042-0.53,0.034-0.798,0.024c-0.397-0.015-0.797-0.028-1.196-0.042
			c-0.137-0.087-0.284-0.126-0.452-0.145c-0.375-0.043-0.742,0.042-1.112,0.031c-0.387-0.011-0.774-0.035-1.161-0.027
			c-0.102,0.002-0.203-0.003-0.292-0.054c-0.119-0.069-0.246-0.074-0.376-0.09c-0.446-0.059-0.874,0.123-1.318,0.075
			c-0.449-0.047-0.913,0.083-1.347-0.129c-0.041-0.02-0.1-0.01-0.148-0.01c-0.315,0.001-0.63,0.055-0.941,0.075
			c-0.787,0.05-1.58,0.007-2.37,0.003c-1.01-0.006-2.018-0.019-3.026-0.088c-0.074-0.005-0.157-0.015-0.217,0.036
			c-0.127,0.106-0.275,0.101-0.426,0.105c-0.424,0.01-0.849-0.022-1.271,0.023c-0.038-0.004-0.075-0.009-0.112-0.014
			c-0.055-0.042-0.116-0.083-0.184-0.08c-0.392,0.02-0.803-0.093-1.164,0.159c-0.413-0.013-0.827-0.018-1.239,0.012
			c-0.168-0.043-0.343-0.022-0.516-0.05c-0.328-0.053-0.663,0.007-0.991,0.077c-0.021,0.004-0.041,0.028-0.06,0.043
			c-0.077,0.003-0.155,0.008-0.232,0.011c-0.015,0.001-0.03,0.001-0.044,0.001c-0.05,0.001-0.099,0.003-0.149,0.004
			c-0.021,0.006-0.042,0.013-0.062,0.019c-0.055,0.007-0.109,0.013-0.161,0.019c-0.12-0.002-0.237-0.002-0.354-0.005
			c-0.187-0.005-0.375,0.039-0.557-0.012c-0.383-0.107-0.705-0.017-0.971,0.277v0c-0.016,0.011-0.034,0.022-0.049,0.033
			c-0.04,0.007-0.061,0.031-0.065,0.07c-0.04,0.013-0.071,0.035-0.074,0.082c0.001,0.021,0.001,0.041,0.001,0.061
			c0-0.02,0-0.04-0.001-0.061c-0.101,0.104-0.161,0.23-0.195,0.37c-0.028-0.014-0.057-0.027-0.083-0.042
			c-0.054-0.03-0.109-0.042-0.15,0.018c-0.044,0.064-0.017,0.117,0.037,0.162c0.03,0.024,0.062,0.045,0.091,0.067
			c0.02,0.248-0.128,0.452-0.178,0.681c-0.146,0.668-0.297,1.334-0.447,2.001c-0.116,0.521-0.176,1.054-0.326,1.568
			c-0.055,0.188-0.065,0.391-0.096,0.586c-0.009,0.022-0.025,0.044-0.028,0.067c-0.108,0.777-0.324,1.54-0.329,2.332
			c-0.143,0.173-0.112,0.387-0.136,0.588c-0.177,0.006-0.356,0.047-0.529-0.021c0.004-0.057,0.002-0.114,0.042-0.161
			c0.014-0.009,0.026-0.019,0.04-0.027c0.049,0,0.057-0.042,0.077-0.073c0.077-0.027,0.063-0.096,0.07-0.154
			c0.01-0.062,0.028-0.123,0.028-0.184c0-0.768-0.002-1.535-0.003-2.302c0-0.102-0.027-0.196-0.071-0.288
			c-0.033-0.192-0.189-0.174-0.324-0.192c-0.034-0.029-0.073-0.041-0.117-0.029c-0.66,0.002-1.32,0.005-1.98,0.007
			c-0.083,0-0.16,0.019-0.216,0.088l-0.012-0.002l-0.006,0.011c-0.107,0.038-0.151,0.124-0.174,0.227
			c-0.028,0.873-0.009,1.745-0.004,2.618c0.001,0.201,0.136,0.315,0.322,0.362c0.211,0.055,0.429,0.058,0.646,0.031
			c0.196,0,0.391,0,0.587,0c0.004-0.001,0.011-0.003,0.015-0.003c-0.004,0-0.011,0.002-0.015,0.003
			c0.017,0.037,0.091,0.077-0.002,0.109c-0.081,0.028-0.083,0.078-0.049,0.144c0,0.037,0,0.074,0.002,0.111
			c-0.007,0.044,0.016,0.072,0.047,0.097c-0.003,0.056,0.026,0.094,0.063,0.128c0.039,0.131,0.117,0.224,0.256,0.253
			c0.365,0.146,0.739,0.259,1.122,0.345c0.011,0.007,0.024,0.015,0.038,0.022c0.023,0.24-0.02,0.477-0.037,0.714l0,0
			c-0.183,0.309-0.297,0.643-0.354,0.996c-0.065,0.025-0.054,0.073-0.04,0.122c-0.011,0.049-0.023,0.098-0.034,0.146
			c-0.146,0.265-0.235,0.553-0.358,0.828c-0.193-0.229-0.387-0.455-0.735-0.399c-0.005,0.001-0.01,0.003-0.017,0.005
			c-0.044-0.037-0.095-0.037-0.146-0.037c-0.141-0.019-0.28-0.015-0.419,0.009c-0.069,0-0.137-0.004-0.206,0.002
			c-0.782,0.07-1.563,0.148-2.339,0.262c-0.699,0.104-1.195,0.459-1.502,1.089c-0.17,0.398-0.318,0.801-0.344,1.239
			c-0.041,0.197-0.004,0.396-0.017,0.594c-0.058,0.35-0.076,0.702-0.064,1.057c0,0.026,0.001,0.052,0.001,0.077
			c-0.017,0.1-0.02,0.199,0.007,0.298c0.001,0.062,0.004,0.124,0.006,0.186c-0.006,0.066-0.004,0.131,0.035,0.189
			c0.002,0.081,0.009,0.161,0.007,0.242c-0.003,0.179,0.093,0.263,0.262,0.271c0.446,0.021,0.893,0.038,1.338,0.056
			c0.139,0.022,0.279,0.024,0.419,0.008c0.046,0.001,0.094,0.003,0.141,0.004c0.175-0.011,0.197,0.125,0.239,0.245
			c0.013,0.075,0.023,0.149,0.036,0.224c-0.012,0.057,0.008,0.106,0.036,0.152c0.013,0.087,0.024,0.175,0.038,0.263
			c-0.011,0.009-0.014,0.02-0.008,0.032c-0.287,0.014-0.575,0.027-0.861,0.041c-0.117-0.022-0.227,0.01-0.337,0.048
			c-0.024,0.003-0.05,0.005-0.073,0.008c-0.042-0.013-0.081-0.018-0.12,0.009c-0.011,0.002-0.024,0.004-0.036,0.006
			c-0.048,0.012-0.097,0.024-0.145,0.036c-0.035,0.007-0.07,0.014-0.104,0.022c-0.042,0.011-0.081,0.022-0.123,0.033
			c-0.055-0.012-0.103,0.011-0.15,0.037c-0.17,0.025-0.33,0.086-0.485,0.16c-0.078,0.013-0.12,0.063-0.138,0.136
			c-0.004,0.012-0.009,0.023-0.011,0.035c-0.075,0.138-0.149,0.276-0.224,0.413c-0.012,0.004-0.016,0.013-0.013,0.025
			c-0.093,0.052-0.104,0.151-0.135,0.239c-0.051,0.228-0.282,0.38-0.269,0.636c-0.044,0.159-0.083,0.32-0.134,0.477
			c-0.038,0.115-0.11,0.221-0.074,0.351c-0.042,0.146-0.053,0.297-0.052,0.449c-0.036,0.101-0.07,0.201-0.108,0.302
			c-0.019,0.049-0.046,0.095-0.028,0.15c-0.045,0.135,0.011,0.274-0.011,0.411c-0.08,0.162,0.072,0.298,0.046,0.454
			c-0.068,0.069-0.1,0.159-0.138,0.244c-0.042,0.035-0.058,0.079-0.053,0.131c0,0.024,0,0.049-0.002,0.073
			c-0.001,0.163-0.003,0.325-0.004,0.487c-0.043,0.108,0.021,0.151,0.107,0.184c-0.008,0.112-0.017,0.226-0.024,0.338
			c-0.217,0.247-0.173,0.541-0.155,0.831c0.001,0.037,0.001,0.072,0.001,0.108c-0.015,0.083,0.04,0.125,0.096,0.167
			c0.002,0.032,0.004,0.065,0.008,0.099c-0.005,0.024-0.007,0.049-0.011,0.073c-0.003,0.012-0.007,0.023-0.008,0.035
			c-0.007,0.037-0.016,0.073-0.015,0.11c0.009,0.207-0.042,0.39-0.109,0.59c-0.086,0.255-0.243,0.564,0.044,0.825
			c0.023,0.021,0.021,0.084,0.015,0.126c-0.041,0.235,0.017,0.472-0.011,0.709c-0.006,0.036,0.004,0.091-0.016,0.106
			c-0.238,0.177-0.123,0.43-0.144,0.652c-0.007,0.08-0.014,0.172,0.052,0.231c0.1,0.092,0.108,0.208,0.102,0.328
			c-0.008,0.155-0.01,0.31,0.011,0.465c0.013,0.095,0.01,0.22-0.041,0.29c-0.209,0.298-0.16,0.618-0.073,0.925
			c0.042,0.154,0.107,0.299,0.103,0.464c0.003,0.092,0.031,0.18,0.069,0.263c0,0.025,0,0.052-0.001,0.078
			c-0.155,0.184-0.161,0.419-0.202,0.64c-0.042,0.071-0.026,0.131,0.037,0.181c-0.002,0.048-0.004,0.093,0.047,0.119
			c0.017,0.066,0.042,0.13,0.091,0.183c0.007,0.024,0.015,0.051,0.022,0.077c0,0.013,0,0.026,0,0.041
			c-0.116,0.211-0.056,0.452-0.113,0.671c-0.048,0.049-0.045,0.098-0.006,0.151c-0.007,0.038,0.003,0.071,0.037,0.094
			c0.008,0.068,0.016,0.137,0.022,0.205c-0.016,0.088-0.018,0.177,0.012,0.263c-0.007,0.1-0.029,0.203,0.003,0.303
			c-0.017,0.039-0.011,0.075,0.006,0.111c-0.013,0.077,0,0.15,0.039,0.218c0.06,0.104,0.071,0.22,0.08,0.343
			c0.04,0.569,0.164,1.113,0.52,1.579c0.032,0.075,0.075,0.146,0.137,0.203c0.011,0.019,0.023,0.036,0.034,0.055
			c0.098,0.218,0.243,0.352,0.5,0.394c0.253,0.039,0.517,0.067,0.748,0.206c0.094,0.057,0.198,0.072,0.304,0.072
			c1.307,0.022,2.613,0.021,3.919,0c0.133-0.002,0.236-0.055,0.34-0.132c0.312-0.239,0.481-0.577,0.665-0.91
			c0.058-0.051,0.072-0.126,0.107-0.187c0.006-0.014,0.013-0.024,0.02-0.036c0.039-0.028,0.057-0.069,0.064-0.114
			c0.008-0.004,0.013-0.012,0.01-0.022c0.016-0.032,0.031-0.064,0.046-0.098c0.1-0.205,0.163-0.424,0.176-0.656
			c0.037-0.021,0.041-0.051,0.023-0.087c0.042-0.374,0.053-0.749,0.023-1.123c0.011-0.075-0.037-0.13-0.065-0.19
			c0.005-0.073,0.008-0.147,0.012-0.22c0.049-0.043,0.082-0.096,0.088-0.164c0.018-0.173,0.067-0.348-0.016-0.519
			c-0.012-0.022-0.025-0.047-0.038-0.068c-0.03-0.169-0.012-0.333,0.034-0.497c0.021-0.064,0.04-0.126,0.06-0.188
			c0.027-0.077,0.002-0.149-0.008-0.224c0.027-0.089,0.048-0.178-0.012-0.263c-0.055-0.12-0.026-0.25-0.052-0.374
			c0.002-0.102,0.004-0.203,0.006-0.304c0.015-0.049,0.03-0.098,0.045-0.148c0.061-0.034,0.065-0.092,0.066-0.152
			c0.024-0.21,0.029-0.422,0.001-0.633c0.013-0.036-0.006-0.059-0.03-0.08c-0.001-0.064-0.003-0.127-0.004-0.191
			c0.18,0.003,0.316-0.156,0.5-0.135c0.117,0.046,0.224,0.056,0.297-0.074c0.085-0.051,0.18-0.039,0.271-0.043l0,0
			c0.028,0.027,0.063,0.026,0.098,0.02c0.022,0.009,0.042,0.017,0.063,0.025c0.023,0.033,0.05,0.052,0.089,0.022
			c0.02,0.007,0.04,0.012,0.059,0.018c0.038,0.039,0.071,0.041,0.104-0.003c0.041,0.001,0.083,0.001,0.124,0.001
			c0.098,0.034,0.099,0.174,0.21,0.195c0.026,0.011,0.055,0.021,0.081,0.03c0.132,0.042,0.262,0.048,0.389-0.014
			c0.077,0.025,0.101-0.012,0.097-0.082c0.01-0.035,0.021-0.067,0.033-0.102c0.012,0.003,0.021,0,0.025-0.012
			c0.134-0.037,0.153,0.152,0.275,0.138c0.022,0.005,0.043,0.009,0.065,0.016c0.051,0.024,0.101,0.024,0.15,0
			c0.15-0.01,0.3-0.019,0.451-0.028c0.216-0.01,0.431-0.019,0.646-0.029c0.21-0.011,0.42,0.021,0.629-0.025
			c0.064-0.001,0.128-0.004,0.192-0.005c0.041,0.038,0.083,0.031,0.124,0c0.021-0.004,0.042-0.008,0.06-0.012
			c0.12,0.038,0.23-0.027,0.347-0.038c0.212-0.018,0.402,0.08,0.607,0.077c0.267-0.001,0.537-0.053,0.797-0.056
			c0.568-0.007,1.129-0.097,1.697-0.097c0.108,0,0.225,0.013,0.312-0.076c0.274-0.003,0.547-0.007,0.82-0.012
			c0.182,0.021,0.365,0.048,0.531-0.064c0.06-0.003,0.121-0.007,0.183-0.011c0.187,0.028,0.355-0.07,0.546-0.067
			c0.896,0.012,1.795,0.005,2.692,0.003c0.116,0,0.237,0.012,0.333-0.074c0.46-0.005,0.922-0.011,1.383-0.017
			c0.136,0.005,0.272,0.009,0.409,0.013c0.065,0.064,0.128,0.131,0.2,0.19c0.105,0.09,0.178,0.228,0.333,0.251l0.001,0.001
			c0.108,0.108,0.192,0.249,0.35,0.292c0.3,0.082,0.58,0.212,0.862,0.34c0.18,0.082,0.373,0.125,0.577,0.14
			c0.385,0.026,0.755-0.088,1.135-0.081c0.114,0.002,0.222-0.027,0.326-0.069c0.301-0.118,0.615-0.205,0.898-0.354
			c0.264-0.136,0.566-0.198,0.786-0.412c0.241-0.232,0.772-0.311,1.066-0.154h0.003c0.037,0.108,0.114,0.103,0.191,0.057
			c0.08-0.045,0.153-0.103,0.229-0.155c0.033-0.003,0.067-0.008,0.102-0.011c0.06,0.021,0.113,0.025,0.154-0.035
			c0.262-0.002,0.523-0.007,0.785-0.009c0.143,0.005,0.272,0.042,0.363,0.166c0.021,0.029,0.057,0.045,0.097,0.024
			c0.121,0.079,0.177,0.042,0.174-0.099c0-0.043,0.001-0.084,0.001-0.126c0.062-0.014,0.126-0.027,0.188-0.041
			c0.15,0.002,0.3,0.004,0.449,0.006c0.56,0.002,1.12,0.004,1.681,0.006c0.017,0.043,0.047,0.058,0.09,0.051
			c0.174,0.028,0.347,0.029,0.519-0.002c0.046,0.006,0.056-0.025,0.063-0.058c0.064-0.081,0.152-0.077,0.241-0.073
			c0.014,0.012,0.027,0.024,0.04,0.037c0.039,0.076,0.108,0.085,0.185,0.088c0.102,0.001,0.204,0.009,0.306,0.016
			c0.162,0.111,0.181,0.278,0.166,0.456c0.001,0.037,0.006,0.074,0.041,0.096c0.002,0.02,0.004,0.04,0.008,0.059
			c-0.006,0.041-0.01,0.081-0.014,0.122l-0.011,0.007c-0.045-0.002-0.071,0.015-0.072,0.063c-0.045,0.074-0.019,0.16-0.036,0.239
			c-0.026,0.029-0.028,0.061-0.007,0.095c0.005,0.024,0.009,0.046,0.015,0.069c0,0.039,0.014,0.072,0.047,0.092
			c0.008,0.033,0.015,0.065,0.021,0.098c0.004,0.102,0.06,0.175,0.131,0.238c0.053,0.079-0.011,0.175,0.041,0.253
			c-0.006,0.067,0.015,0.123,0.062,0.17c0,0.024,0,0.05,0,0.075c-0.086,0.076-0.135,0.164-0.09,0.279c0,0.064,0,0.127,0,0.191
			c-0.029,0.103-0.037,0.2,0.06,0.273c0.021,0.082-0.002,0.173,0.06,0.245c0.007,0.069,0.038,0.124,0.094,0.166
			c0.015,0.047,0.026,0.092,0.04,0.141c-0.005,0.038-0.011,0.079-0.018,0.118c-0.003,0.061-0.007,0.121-0.01,0.183
			c-0.019,0.036-0.023,0.073,0.003,0.109c0.023,0.126,0.004,0.26,0.077,0.375c0.056,0.196,0.118,0.389,0.221,0.566
			c-0.007,0.14-0.018,0.279,0.062,0.407c-0.013,0.073,0.026,0.124,0.065,0.175c0.016,0.042,0.031,0.083,0.045,0.126
			c-0.005,0.039,0,0.071,0.036,0.096c0.008,0.018,0.014,0.037,0.021,0.057c0.008,0.049,0.013,0.098,0.058,0.128
			c0.019,0.045,0.037,0.091,0.058,0.136c-0.001,0.062,0.04,0.098,0.078,0.137c0.013,0.018,0.023,0.034,0.033,0.051
			c0.02,0.062,0.028,0.128,0.096,0.164c0.002,0.007,0.007,0.019,0.017,0.022c0.007,0.069,0.041,0.122,0.095,0.165
			c0.001,0.012,0.006,0.021,0.017,0.024c0.006,0.036,0.015,0.073,0.052,0.093c0.031,0.045,0.062,0.09,0.092,0.135
			c0.196,0.275,0.419,0.532,0.68,0.741c0.319,0.256,0.691,0.446,1.116,0.452c0.793,0.013,1.589,0.009,2.383,0.013
			c0.562,0.002,1.123-0.015,1.68-0.092c0.07-0.008,0.146-0.021,0.191-0.07c0.191-0.197,0.404-0.36,0.672-0.439
			c0.014,0.002,0.021-0.004,0.028-0.016c0.039-0.004,0.074-0.015,0.096-0.051c0.019-0.007,0.037-0.017,0.055-0.024
			c0.191-0.069,0.38-0.139,0.438-0.368c0.014-0.049,0.027-0.1,0.041-0.147c0.027-0.017,0.039-0.043,0.038-0.075
			c0.009-0.022,0.018-0.047,0.027-0.067c0.046-0.002,0.062-0.047,0.093-0.067c0.063,0.002,0.102-0.026,0.118-0.087
			c0.01-0.006,0.014-0.011,0.012-0.021c0.035-0.021,0.06-0.049,0.06-0.092c0.011-0.01,0.013-0.02,0.01-0.028
			c0.074-0.092,0.134-0.19,0.136-0.312c0.001-0.037,0.002-0.075,0.002-0.113c0.021-0.062,0.044-0.125,0.065-0.189
			c0.028-0.072,0.057-0.143,0.085-0.215c-0.008-0.01-0.014-0.021-0.021-0.029c0.041,0.011,0.051-0.016,0.054-0.049
			c0.04-0.012,0.044-0.044,0.046-0.08c0.097-0.172,0.065-0.374,0.125-0.554c0.001-0.006,0.004-0.011,0.002-0.017
			c-0.002-0.009-0.006-0.017-0.009-0.026l0.004,0.004l0,0c-0.001-0.034,0.061-0.043,0.038-0.086c0.015-0.042,0.03-0.083,0.046-0.125
			c0.028-0.079,0.116-0.12,0.127-0.21c0.007-0.208,0.014-0.417,0.021-0.626c0.026-0.021,0.035-0.049,0.031-0.083
			c0.074-0.113,0.06-0.249,0.087-0.375c0.007-0.026,0.013-0.053,0.02-0.077c0.091-0.124,0.104-0.254,0.093-0.413
			c-0.011-0.177-0.156-0.31-0.119-0.49l-0.003-0.007c0.161-0.16,0.185-0.363,0.221-0.577c0.047-0.273,0.08-0.521-0.162-0.718
			c-0.027-0.023-0.039-0.06-0.018-0.084C72.192,46.45,72.146,46.279,72.236,46.166z"/>
	</g>
	<circle fill="#FFFF00" cx="37.376" cy="30.458" r="1.929"/>
	<circle fill="#FFFF00" cx="59.549" cy="30.495" r="1.929"/>
</g>
<g>
	<g>
		<path fill="#FFFFFF" d="M61.96,42.052c0.1-1.096-0.229-2.567,0.918-3.213c0.171-0.096,0.016-0.26-0.131-0.178
			c-1.276,0.719-0.968,2.171-1.082,3.412C61.651,42.227,61.947,42.188,61.96,42.052L61.96,42.052z"/>
	</g>
</g>
<g>
	<g>
		<path fill="#FFFFFF" d="M32.292,38.352c0.432,0.854,0.958,1.73,0.812,2.724c-0.021,0.138,0.274,0.094,0.292-0.026
			c0.15-1.014-0.372-1.901-0.813-2.776C32.523,38.156,32.239,38.245,32.292,38.352L32.292,38.352z"/>
	</g>
</g>
</svg>
