<?xml version="1.0" encoding="utf-8"?>
<!-- Generator: Adobe Illustrator 16.0.0, SVG Export Plug-In . SVG Version: 6.00 Build 0)  -->
<!DOCTYPE svg PUBLIC "-//W3C//DTD SVG 1.1//EN" "http://www.w3.org/Graphics/SVG/1.1/DTD/svg11.dtd">
<svg version="1.1" id="Layer_1" xmlns="http://www.w3.org/2000/svg" xmlns:xlink="http://www.w3.org/1999/xlink" x="0px" y="0px"
	 width="100px" height="100px" viewBox="0 0 100 100" enable-background="new 0 0 100 100" xml:space="preserve">
<path fill="#17A2B8" d="M82.136,36.919l0.053-0.242l-33.25,0.121l-33.251-0.121l0.053,0.242h-0.053l0.76,7.697
	c1.474,11.582,18,34.018,26.924,45.14l5.567,6.75l5.568-6.75c8.924-11.122,25.139-32.82,26.612-44.403l1.07-8.434H82.136z"/>
<circle fill-rule="evenodd" clip-rule="evenodd" fill="#FFFFFF" stroke="#85F4FF" stroke-miterlimit="10" cx="48.857" cy="36.699" r="33.17"/>
<g>
	<path fill="none" d="M48.922,37.484c0.005,0.114,0.009,0.228,0.014,0.34C48.932,37.712,48.927,37.598,48.922,37.484L48.922,37.484z
		"/>
	<path fill="none" d="M49.917,37.563c-0.03,0.001-0.06,0.001-0.09,0.001c-0.628,0.06-1.256,0.122-1.886,0.182
		c0.629-0.06,1.258-0.122,1.886-0.182C49.857,37.564,49.887,37.564,49.917,37.563z"/>
	<path fill="none" d="M48.973,37.611c0.001,0.059,0.001,0.119,0.003,0.179C48.974,37.729,48.974,37.67,48.973,37.611
		c-0.029-0.03-0.059-0.06-0.088-0.09C48.914,37.551,48.943,37.581,48.973,37.611z"/>
	<path fill="none" d="M48.854,37.403c0.101,0.145,0.171,0.301,0.144,0.497c-0.014,0.002-0.03,0.005-0.044,0.006l0,0
		c0.014-0.001,0.03-0.004,0.045-0.006C49.025,37.705,48.955,37.548,48.854,37.403z"/>
	<path fill="none" d="M49.908,37.619c0.004-0.034,0.006-0.066,0.009-0.098C49.914,37.553,49.912,37.585,49.908,37.619
		c-0.656,0.057-1.311,0.114-1.966,0.171C48.597,37.732,49.252,37.675,49.908,37.619z"/>
	<path fill="none" d="M48.671,37.647c0.139,0.001,0.277,0.004,0.417,0.006c0.033,0.003,0.066,0.007,0.1,0.01
		c-0.034-0.003-0.067-0.007-0.1-0.01C48.949,37.651,48.811,37.648,48.671,37.647z"/>
	<path fill="none" d="M48.977,37.283c-0.091,0.242-0.097,0.493-0.094,0.745C48.881,37.776,48.885,37.525,48.977,37.283
		L48.977,37.283z"/>
	<path fill="none" d="M48.96,37.657c-0.021-0.002-0.041-0.004-0.062-0.005C48.919,37.653,48.939,37.655,48.96,37.657
		C48.959,37.658,48.96,37.657,48.96,37.657z"/>
	<path fill="none" d="M48.98,37.707L48.98,37.707c-0.034-0.034-0.067-0.068-0.101-0.104C48.913,37.638,48.946,37.672,48.98,37.707z"
		/>
	<path fill="none" d="M48.851,37.512L48.851,37.512c0.062,0.093,0.13,0.185,0.158,0.286C48.981,37.696,48.913,37.604,48.851,37.512z
		"/>
	<path fill="none" d="M48.942,37.677c-0.009,0-0.017-0.015-0.025-0.044C48.926,37.663,48.934,37.677,48.942,37.677z"/>
	<path fill="none" d="M48.97,37.653c0,0.003,0,0.007,0.001,0.011C48.97,37.66,48.97,37.656,48.97,37.653
		c-0.027-0.003-0.055-0.006-0.082-0.007C48.915,37.647,48.943,37.649,48.97,37.653z"/>
	<polygon fill="none" points="48.93,37.654 48.93,37.654 48.93,37.655 	"/>
	<path fill="none" d="M48.948,37.512c-0.012,0.095-0.025,0.189-0.037,0.285l0,0C48.923,37.702,48.936,37.607,48.948,37.512z"/>
	<path fill="none" d="M48.976,37.613c-0.031,0.027-0.062,0.055-0.093,0.083l0,0C48.914,37.668,48.945,37.641,48.976,37.613z"/>
	<path fill="none" d="M48.981,37.649c-0.034,0.003-0.069,0.008-0.104,0.011C48.912,37.657,48.947,37.653,48.981,37.649
		L48.981,37.649z"/>
	<path fill="none" d="M48.794,37.628c0.103-0.032,0.206-0.076,0.271,0.085C49,37.552,48.896,37.596,48.794,37.628z"/>
	<path fill="none" d="M48.943,37.607c0.002,0.045-0.008,0.075-0.028,0.095C48.935,37.683,48.945,37.653,48.943,37.607z"/>
	<path fill="none" d="M48.882,37.567c0.025,0.034,0.051,0.067,0.077,0.101c0.005,0.025,0.01,0.049,0.017,0.075
		c-0.006-0.026-0.011-0.05-0.016-0.075C48.933,37.634,48.908,37.601,48.882,37.567z"/>
	<path fill="none" d="M49.054,37.557c-0.068,0.092-0.156,0.148-0.249,0.195C48.898,37.706,48.986,37.649,49.054,37.557
		L49.054,37.557z"/>
	<path fill="none" d="M48.9,37.684c0.015-0.023,0.034-0.043,0.059-0.058C48.934,37.641,48.915,37.66,48.9,37.684z"/>
	<path fill="none" d="M48.84,37.663c0.004-0.05,0.017-0.098,0.072-0.132c0.036,0.083,0.07,0.166,0.106,0.249
		c-0.036-0.083-0.071-0.167-0.106-0.25C48.856,37.565,48.844,37.612,48.84,37.663z"/>
	<path fill="none" d="M48.941,37.532c0.001,0.041-0.003,0.081-0.01,0.121c-0.009,0.042-0.012,0.084-0.014,0.125
		c0.002-0.042,0.005-0.083,0.014-0.125C48.938,37.613,48.942,37.572,48.941,37.532z"/>
	<path fill="none" d="M48.789,37.345c0.023,0.082,0.046,0.166,0.068,0.248c0.072,0.124,0.143,0.249,0.213,0.373
		c-0.07-0.124-0.141-0.249-0.213-0.373C48.834,37.51,48.812,37.427,48.789,37.345z"/>
	<path fill="none" d="M49,37.615c-0.014,0-0.028,0-0.042-0.001c-0.033,0.027-0.066,0.055-0.098,0.083
		c0.032-0.028,0.065-0.055,0.098-0.082C48.971,37.614,48.985,37.615,49,37.615z"/>
	<path fill="none" d="M48.929,37.739c0-0.056,0-0.112,0-0.168C48.93,37.626,48.929,37.683,48.929,37.739L48.929,37.739z"/>
	<path fill="none" d="M48.926,37.678c0.002-0.016,0.005-0.031,0.006-0.047c-0.001,0.015-0.004,0.031-0.006,0.046V37.678z"/>
	<path fill="none" d="M48.837,37.579L48.837,37.579c0.006,0.119,0.071,0.165,0.186,0.148C48.908,37.744,48.843,37.698,48.837,37.579
		z"/>
	<path fill="none" d="M48.869,37.62c0.006,0.04,0.041,0.066,0.12,0.07l0,0C48.91,37.686,48.875,37.66,48.869,37.62z"/>
	<path fill="none" d="M48.883,37.037c0.03,0.412,0.047,0.825,0.093,1.235C48.93,37.862,48.913,37.449,48.883,37.037L48.883,37.037z"
		/>
	<path fill="none" d="M48.885,37.754c0.001-0.072,0.019-0.138,0.083-0.191l0.006-0.007l-0.006,0.007
		C48.904,37.616,48.886,37.682,48.885,37.754z"/>
	<path fill="none" d="M48.979,37.758c-0.056-0.062-0.096-0.128-0.099-0.206C48.883,37.63,48.923,37.696,48.979,37.758L48.979,37.758
		z"/>
	<path fill="none" d="M48.881,37.338l0.025,0.003c0.053,0.208,0.069,0.418,0.071,0.63c-0.002-0.212-0.018-0.422-0.071-0.63
		L48.881,37.338z"/>
	<path fill="none" d="M48.895,37.646c0.025,0.003,0.048,0.009,0.07,0.018C48.942,37.655,48.919,37.649,48.895,37.646L48.895,37.646z
		"/>
	<path fill="none" d="M48.837,37.786c0.001-0.028,0.005-0.056,0.012-0.084c0.057-0.06,0.116-0.119,0.172-0.179
		c-0.057,0.06-0.115,0.119-0.173,0.179C48.843,37.73,48.839,37.758,48.837,37.786z"/>
	<path fill="none" d="M48.613,37.16L48.613,37.16c0.211,0.33,0.421,0.66,0.632,0.989C49.034,37.82,48.824,37.49,48.613,37.16z"/>
	<path fill="none" d="M48.846,37.565c0.027-0.001,0.053,0.002,0.078,0.01c0.03,0.056,0.06,0.112,0.088,0.169
		c-0.029-0.057-0.058-0.113-0.088-0.17C48.898,37.568,48.873,37.564,48.846,37.565z"/>
	<path fill="none" d="M48.889,36.71c-0.012,0.396-0.026,0.793,0.071,1.185c0.006,0.234,0.013,0.469,0.02,0.704
		c-0.006-0.235-0.013-0.47-0.02-0.704C48.863,37.503,48.877,37.106,48.889,36.71z"/>
	<polygon fill="none" points="48.935,37.662 48.935,37.662 48.924,37.647 	"/>
	<path fill="none" d="M48.763,37.219c0.18,0.288,0.182,0.579,0.103,0.876C48.945,37.798,48.943,37.507,48.763,37.219
		c0.111-0.001,0.222-0.003,0.332-0.005C48.985,37.216,48.874,37.218,48.763,37.219z"/>
	<path fill="none" d="M48.974,37.559L48.974,37.559c-0.047,0.039-0.052,0.139-0.088,0.192
		C48.921,37.698,48.927,37.597,48.974,37.559z"/>
	<path fill="none" d="M48.844,37.747l0.001,0.005c0.056-0.064,0.112-0.129,0.169-0.194c-0.057,0.065-0.113,0.129-0.169,0.193
		C48.846,37.751,48.846,37.749,48.844,37.747z"/>
	<path fill="none" d="M48.888,37.604c0.027,0.034,0.055,0.068,0.083,0.102C48.943,37.672,48.915,37.637,48.888,37.604L48.888,37.604
		z"/>
	<path fill="none" d="M49.109,37.484c-0.176,0.016-0.339,0.053-0.351,0.337l-0.008,0.005l0.008-0.005
		C48.77,37.537,48.933,37.5,49.109,37.484z"/>
	<path fill="none" d="M49.007,37.715L49.007,37.715c-0.055-0.036-0.104-0.08-0.155-0.119C48.903,37.635,48.952,37.679,49.007,37.715
		z"/>
	<path fill="none" d="M48.931,37.747L48.931,37.747c-0.001-0.061-0.002-0.123-0.003-0.184C48.929,37.624,48.93,37.686,48.931,37.747
		z"/>
	<path fill="none" d="M48.974,37.582c0.002,0.065,0.001,0.113-0.025,0.147C48.975,37.695,48.976,37.646,48.974,37.582
		c-0.03,0-0.06,0-0.089,0C48.914,37.581,48.943,37.581,48.974,37.582z"/>
	<path fill="none" d="M48.865,37.657c0.041-0.001,0.082-0.004,0.122-0.004h0.008l-0.008,0
		C48.947,37.653,48.906,37.656,48.865,37.657z"/>
	<path fill="none" d="M48.866,37.64c0.042,0.01,0.085,0.021,0.127,0.031l0,0C48.95,37.66,48.908,37.65,48.866,37.64z"/>
	<path fill="none" d="M48.686,37.449c0.121,0.134,0.293,0.225,0.447,0.333c0.013,0.026,0.026,0.053,0.04,0.08
		c-0.014-0.026-0.027-0.053-0.04-0.08C48.979,37.673,48.806,37.583,48.686,37.449z"/>
	<path fill="none" d="M48.93,37.702C48.93,37.702,48.931,37.702,48.93,37.702c0-0.032,0-0.062-0.001-0.094
		C48.929,37.639,48.93,37.67,48.93,37.702z"/>
	<path fill="none" d="M48.851,37.826c0.037-0.045,0.074-0.089,0.11-0.134c0.015-0.07,0.031-0.14,0.046-0.209
		c-0.015,0.069-0.031,0.139-0.047,0.208C48.925,37.737,48.888,37.781,48.851,37.826z"/>
	<path fill="none" d="M48.889,37.594l0.012,0.014c0.023,0.036,0.045,0.073,0.069,0.108c-0.023-0.035-0.046-0.072-0.069-0.108
		L48.889,37.594z"/>
	<path fill="none" d="M48.96,37.627c-0.002,0.026-0.006,0.053-0.012,0.079C48.954,37.681,48.958,37.653,48.96,37.627
		c-0.02-0.009-0.041-0.017-0.062-0.025C48.919,37.611,48.94,37.619,48.96,37.627z"/>
	<path fill="none" d="M48.778,37.572c-0.026-0.005-0.052-0.012-0.076-0.021C48.727,37.56,48.752,37.567,48.778,37.572
		c0.104,0.159,0.237,0.189,0.378,0.187C49.016,37.761,48.882,37.731,48.778,37.572z"/>
	<path fill="none" d="M48.984,37.602c0.002,0.031,0.004,0.061,0.006,0.091c-0.039,0.009-0.08,0.013-0.122,0.014
		c0.043-0.001,0.084-0.005,0.122-0.014C48.988,37.663,48.986,37.633,48.984,37.602z"/>
	<path fill="none" d="M48.896,37.648L48.896,37.648c0.021,0.011,0.044,0.014,0.067,0.014C48.94,37.662,48.917,37.659,48.896,37.648z
		"/>
	<path fill="none" d="M48.831,37.49c0.223,0.035,0.209,0.199,0.18,0.33C49.041,37.688,49.055,37.525,48.831,37.49z"/>
	<polygon fill="none" points="48.943,37.645 48.917,37.665 48.943,37.645 	"/>
	<path fill="none" d="M49.234,38.146c-0.03-0.067-0.059-0.133-0.088-0.2c-0.236-0.226-0.399-0.493-0.521-0.783
		c0.122,0.291,0.285,0.558,0.521,0.784C49.175,38.013,49.204,38.081,49.234,38.146z"/>
	<path fill="none" d="M49.188,37.888c-0.025,0.058-0.05,0.116-0.075,0.174C49.138,38.004,49.163,37.946,49.188,37.888
		c-0.173-0.213-0.345-0.427-0.518-0.641C48.843,37.461,49.016,37.675,49.188,37.888z"/>
	<path fill="none" d="M48.943,37.689L48.943,37.689c-0.001-0.031-0.018-0.047-0.026-0.07C48.925,37.643,48.941,37.659,48.943,37.689
		z"/>
	<path fill="none" d="M48.828,37.341c0.022,0.077,0.044,0.154,0.066,0.231c0.045,0.132,0.091,0.263,0.136,0.396
		c-0.045-0.132-0.09-0.263-0.136-0.396C48.873,37.495,48.851,37.418,48.828,37.341z"/>
	<path fill="none" d="M48.856,37.494c0.025-0.054,0.067-0.103,0.121-0.141c0.009,0.201,0.017,0.403,0.025,0.604
		c-0.008-0.201-0.016-0.403-0.025-0.604C48.925,37.391,48.882,37.44,48.856,37.494z"/>
	<path fill="none" d="M49.011,37.51c-0.003,0.031-0.004,0.062-0.006,0.094c-0.052,0.065-0.105,0.13-0.158,0.195
		c0.053-0.065,0.105-0.13,0.158-0.195C49.007,37.573,49.008,37.541,49.011,37.51z"/>
	<path fill="none" d="M48.882,37.613v0.002c0.032,0.027,0.062,0.055,0.094,0.082c-0.031-0.027-0.062-0.055-0.094-0.082V37.613z"/>
	<path fill="none" d="M49.02,37.746c-0.06-0.062-0.12-0.122-0.181-0.182C48.899,37.624,48.959,37.684,49.02,37.746
		c0-0.002,0-0.002,0-0.002L49.02,37.746z"/>
	<path fill="none" d="M48.879,37.604c0.028,0.027,0.055,0.054,0.083,0.082l0.017,0.019l-0.017-0.019
		C48.935,37.659,48.907,37.631,48.879,37.604z"/>
	<path fill="none" d="M48.964,36.968c-0.026-0.002-0.052-0.004-0.078-0.007C48.913,36.964,48.938,36.966,48.964,36.968
		c0,0.46-0.016,0.921,0.007,1.379C48.948,37.89,48.965,37.428,48.964,36.968z"/>
	<path fill="none" d="M48.879,37.45c0.11,0.117,0.101,0.265,0.101,0.409C48.979,37.715,48.989,37.567,48.879,37.45L48.879,37.45z"/>
	<path fill="none" d="M48.508,36.428c-0.041,0.509,0.294,1.03,0.846,1.194c0,0.419,0.001,0.839,0.001,1.259
		c0-0.42-0.001-0.84-0.001-1.259C48.802,37.458,48.467,36.937,48.508,36.428z"/>
	<path fill="none" d="M48.927,37.801c0-0.126,0-0.211,0.005-0.292c-0.001,0.002-0.004,0.004-0.005,0.006
		C48.927,37.591,48.927,37.676,48.927,37.801z"/>
	<path fill="none" d="M48.926,37.702c0.003-0.002,0.005-0.004,0.006-0.006c0-0.029,0-0.06,0-0.089
		C48.932,37.637,48.932,37.668,48.926,37.702z"/>
	<path fill="none" d="M48.839,35.719L48.839,35.719c0.06,1.29,0.12,2.581,0.181,3.871C48.959,38.3,48.899,37.009,48.839,35.719z"/>
	<path fill="none" d="M48.878,37.248c0.072,0.268,0.101,0.54,0.104,0.813C48.979,37.788,48.95,37.516,48.878,37.248z"/>
	<path fill="none" d="M48.75,37.872c0.008-0.025,0.013-0.049,0.016-0.075c0.114-0.12,0.228-0.239,0.342-0.359
		c-0.114,0.12-0.229,0.239-0.342,0.359C48.764,37.823,48.759,37.847,48.75,37.872z"/>
	<path fill="none" d="M49.006,36.672c0,0.658,0,1.315-0.001,1.974C49.005,37.988,49.006,37.33,49.006,36.672
		c-0.03,0-0.062,0-0.092,0c-0.021-0.001-0.042-0.004-0.062-0.008c0.02,0.004,0.041,0.006,0.061,0.008
		C48.944,36.672,48.976,36.672,49.006,36.672z"/>
	<path fill="none" d="M48.952,38.926c-0.019-0.717-0.043-1.435-0.066-2.151c0.101-0.12,0.093-0.255,0.084-0.391
		c0.008,0.136,0.016,0.271-0.085,0.391C48.908,37.491,48.933,38.208,48.952,38.926z"/>
	<path fill="none" d="M48.918,37.621c0.002,0.024,0.009,0.047,0.023,0.067C48.927,37.668,48.92,37.645,48.918,37.621L48.918,37.621z
		"/>
	<path fill="none" d="M48.927,37.597c0.005,0.039,0.006,0.077,0.003,0.115C48.933,37.674,48.932,37.636,48.927,37.597L48.927,37.597
		z"/>
	<path fill="none" d="M48.885,37.611c0,0,0-0.001-0.001-0.001c0.03,0.03,0.061,0.06,0.092,0.089
		C48.945,37.67,48.915,37.641,48.885,37.611z"/>
	<path fill="none" d="M48.98,37.659c-0.047,0.013-0.093,0.032-0.101,0.056C48.887,37.691,48.934,37.671,48.98,37.659
		c-0.012-0.02-0.021-0.04-0.026-0.063C48.959,37.619,48.969,37.639,48.98,37.659z"/>
	<path fill="none" d="M48.791,37.893c0.194-0.097,0.219-0.29,0.277-0.477C49.01,37.603,48.985,37.795,48.791,37.893z"/>
	<path fill="none" d="M48.806,37.606c0.029,0.015,0.057,0.032,0.084,0.047c0.054,0.017,0.107,0.034,0.162,0.051
		c-0.054-0.017-0.107-0.034-0.161-0.051C48.863,37.638,48.835,37.621,48.806,37.606z"/>
	<path fill="none" d="M49.062,37c-0.002,0.052-0.004,0.104-0.006,0.155c-0.221,0.368-0.258,0.759-0.258,1.155
		c0-0.396,0.037-0.787,0.258-1.155C49.057,37.104,49.059,37.052,49.062,37z"/>
	<path fill="none" d="M48.88,37.479c0.017-0.001,0.033-0.001,0.048,0.001c0.076,0.127,0.056,0.239,0.014,0.351
		c0.042-0.112,0.062-0.224-0.013-0.351C48.913,37.478,48.897,37.478,48.88,37.479z"/>
	<path fill="none" d="M48.905,37.652c0.016,0.004,0.032,0.005,0.049,0.006C48.937,37.657,48.92,37.656,48.905,37.652z"/>
	<path fill="none" d="M49.009,38.306c-0.124-0.489-0.059-0.985-0.054-1.479C48.95,37.321,48.885,37.817,49.009,38.306
		c-0.015,0.094-0.069,0.151-0.16,0.177C48.94,38.458,48.994,38.4,49.009,38.306z"/>
	<path fill="none" d="M48.856,37.647c-0.009-0.027-0.012-0.055-0.012-0.083C48.844,37.592,48.847,37.62,48.856,37.647
		c0.052,0.033,0.106,0.067,0.159,0.099C48.962,37.713,48.909,37.68,48.856,37.647z"/>
	<path fill="none" d="M48.881,36.956c0.023,0.014,0.046,0.026,0.07,0.038c0.009,0.432,0.018,0.865,0.027,1.298
		c-0.006,0.023-0.017,0.043-0.031,0.062c0.014-0.019,0.024-0.039,0.031-0.062c-0.009-0.433-0.018-0.866-0.027-1.298
		C48.927,36.982,48.904,36.97,48.881,36.956z"/>
	<path fill="none" stroke="#17A2B8" stroke-miterlimit="10" d="M57.203,17.95c0.492-0.212,0.934-0.51,1.399-0.768
		c0.653-0.362,1.406-0.536,2.061-0.837c1.075-0.493,2.21-0.509,3.302-0.728c1.449-0.292,2.441-1.227,2.183-2.827
		c-0.089-0.546-0.546-1.093-1.033-1.137c-1.329-0.119-2.684-0.142-4,0.176c-0.233,0.057-0.484,0.174-0.71,0.343
		c-1.085,0.812-0.706,1.951-0.654,2.982c0.016,0.292,0.001,0.443-0.207,0.566c-0.394,0.234-0.803,0.441-1.207,0.659v0.001
		c-0.029,0.03-0.06,0.06-0.089,0.089l-0.002,0.001c-0.099,0-0.204-0.016-0.269,0.089h-0.001c-0.029,0.03-0.06,0.06-0.089,0.09
		l-0.001,0.001c-0.101,0-0.204-0.017-0.269,0.089h-0.002c-0.029,0.03-0.06,0.06-0.089,0.089v0c-0.03,0.029-0.062,0.058-0.093,0.085
		c-0.09,0.001-0.179,0.002-0.269,0.003c0.008-0.089-0.012-0.192,0.027-0.263c0.29-0.526,0.185-0.83-0.389-1.085
		c-0.749-0.511-1.501-1.021-2.249-1.532c-0.121-0.06-0.242-0.12-0.362-0.179c-0.149-0.167-0.424-0.145-0.54-0.36
		c-0.125-0.149-0.297-0.072-0.448-0.091l0,0c-0.032-0.03-0.06-0.06-0.09-0.089h-0.002c-0.063-0.104-0.169-0.089-0.268-0.091
		c-0.03-0.03-0.062-0.061-0.089-0.091c-0.931-0.342-1.868-0.658-2.881-0.628c-0.57,0-1.141,0-1.712,0
		c-0.877,0.01-1.722,0.165-2.521,0.54c-0.269,0.09-0.539,0.18-0.809,0.271c-0.03,0.06-0.062,0.119-0.092,0.177
		c-0.436,0.08-0.788,0.341-1.167,0.543c-0.03,0.03-0.061,0.06-0.09,0.09l0,0c-0.1,0-0.206-0.015-0.271,0.088
		c-0.264,0.248-0.639,0.369-0.812,0.719c-0.653,0.19-1.073,0.731-1.621,1.08c-0.271,0.149-0.4,0.372-0.36,0.687
		c0.029,0.233-0.079,0.393-0.284,0.495c-0.144-0.036-0.286-0.073-0.43-0.11l0,0.001c-0.121-0.059-0.241-0.117-0.362-0.175
		c-0.188-0.144-0.387-0.261-0.631-0.272c-0.417-0.18-0.767-0.428-0.909-0.888c0.265-0.436,0.219-0.896,0.104-1.361
		c-0.032-0.119-0.062-0.238-0.094-0.357c-0.005-0.056-0.01-0.111-0.015-0.167c0.021-0.161,0.009-0.306-0.174-0.371
		c-0.485-0.613-1.107-0.926-1.9-0.901c-0.879,0.028-1.753,0.007-2.633,0.161c-0.633,0.111-1.019,0.411-1.325,0.913
		c-0.128,0.362-0.138,0.725,0.013,1.083c0.204,0.865,0.729,1.392,1.617,1.537c0.474,0.062,0.949,0.125,1.424,0.187
		c0.867,0.188,1.8-0.139,2.631,0.334c0.076,0.01,0.151,0.021,0.227,0.031c0.165,0.021,0.329,0.042,0.493,0.062
		c0.204,0.071,0.407,0.143,0.61,0.214c0.062,0.026,0.126,0.051,0.189,0.076l0.001-0.001c0.033,0.025,0.066,0.05,0.099,0.074
		c0.158,0.158,0.35,0.122,0.54,0.096l-0.011,0.015c0.298,0.061,0.491,0.286,0.721,0.454c0.056,0.033,0.113,0.065,0.168,0.097
		c0.033,0.025,0.066,0.05,0.1,0.075c0.064,0.025,0.128,0.051,0.192,0.077c0.3,0.197,0.803,0.237,0.618,0.806
		c-0.704,0.036-1.416-0.035-2.157,0.165c0.143,0.632-0.271,1.101-0.451,1.642c-0.221,0.675-0.442,1.351-0.664,2.027
		c-0.262,0.337-0.523,0.675-0.786,1.013v0c-0.075,0.057-0.149,0.113-0.224,0.169c-0.225,0.128-0.451,0.257-0.678,0.385
		c-0.608,0.024-1.086,0.375-1.594,0.647v0c-0.484,0.129-0.642,0.676-1.169,0.837c0.323,0.119,0.521,0.01,0.713-0.123
		c0.09-0.061,0.181-0.122,0.271-0.181c0.27-0.153,0.539-0.306,0.808-0.459c0.038-0.023,0.076-0.047,0.113-0.071
		c0.026,0.001,0.048-0.007,0.067-0.026c0.036-0.022,0.071-0.044,0.108-0.067c0.028,0,0.052-0.009,0.072-0.029
		c0.033-0.022,0.065-0.044,0.098-0.066c0.028,0.001,0.052-0.007,0.074-0.026c0.24-0.12,0.481-0.24,0.722-0.361
		c0.123-0.05,0.245-0.099,0.368-0.148c0.013,0.03,0.027,0.06,0.041,0.088c-0.019,0.057-0.038,0.114-0.057,0.171
		c-0.326,0.176-0.652,0.352-0.979,0.528c-0.059,0.033-0.119,0.067-0.178,0.1l0.001-0.001c-0.06,0.031-0.119,0.062-0.179,0.093
		c-0.368,0.11-0.696,0.293-0.993,0.537c0-0.001,0.001-0.001,0.001-0.001c-0.253,0.042-0.433,0.208-0.626,0.355
		c-0.135,0.015-0.239,0.071-0.278,0.212c-0.167,0-0.334,0-0.562,0c0.081,0.43,0.313,0.392,0.587,0.264
		c0.172-0.125,0.344-0.25,0.517-0.375c0.357,0.133,0.759,0.197,1.075,0.019c0.49-0.275,1.003-0.5,1.498-0.761
		c0.053,0.129,0.106,0.258,0.159,0.387c0.347,0.153,0.657,0.356,0.948,0.586c-0.291-0.23-0.601-0.433-0.948-0.586
		c-0.028,0.157-0.03,0.309,0.076,0.442c0.002,0.109-0.045,0.237,0.113,0.284c-0.074,0.202-0.29,0.361-0.193,0.617
		c0.006,0.211,0.013,0.422,0.019,0.632c0.09,0.427,0.555,0.645,0.619,1.092c0,0.005,0.152-0.012,0.233-0.018
		c0.054,0.007,0.107,0.014,0.161,0.021c0.001,0.025,0.007,0.048,0.019,0.07c-0.078,0.092-0.258,0.084-0.252,0.258
		c-0.088,0.186-0.336,0.25-0.365,0.481c-0.133,0.461-0.645,0.274-0.901,0.527c-0.426,1.119-0.307,2.268-0.186,3.418
		c0.119,0.626,0.089,1.26,0.095,1.892c0.007,0.133-0.016,0.278,0.028,0.396c0.122,0.326,0.021,0.536-0.305,0.604
		c-0.511,0.106-0.756,0.486-0.986,0.892l0,0c-0.034,0.025-0.066,0.051-0.1,0.077c-0.134,0.153-0.443,0.217-0.27,0.527
		c0.021-0.063,0.045-0.123,0.083-0.173c-0.039,0.05-0.062,0.11-0.083,0.173c0.008,0.022,0.023,0.04,0.043,0.051l-0.002,0.028
		c0,0,0.028,0.001,0.029,0.002c0.198,0.19,0.376,0.408,0.65,0.501c0.267,0.203,0.57,0.311,0.901,0.349
		c0.219,0.153,0.474,0.057,0.708,0.1c0.003,0.03,0.018,0.053,0.044,0.07c0.018,0.602,0.188,1.167,0.415,1.718
		c-0.002,0.356,0.22,0.65,0.276,0.991c0.001,0.237,0.001,0.476,0.002,0.713c-0.03,0.03-0.061,0.06-0.091,0.091
		c-0.032,0.027-0.062,0.055-0.095,0.083c-0.147,0.003-0.295,0.005-0.443,0.008c-0.517-0.436-0.197,0.24-0.362,0.272
		c-0.029-0.003-0.058-0.006-0.087-0.011c-0.023-0.103-0.047-0.206-0.088-0.387c-0.116,0.248-0.146,0.412-0.005,0.577
		c0.731,0.238,0.066,0.544,0.034,0.822c0.089,0.09,0.251,0.112,0.254,0.275v0.001c-0.031,0.028-0.063,0.057-0.095,0.085
		c-0.025,0.009-0.05,0.018-0.074,0.026c0.023,0.015,0.046,0.029,0.069,0.044c0.05,0.114,0.115,0.09,0.184,0.021
		c0.035-0.03,0.07-0.058,0.105-0.086c0.023-0.034,0.046-0.069,0.07-0.104c0.118-0.104,0.293-0.184,0.343-0.313
		c0.139-0.36,0.291-0.161,0.453-0.046c-0.006,0.439,0.382,0.749,0.384,1.193c0.001,0.136,0.163,0.196,0.313,0.171
		c0.247,0.046,0.171,0.311,0.297,0.44c0.003,0.171,0.099,0.251,0.261,0.268c0.121,0.157,0.298,0.063,0.446,0.103
		c0.042,0.144,0.117,0.249,0.284,0.254c0.035,0.064,0.068,0.128,0.103,0.191c0.027,0.265,0.054,0.529,0.08,0.792
		c0.128,0.806,0.643,1.438,1.073,2.065c0.67,0.974,1.575,1.78,2.323,2.695c0.52,0.638,1.114,1.215,1.585,1.911
		c0.376,0.556,0.808,1.247,1.632,1.361c0.162,0.021,0.136,0.178,0.131,0.292c-0.052,1.506,0.314,2.995,0.196,4.507
		c-0.04,0.507-0.05,1.024,0.004,1.527c0.051,0.466,0.07,1.007,0.714,1.121c0.274,0.107,0.356,0.368,0.401,0.604
		c0.047,0.248,0.145,0.316,0.379,0.313c0.819-0.011,1.639-0.006,2.458-0.006c0.256,0,0.466-0.069,0.583-0.322
		c0.104-0.228,0.225-0.445,0.337-0.665c0.262-0.186,0.426-0.479,0.415-0.758c-0.053-1.194,0.171-2.37,0.187-3.557
		c0.006-0.399-0.222-0.773-0.176-1.185c0.004-0.21,0.308-0.218,0.293-0.438c0.126-0.234,0.02-0.492,0.072-0.732
		c0.026-0.069,0.056-0.135,0.078-0.204c0.181-0.572,0.221-1.262,0.574-1.695c0.583-0.713,1.115-1.468,1.716-2.169
		c0.31-0.361,0.712-0.646,0.944-1.075c0.067-0.088,0.136-0.175,0.204-0.259c0.054-0.092,0.109-0.181,0.164-0.271
		c0.242-0.107,0.388-0.295,0.45-0.548c0.171-0.258,0.495-0.522,0.483-0.77c-0.043-0.864,0.638-1.382,0.873-2.1
		c0.035-0.053,0.071-0.106,0.108-0.159c0.195-0.074,0.177-0.292,0.29-0.424c0.449-0.332,0.475-0.936,0.848-1.316
		c0.623-0.416,0.693-1.074,0.682-1.779c0.374,0.305,0.364,1.012,1.047,0.714c0.173-0.384-0.214-0.091-0.258-0.212
		c-0.003-0.052-0.008-0.104-0.01-0.155c0.083-0.08,0.321-0.084,0.196-0.266c-0.16-0.23-0.106-0.406,0.031-0.606
		c0.027-0.04,0.138-0.188-0.058-0.203c-0.557,0.154-0.135-0.232-0.204-0.37c-0.065,0.009-0.139,0.009-0.207,0.03
		c-0.174,0.053-0.365,0.119-0.504-0.029c-0.126-0.136,0.06-0.271,0.073-0.41c0.025-0.296,0.272-0.538,0.204-0.855
		c0.244-0.794,0.527-1.581,0.58-2.42c0.538,0.034,1.034-0.107,1.506-0.353c0.378-0.166,0.712-0.395,1.002-0.69l0.029,0.001
		c0,0,0-0.03,0.001-0.03c0.022-0.002,0.035-0.015,0.037-0.038c0.157-0.057,0.218-0.166,0.182-0.329
		c-0.031-0.03-0.062-0.06-0.094-0.089L63.907,37c0.195-0.139,0.186-0.277,0-0.42c-0.428-0.333-0.906-0.551-1.436-0.67
		c-0.242-0.054-0.582-0.08-0.6-0.38c-0.031-0.561-0.118-1.133,0.061-1.689c0.03-0.065,0.08-0.129,0.088-0.196
		c0.124-1.223-0.234-2.42-0.218-3.643c0.004-0.302-0.055-0.699-0.231-1.016c-0.027-0.004-0.055-0.007-0.083-0.011
		c-0.552-0.443-0.463-0.839-0.115-1.438c0.291-0.5,0.229-1.201-0.064-1.792c0.102-0.214,0.263-0.227,0.48-0.188
		c0.293,0.051,0.491,0.27,0.755,0.362c0.121,0.064,0.242,0.129,0.362,0.193c0.385,0.135,0.574,0.517,0.906,0.719l0.003,0.005
		c0.035,0.021,0.071,0.042,0.106,0.064c0.027,0.01,0.054,0.014,0.082,0.014c0.312,0.167,0.374-0.151,0.534-0.275
		c0.034-0.059,0.065-0.118,0.099-0.178c-0.031-0.061-0.062-0.121-0.092-0.183c-0.015-0.228-0.166-0.274-0.356-0.266
		c-0.061,0-0.121,0-0.182-0.001c-0.148-0.099-0.325-0.191-0.229-0.415c0.334-0.773,0.144-1.17-0.674-1.38
		c-0.2-0.277-0.58-0.232-0.812-0.452c-0.311-0.158-0.707-0.16-0.933-0.463c-0.475-0.635-1.072-1.109-1.741-1.526
		c-0.467-0.29-0.955-0.538-1.172-1.169c-0.266-0.771-0.591-1.554-1.251-2.122C57.035,18.346,56.868,18.095,57.203,17.95z"/>
	<polygon points="48.929,37.654 48.929,37.655 48.93,37.655 	"/>
	<g>
		<path fill-rule="evenodd" clip-rule="evenodd" fill="#17A2B8" d="M37.155,25.275c0.361,0.157,0.738,0.288,1.079,0.481
			c0.277,0.157,0.59,0.338,0.751,0.595c0.699,1.113,1.697,1.888,2.771,2.585c0.965,0.626,1.902,1.312,2.924,1.825
			c0.591,0.297,1.324,0.323,1.998,0.438c0.898,0.153,1.799,0.318,2.706,0.392c0.432,0.035,0.883-0.113,1.32-0.202
			c0.939-0.19,1.895-0.335,2.81-0.614c0.63-0.192,1.267-0.495,1.787-0.896c1.325-1.023,2.578-2.139,3.877-3.196
			c0.542-0.441,1.14-0.804,1.91-0.86c-0.127,0.126-0.242,0.265-0.381,0.375c-0.354,0.279-0.678,0.673-1.083,0.79
			c-0.887,0.256-1.268,1.076-1.944,1.557c-0.692,0.493-1.314,1.086-1.939,1.695c0.065-0.028,0.137-0.048,0.195-0.087
			c1.398-0.928,2.794-1.861,4.195-2.785c0.195-0.129,0.412-0.237,0.633-0.314c0.091-0.031,0.228,0.032,0.328,0.081
			c0.031,0.016,0.042,0.151,0.011,0.199c-0.314,0.485-0.647,0.955-1.187,1.234c0.101,0,0.209,0,0.319,0
			c0.007,0.019,0.013,0.039,0.021,0.057c-0.161,0.075-0.323,0.149-0.498,0.229c0.067,0.25,0.13,0.488,0.193,0.727
			c-0.062,0.012-0.124,0.024-0.185,0.037c-0.033-0.202-0.063-0.403-0.108-0.691c-0.594,0.251-1.157,0.474-1.706,0.729
			c-0.221,0.104-0.16,0.274,0.029,0.364c0.217,0.101,0.451,0.161,0.675,0.249c0.123,0.048,0.367-0.023,0.279,0.258
			c0.149,0.016,0.317,0.082,0.445,0.036c0.162-0.057,0.279-0.229,0.437-0.306c0.518-0.256,1.046-0.489,1.642-0.765
			c0.469,1.138,0.188,2.156,0.167,3.122c0.023-0.032,0.09-0.122,0.169-0.228c0.041,0.049,0.089,0.08,0.086,0.108
			c-0.023,0.356-0.062,0.711-0.08,1.067c-0.028,0.539-0.031,1.079-0.067,1.616c-0.02,0.286-0.07,0.572-0.141,0.85
			c-0.017,0.07-0.15,0.14-0.241,0.161c-0.281,0.063-0.415,0.229-0.576,0.479c-0.229,0.355-0.298,0.667-0.062,0.979
			c0.286,0.379,0.708,0.58,1.188,0.445c0.539-0.152,1.062-0.367,1.613-0.563c-0.53,0.467-1.137,0.776-1.831,0.836
			c-0.371,0.032-0.43,0.168-0.505,0.503c-0.192,0.857-0.469,1.696-0.721,2.539c-0.116,0.386-0.27,0.761-0.376,1.148
			c-0.034,0.126-0.011,0.3,0.054,0.414c0.233,0.416,0.243,0.844,0.037,1.243c-0.293,0.569-0.64,1.112-0.975,1.659
			c-0.098,0.157-0.234,0.29-0.382,0.469c-0.118-0.221-0.202-0.38-0.348-0.652c-0.384,0.617-0.712,1.143-1.039,1.669
			c0.042,0.006,0.082,0.013,0.124,0.019c0.018,0.117,0.065,0.24,0.044,0.349c-0.057,0.302-0.104,0.616-0.224,0.895
			c-0.155,0.359-0.389,0.684-0.566,1.034c-0.124,0.248-0.175,0.536-0.324,0.762c-0.138,0.208-0.378,0.342-0.55,0.529
			c-0.399,0.438-0.794,0.879-1.169,1.337c-0.378,0.46-0.746,0.93-1.082,1.42c-0.167,0.242-0.258,0.539-0.368,0.817
			c-0.044,0.109-0.017,0.252-0.075,0.348c-0.298,0.488-0.279,1.025-0.279,1.566c0,0.132-0.01,0.313-0.091,0.382
			c-0.36,0.303-0.217,0.662-0.194,1.033c0.033,0.555,0.01,1.116-0.002,1.674c-0.013,0.66-0.002,1.321-0.074,1.973
			c-0.039,0.37-0.208,0.729-0.354,1.079c-0.094,0.228-0.223,0.457-0.388,0.639c-0.148,0.162-0.362,0.359-0.556,0.37
			c-0.823,0.041-1.65,0.029-2.474,0.009c-0.11-0.002-0.237-0.151-0.321-0.259c-0.176-0.229-0.295-0.515-0.501-0.706
			c-0.365-0.338-0.57-0.719-0.57-1.216c0-1.17,0.013-2.34-0.018-3.509c-0.021-0.817-0.097-1.634-0.164-2.45
			c-0.008-0.099-0.087-0.221-0.17-0.274c-0.767-0.496-1.367-1.15-1.858-1.911c-0.057-0.086-0.136-0.158-0.204-0.236
			c-0.957-1.108-1.916-2.215-2.868-3.326c-0.085-0.098-0.162-0.221-0.2-0.345c-0.193-0.64-0.503-1.204-0.971-1.688
			c-0.104-0.106-0.125-0.298-0.184-0.45c0.034-0.018,0.067-0.034,0.101-0.053c0.154,0.187,0.31,0.375,0.498,0.601
			c-0.118-0.561-0.664-1.246-1.109-1.452c-0.289-0.135-0.574-0.28-0.856-0.43c-0.074-0.041-0.163-0.107-0.186-0.18
			c-0.086-0.273-0.149-0.551-0.52-0.564c-0.041-0.001-0.101-0.077-0.114-0.128c-0.225-0.861-0.684-1.67-0.382-2.633
			c0.092-0.292-0.118-0.686-0.212-1.027c-0.187-0.676-0.416-1.343-0.575-2.025c-0.069-0.292-0.172-0.383-0.465-0.409
			c-0.631-0.055-1.203-0.273-1.598-0.834c0.292,0.136,0.586,0.27,0.876,0.41c0.81,0.39,1.503,0.295,2.032-0.281
			c0.233-0.253,0.276-0.507,0.053-0.803c-0.28-0.371-0.513-0.788-1.12-0.731c0.062-0.121,0.096-0.187,0.148-0.287
			c-0.164-0.023-0.307-0.042-0.497-0.068c-0.104-1.063-0.209-2.137-0.318-3.246c0.236,0.238,0.082,0.927,0.707,0.557
			c-0.009-0.198,0.028-0.417-0.036-0.604c-0.13-0.373-0.272-0.755-0.487-1.083c-0.289-0.439-0.17-0.854-0.053-1.287
			c0.036-0.132,0.087-0.259,0.133-0.393c0.483,0.092,0.987,0.189,1.541,0.294c0.255-0.2,0.239-0.195,0.35,0.172
			c0.026,0.085,0.223,0.191,0.313,0.17c0.449-0.105,0.868-0.11,1.252,0.19c0.035,0.027,0.119-0.018,0.179-0.012
			c0.104,0.01,0.289,0.022,0.294,0.054c0.053,0.371,0.324,0.322,0.578,0.338c0.322,0.02,0.644,0.064,0.979,0.038
			c-0.113-0.065-0.226-0.131-0.36-0.208c0.207-0.182,0.402-0.354,0.664-0.586c-1.243-0.44-2.394-0.849-3.572-1.266
			c-0.085,0.149-0.161,0.28-0.235,0.41c-0.037-0.014-0.075-0.027-0.111-0.042c0.049-0.127,0.098-0.254,0.162-0.418
			c-0.251-0.081-0.513-0.165-0.818-0.264c0.09-0.121,0.155-0.209,0.186-0.251c-0.5-0.464-0.89-0.971-0.972-1.653
			c0.035-0.032,0.069-0.063,0.104-0.096c0.924,0.568,1.846,1.14,2.771,1.706c0.933,0.571,1.868,1.137,2.856,1.648
			c-0.074-0.071-0.141-0.151-0.223-0.21c-1.456-1.031-2.888-2.098-4.38-3.073c-0.744-0.486-1.186-1.062-1.211-1.947L37.155,25.275z
			 M53.933,38.77c-0.028,0.019-0.056,0.038-0.082,0.056c-0.258-0.408-0.554-0.797-0.765-1.229c-0.403-0.825-1.129-1.232-1.927-1.508
			c-1.753-0.607-4.738,0.036-5.407,2.235c-0.09,0.297-0.37,0.537-0.563,0.803c-0.033-0.022-0.065-0.042-0.098-0.063
			c-0.102-1.079-0.203-2.159-0.304-3.237c-0.071,0.207-0.045,0.449-0.148,0.608c-0.607,0.936-0.714,1.972-0.687,3.045
			c0.005,0.175-0.018,0.356-0.055,0.528c-0.065,0.31-0.204,0.613-0.217,0.923c-0.023,0.505,0.017,1.014,0.054,1.519
			c0.136,1.883,0.278,3.765,0.431,5.646c0.013,0.163,0.084,0.396,0.204,0.463c0.577,0.33,1.18,0.613,1.837,0.944
			c0.016-0.257,0.029-0.373,0.028-0.492c-0.005-3.281-0.01-6.565-0.019-9.849c0-0.131-0.016-0.273-0.068-0.39
			c-0.189-0.422-0.057-0.802,0.371-0.96c0.182-0.067,0.379-0.114,0.571-0.12c1.647-0.063,3.295-0.121,4.943-0.166
			c0.221-0.005,0.485,0.005,0.654,0.12c0.196,0.134,0.425,0.384,0.438,0.595c0.036,0.662-0.056,1.329-0.037,1.993
			c0.079,2.848,0.178,5.694,0.271,8.542c0.004,0.14,0.029,0.279,0.062,0.542c0.628-0.346,1.185-0.627,1.712-0.956
			c0.137-0.086,0.235-0.316,0.252-0.487c0.057-0.642,0.083-1.287,0.1-1.931c0.037-1.453,0.078-2.905,0.082-4.357
			c0.002-0.518-0.08-1.039-0.161-1.554c-0.056-0.357-0.187-0.704-0.264-1.06c-0.12-0.549-0.181-1.117-0.347-1.652
			c-0.209-0.675-0.498-1.326-0.695-1.836C54.051,36.459,53.991,37.615,53.933,38.77z M49.011,45.292
			c0.032,0,0.064-0.001,0.097-0.002c-0.047-2.208-0.094-4.417-0.142-6.625c-0.05,0.001-0.101,0.003-0.152,0.004
			C48.88,40.877,48.945,43.084,49.011,45.292z M52.438,31.47c0.273,0.153,0.543,0.305,0.697,0.391
			c0.793-0.458,1.504-0.871,2.18-1.263C54.385,30.879,53.434,31.168,52.438,31.47z M43.485,30.904
			c0.715,0.351,1.464,0.718,2.213,1.086c-0.01,0.047-0.021,0.093-0.031,0.139c0.246-0.148,0.491-0.296,0.786-0.474
			C45.404,31.39,44.433,31.144,43.485,30.904z"/>
		<path fill-rule="evenodd" clip-rule="evenodd" fill="#17A2B8" d="M55.602,19.208c-0.211,0.054-0.514,0.12-0.812,0.206
			c-0.447,0.128-0.644-0.007-0.604-0.464c0.017-0.186,0.058-0.413,0.176-0.54c0.4-0.428,0.801-0.845,1.494-0.797
			c0.293,0.021,0.604-0.189,0.906-0.302c0.138-0.052,0.271-0.124,0.406-0.185c0.785-0.354,1.594-0.667,2.345-1.083
			c0.354-0.197,0.601-0.591,0.896-0.896c-0.062-0.013-0.123-0.027-0.186-0.04c-0.106-0.206-0.255-0.401-0.316-0.619
			c-0.313-1.097,0.367-1.764,1.081-2.404c0.071-0.063,0.193-0.075,0.294-0.1c0.979-0.24,1.971-0.317,2.976-0.268
			c0.854,0.043,1.662,0.593,1.794,1.244c0.155,0.772-0.398,1.848-1.215,2.092c-0.982,0.293-2.008,0.445-3.01,0.67
			c-0.316,0.069-0.625,0.168-0.935,0.267c-0.17,0.054-0.325,0.171-0.498,0.195c-1.37,0.193-2.402,1.101-3.585,1.689
			c-0.076,0.039-0.16,0.189-0.146,0.27c0.1,0.519-0.152,0.71-0.625,0.763C55.921,18.917,55.818,19.053,55.602,19.208z"/>
		<path fill-rule="evenodd" clip-rule="evenodd" fill="#17A2B8" d="M54.109,30.042c1.204-1.311,1.365-1.806,0.848-2.623
			c-0.416-0.658-1.198-0.971-1.904-0.759c-0.677,0.201-1.24,1.012-1.219,1.754c0.021,0.77,0.717,1.601,1.617,1.812
			c-0.831,0.164-1.546,0.324-2.268,0.442c-0.477,0.078-0.605-0.058-0.515-0.549c0.293-1.576,0.949-2.956,2.378-3.802
			c1.875-1.112,3.878-1.954,5.947-2.637c0.184-0.06,0.362-0.182,0.545-0.188c0.206-0.008,0.477,0.022,0.604,0.151
			c0.107,0.108,0.134,0.429,0.051,0.572c-0.721,1.235-1.311,2.565-2.525,3.448c-0.847,0.619-1.646,1.302-2.488,1.927
			c-0.308,0.229-0.676,0.377-1.018,0.561C54.146,30.115,54.127,30.079,54.109,30.042z"/>
		<path fill-rule="evenodd" clip-rule="evenodd" fill="#17A2B8" d="M45.624,30.38c0.621-0.278,0.936-0.833,1.206-1.394
			c0.278-0.577,0.089-1.131-0.318-1.578c-0.461-0.508-1.045-0.755-1.742-0.548c-1.146,0.342-1.591,1.742-0.864,2.692
			c0.185,0.242,0.371,0.486,0.628,0.821c-0.414-0.227-0.768-0.388-1.087-0.603c-0.869-0.588-1.723-1.196-2.582-1.799
			c-1.165-0.819-1.822-2.045-2.545-3.211c-0.089-0.142-0.053-0.503,0.06-0.595c0.17-0.136,0.46-0.123,0.726-0.101
			c-0.326,0.203-0.628,0.395-0.492,0.81c0.067,0.2,0.218,0.428,0.584,0.277c-0.17-0.124-0.298-0.215-0.451-0.326
			c0.241,0.032,0.434,0.057,0.659,0.086c0-0.266,0-0.47,0-0.737c0.224,0.045,0.446,0.061,0.646,0.134
			c1.63,0.602,3.272,1.174,4.879,1.832c1.756,0.72,2.827,2.069,3.262,3.911c0.156,0.668,0.047,0.776-0.64,0.696
			c-0.637-0.073-1.271-0.169-1.906-0.256C45.639,30.454,45.631,30.417,45.624,30.38z"/>
		<path fill-rule="evenodd" clip-rule="evenodd" fill="#17A2B8" d="M39.754,17.292c-0.219-0.058-0.438-0.112-0.656-0.173
			c-0.4-0.114-0.798-0.23-1.197-0.347c-0.256-0.074-0.512-0.147-0.768-0.222c-0.142-0.041-0.281-0.11-0.424-0.121
			c-0.939-0.065-1.876-0.123-2.815-0.174c-1.119-0.06-1.846-0.65-2.077-1.702c-0.179-0.817,0.348-1.639,1.185-1.737
			c0.975-0.114,1.958-0.208,2.937-0.213c1.431-0.007,2.438,1.565,1.907,2.897c-0.134,0.335,0.124,0.791,0.556,0.984
			c0.471,0.212,0.938,0.436,1.405,0.654C39.79,17.191,39.772,17.241,39.754,17.292z"/>
		<path fill-rule="evenodd" clip-rule="evenodd" fill="#17A2B8" d="M49.319,20.681c0.017-0.221,0.032-0.442,0.049-0.662
			c0.046,0,0.091,0,0.138,0c-0.032,0.659-0.063,1.318-0.096,1.976c0.063,0.003,0.127,0.006,0.191,0.009
			c0.032-0.545,0.065-1.089,0.102-1.684c0.046,0.05,0.078,0.076,0.101,0.109c0.024,0.034,0.042,0.076,0.075,0.139
			c0.174-0.642,0.646-0.297,0.996-0.328c0.465-0.039,0.377,0.362,0.443,0.717c0.144-0.81,0.877-1.073,1.479-0.608
			c0.07,0.055,0.115,0.226,0.086,0.31c-0.113,0.308-0.247,0.609-0.402,0.896c-0.368,0.681-0.748,1.354-1.134,2.024
			c-0.067,0.116-0.188,0.202-0.282,0.302c-0.036-0.021-0.07-0.042-0.106-0.063c0-1.003,0-2.007,0-3.011
			c-0.032-0.002-0.063-0.005-0.096-0.006c-0.069,0.586-0.166,1.172-0.2,1.76c-0.033,0.619-0.006,1.241-0.006,1.861
			c-0.041,0.015-0.081,0.031-0.121,0.046c-0.061-0.138-0.167-0.273-0.173-0.413c-0.03-0.644-0.028-1.288-0.046-1.931
			c-0.005-0.197-0.039-0.394-0.061-0.591c-0.038-0.004-0.075-0.008-0.113-0.011c-0.079,0.188-0.16,0.375-0.26,0.607
			c-0.029-0.073-0.049-0.118-0.067-0.162c-0.027-0.002-0.056-0.005-0.084-0.007c0,0.299-0.004,0.598,0.001,0.896
			c0.006,0.239,0.038,0.479,0.031,0.717c-0.011,0.446-0.133,0.816-0.653,0.911c-0.123,0.022-0.231,0.122-0.385,0.208
			c-0.057-0.298-0.109-0.57-0.182-0.943c-0.045,0.195-0.069,0.298-0.117,0.503c-0.213-0.426-0.387-0.773-0.549-1.1
			c-0.01,0.048-0.027,0.141-0.045,0.234c-0.025-0.001-0.049-0.002-0.073-0.002c0-0.412,0.039-0.828-0.01-1.233
			c-0.053-0.435-0.195-0.859-0.287-1.292c-0.031-0.145-0.041-0.299-0.031-0.447c0.047-0.655,0.099-0.707,0.756-0.812
			c0.953-0.152,0.96-0.143,0.961,0.846c0,0.08,0.038,0.16,0.058,0.24C49.244,20.685,49.282,20.682,49.319,20.681z"/>
		<path fill-rule="evenodd" clip-rule="evenodd" fill="#17A2B8" d="M42.431,19.408c-0.179-0.096-0.358-0.19-0.545-0.291
			c-0.427,0.756-0.993,1.201-1.807,1.328c-0.213,0.033-0.406,0.202-0.608,0.311c0.021,0.052,0.043,0.104,0.065,0.155
			c0.443-0.146,0.881-0.312,1.331-0.436c0.527-0.146,0.771-0.558,0.989-1.056c0.251,0.342,0.26,0.609-0.045,0.817
			c-1.123,0.764-2.252,1.518-3.427,2.307c0.713-2.106,0.11-2.456,3.105-3.387c0.002-0.328,0.002-0.328-1.086-1.533
			c0.302-0.284,0.614-0.202,0.871,0.01c0.387,0.32,0.812,0.383,1.282,0.329c0.648-0.074,1.417,0.596,1.444,1.252
			c0.019,0.434-0.147,0.561-0.582,0.469c-0.332-0.071-0.669-0.122-1.004-0.183C42.419,19.47,42.425,19.439,42.431,19.408z"/>
		<path fill-rule="evenodd" clip-rule="evenodd" fill="#17A2B8" d="M63.48,25.615c-0.653-0.398-1.305-0.741-1.883-1.179
			c-0.202-0.153-0.229-0.541-0.335-0.82c0.047-0.037,0.094-0.075,0.142-0.112c0.65,0.306,1.321,0.577,1.947,0.928
			C63.994,24.792,64.001,25.063,63.48,25.615z"/>
		<path fill-rule="evenodd" clip-rule="evenodd" fill="#17A2B8" d="M37.167,25.262c-0.529,0.273-1.037,0.602-1.592,0.799
			c-0.367,0.13-0.8,0.073-1.204,0.099c-0.011-0.048-0.021-0.097-0.032-0.146c0.397-0.179,0.795-0.355,1.19-0.54
			c0.365-0.169,0.726-0.347,1.09-0.52c0.438-0.208,0.471-0.188,0.536,0.32L37.167,25.262z"/>
	</g>
</g>
<circle fill="#FFFF00" cx="45.176" cy="28.491" r="1.914"/>
<circle fill="#FFFF00" cx="53.548" cy="28.491" r="1.914"/>
</svg>
