<?xml version="1.0" standalone="no"?><!-- Generator: Gravit.io --><svg xmlns="http://www.w3.org/2000/svg" xmlns:xlink="http://www.w3.org/1999/xlink" style="isolation:isolate" viewBox="0 0 150 150" width="150" height="150"><defs><clipPath id="_clipPath_3QKbYuukSY9VWgjpDCBD7fBbIT9AUjUd"><rect width="150" height="150"/></clipPath></defs><g clip-path="url(#_clipPath_3QKbYuukSY9VWgjpDCBD7fBbIT9AUjUd)"><g><circle vector-effect="non-scaling-stroke" cx="72" cy="78" r="60" fill="rgb(255,153,0)"/><path d=" M 67.69 107.19 C 64.898 107.123 62.118 106.788 59.39 106.19 C 57.461 105.793 55.592 105.148 53.83 104.27 L 57.07 94.83 C 58.397 95.544 59.804 96.101 61.26 96.49 C 63.362 97.065 65.516 97.43 67.69 97.58 L 67.69 80.58 Q 65.09 79.46 62.56 78 C 60.902 77.076 59.38 75.925 58.04 74.58 C 56.678 73.198 55.592 71.569 54.84 69.78 C 53.993 67.671 53.584 65.412 53.64 63.14 Q 53.63 56 57.41 52 C 60.193 49.226 63.8 47.43 67.69 46.88 L 67.69 39.28 L 76.38 39.28 L 76.38 46.55 C 78.534 46.672 80.672 47.007 82.76 47.55 C 84.485 48.015 86.176 48.599 87.82 49.3 L 84.82 58.57 C 83.658 58.08 82.466 57.666 81.25 57.33 C 79.648 56.886 78.013 56.575 76.36 56.4 L 76.36 71.86 Q 78.94 73.03 81.55 74.49 C 83.251 75.445 84.815 76.626 86.2 78 C 87.575 79.366 88.699 80.964 89.52 82.72 C 90.425 84.754 90.865 86.964 90.81 89.19 Q 90.81 96.88 86.95 101.19 C 84.147 104.183 80.416 106.143 76.36 106.75 L 76.36 114.52 L 67.69 114.52 L 67.69 107.19 Z  M 64.49 62.34 C 64.464 63.931 65.163 65.447 66.39 66.46 C 67.866 67.691 69.5 68.716 71.25 69.51 L 71.25 56.15 Q 67.25 56.31 65.88 58.05 C 64.929 59.273 64.437 60.791 64.49 62.34 L 64.49 62.34 Z  M 79.94 90.34 C 79.978 88.649 79.214 87.04 77.88 86 C 76.313 84.757 74.596 83.716 72.77 82.9 L 72.77 97.6 C 74.808 97.521 76.746 96.7 78.22 95.29 C 79.415 93.918 80.034 92.138 79.95 90.32 L 79.94 90.34 Z " fill="rgb(255,255,255)"/></g></g></svg>