<?xml version="1.0" standalone="no"?><!-- Generator: Gravit.io --><svg xmlns="http://www.w3.org/2000/svg" xmlns:xlink="http://www.w3.org/1999/xlink" style="isolation:isolate" viewBox="0 0 150 150" width="150" height="150"><defs><clipPath id="_clipPath_WmdmNwuE9IsIV71sxTVRdHRm0bd3TNNM"><rect width="150" height="150"/></clipPath></defs><g clip-path="url(#_clipPath_WmdmNwuE9IsIV71sxTVRdHRm0bd3TNNM)"><g><rect x="-23" y="-31.833" width="164" height="164" transform="matrix(1,0,0,1,0,0)" fill="none"/><path d=" M 86.711 45.247 L 86.711 35.589 L 98.783 35.589 L 98.783 25.931 L 64.981 25.931 L 64.981 35.589 L 77.053 35.589 L 77.053 45.247" fill="rgb(255,255,255)" vector-effect="non-scaling-stroke" stroke-width="3" stroke="rgb(255,153,0)" stroke-linejoin="round" stroke-linecap="butt" stroke-miterlimit="10"/><path d=" M 36.008 76.634 L 26.35 76.634 L 26.35 62.148 L 16.692 62.148 L 16.692 100.779 L 26.35 100.779 L 26.35 86.292 L 36.008 86.292" fill="rgb(255,255,255)" vector-effect="non-scaling-stroke" stroke-width="3" stroke="rgb(255,153,0)" stroke-linejoin="round" stroke-linecap="butt" stroke-miterlimit="10"/><path d=" M 122.928 59.733 L 122.928 71.806 L 115.684 71.806 L 115.684 52.111 C 115.684 49.655 113.726 47.661 111.317 47.661 L 62.543 47.661 C 61.386 47.661 60.271 48.132 59.452 48.97 L 48.08 62.148 L 40.837 62.148 C 38.422 62.148 36.008 64.562 36.008 66.977 L 36.008 95.95 C 36.008 98.408 38.427 100.779 40.837 100.779 L 48.08 100.779 L 59.457 113.964 C 60.275 114.797 61.386 115.266 62.543 115.266 L 93.58 115.266 C 94.737 115.266 95.847 114.797 96.666 113.964 L 114.402 95.899 C 115.226 95.064 115.682 93.934 115.682 92.753 L 115.682 86.292 L 122.925 86.292 L 122.925 98.364 L 132.583 98.364 L 132.583 59.733 L 122.928 59.733 Z " fill="rgb(255,255,255)" vector-effect="non-scaling-stroke" stroke-width="3" stroke="rgb(255,153,0)" stroke-linejoin="round" stroke-linecap="round" stroke-miterlimit="10"/></g></g></svg>