<?xml version="1.0" standalone="no"?><!-- Generator: Gravit.io --><svg xmlns="http://www.w3.org/2000/svg" xmlns:xlink="http://www.w3.org/1999/xlink" style="isolation:isolate" viewBox="0 0 150 150" width="150" height="150"><defs><clipPath id="_clipPath_RVJjNTwqKWLIuoIpb4B97UqqFHXXUZNh"><rect width="150" height="150"/></clipPath></defs><g clip-path="url(#_clipPath_RVJjNTwqKWLIuoIpb4B97UqqFHXXUZNh)"><clipPath id="_clipPath_7f18zFSbY3EYUoqzuvwWmE6qC8qGiTxY"><rect x="0" y="0" width="150" height="150" transform="matrix(1,0,0,1,0,0)" fill="rgb(255,255,255)"/></clipPath><g clip-path="url(#_clipPath_7f18zFSbY3EYUoqzuvwWmE6qC8qGiTxY)"><g><g><rect x="23" y="23" width="104" height="104" transform="matrix(1,0,0,1,0,0)" fill="none"/><line x1="61.676" y1="122.674" x2="30.016" y2="34.247" vector-effect="non-scaling-stroke" stroke-width="5" stroke="rgb(255,153,0)" stroke-opacity="100" stroke-linejoin="round" stroke-linecap="round" stroke-miterlimit="10"/><path d=" M 32.252 40.491 C 32.252 40.491 44.547 27.16 65.904 27.16 C 78.904 27.16 84.845 35.632 95.573 35.632 C 106.296 35.632 116.596 27.16 116.596 27.16 L 116.596 82.22 C 116.596 82.22 108.852 86.457 99.652 86.457 C 90.456 86.457 86.704 82.22 74.241 82.22 C 62.42 82.22 51.309 93.693 51.309 93.693 L 32.252 40.491 Z " fill="rgb(255,255,255)" vector-effect="non-scaling-stroke" stroke-width="2" stroke="rgb(255,153,0)" stroke-opacity="100" stroke-linejoin="round" stroke-linecap="round" stroke-miterlimit="10"/><path d=" M 32.252 40.491 C 32.252 40.491 38.631 33.735 47.242 30.956 L 53.824 47.854 C 53.824 47.854 45.325 50.912 38.386 57.432 L 32.47 41.115" fill="rgb(255,153,0)" vector-effect="non-scaling-stroke" stroke-width="1" stroke="rgb(255,153,0)" stroke-opacity="100" stroke-linejoin="miter" stroke-linecap="butt" stroke-miterlimit="4"/><path d=" M 53.824 47.854 L 60.92 66.073 C 60.92 66.073 66.501 64.088 70.343 64.088 C 74.185 64.088 77.993 64.652 77.993 64.652 L 72.841 45.277 C 72.841 45.277 71.385 45.071 69.59 45.071 C 60.989 45.071 53.824 47.854 53.824 47.854 Z " fill="rgb(255,153,0)" vector-effect="non-scaling-stroke" stroke-width="1" stroke="rgb(255,153,0)" stroke-opacity="100" stroke-linejoin="miter" stroke-linecap="butt" stroke-miterlimit="4"/><path d=" M 45.298 76.614 L 51.309 93.691 C 51.309 93.691 59.623 85.72 67.541 83.478 L 60.923 66.073 C 53.297 69.01 45.298 76.614 45.298 76.614 Z " fill="rgb(255,153,0)" vector-effect="non-scaling-stroke" stroke-width="1" stroke="rgb(255,153,0)" stroke-opacity="100" stroke-linejoin="miter" stroke-linecap="butt" stroke-miterlimit="4"/><path d=" M 68.086 27.391 L 72.843 45.275 C 76.691 45.275 87.391 50.518 87.391 50.518 L 83.172 32.05 C 80.753 31.145 74.42 27.69 68.086 27.391 Z " fill="rgb(255,153,0)" vector-effect="non-scaling-stroke" stroke-width="1" stroke="rgb(255,153,0)" stroke-opacity="100" stroke-linejoin="miter" stroke-linecap="butt" stroke-miterlimit="4"/><path d=" M 77.993 64.65 L 82.892 83.06 C 85.358 83.06 92.43 86.074 95.507 86.074 L 91.372 67.974 C 87.391 66.938 80.947 65.064 77.993 64.65 Z " fill="rgb(255,153,0)" vector-effect="non-scaling-stroke" stroke-width="1" stroke="rgb(255,153,0)" stroke-opacity="100" stroke-linejoin="miter" stroke-linecap="butt" stroke-miterlimit="4"/><path d=" M 87.391 50.52 L 91.374 67.976 C 91.374 67.976 95.359 68.712 98.094 68.712 C 100.827 68.712 104.236 68.092 104.236 68.092 L 102.943 52.11 C 102.943 52.11 100.303 52.929 97.104 52.929 C 92.108 52.929 87.391 50.52 87.391 50.52 Z " fill="rgb(255,153,0)" vector-effect="non-scaling-stroke" stroke-width="1" stroke="rgb(255,153,0)" stroke-opacity="100" stroke-linejoin="miter" stroke-linecap="butt" stroke-miterlimit="4"/><path d=" M 101.545 34.796 L 102.945 52.108 C 102.945 52.108 109.453 50.473 116.6 45.069 L 116.596 27.16 C 108.39 33.446 101.545 34.796 101.545 34.796 Z " fill="rgb(255,153,0)" vector-effect="non-scaling-stroke" stroke-width="1" stroke="rgb(255,153,0)" stroke-opacity="100" stroke-linejoin="miter" stroke-linecap="butt" stroke-miterlimit="4"/><path d=" M 104.239 68.092 C 104.239 68.092 110.508 66.93 116.596 63.394 L 116.596 82.22 C 110.112 85.331 105.653 85.895 105.653 85.895 L 104.239 68.092 Z " fill="rgb(255,153,0)" vector-effect="non-scaling-stroke" stroke-width="1" stroke="rgb(255,153,0)" stroke-opacity="100" stroke-linejoin="miter" stroke-linecap="butt" stroke-miterlimit="4"/></g></g></g></g></svg>