<?xml version="1.0" standalone="no"?><!-- Generator: Gravit.io --><svg xmlns="http://www.w3.org/2000/svg" xmlns:xlink="http://www.w3.org/1999/xlink" style="isolation:isolate" viewBox="0 0 100 100" width="100" height="100"><defs><clipPath id="_clipPath_Hlk4eEeIoZfVALgfARNbDlNLGMZ2H6M3"><rect width="100" height="100"/></clipPath></defs><g clip-path="url(#_clipPath_Hlk4eEeIoZfVALgfARNbDlNLGMZ2H6M3)"><g><g><g><path d=" M 30.999 77.418 C 36.769 77.418 41.705 73.817 43.706 68.751 L 56.294 68.751 C 58.296 73.817 63.232 77.418 69.001 77.418 C 76.537 77.418 82.668 71.287 82.668 63.751 C 82.668 63.18 82.622 62.621 82.554 62.067 C 82.653 61.866 82.698 61.634 82.64 61.398 L 75.806 32.898 C 75.765 32.727 75.679 32.571 75.558 32.443 C 75.169 32.033 73.142 30.025 71.418 30.713 C 69.833 31.346 69.833 33.594 69.833 34.332 L 69.833 40.275 C 69.833 40.828 70.281 41.275 70.833 41.275 C 71.386 41.275 71.833 40.828 71.833 40.275 L 71.833 34.332 C 71.833 32.865 72.16 32.572 72.157 32.572 C 72.397 32.497 73.225 32.969 73.925 33.639 L 78.89 54.345 C 76.4 51.727 72.892 50.083 68.999 50.083 C 61.8 50.083 55.897 55.681 55.384 62.75 L 44.616 62.75 C 44.1 55.681 38.199 50.083 31 50.083 C 27.009 50.083 23.424 51.812 20.923 54.55 L 26.075 33.067 C 26.763 32.406 27.6 31.934 27.836 31.997 C 27.839 32 28.167 32.291 28.167 33.76 L 28.167 39.703 C 28.167 40.256 28.615 40.703 29.167 40.703 C 29.719 40.703 30.167 40.256 30.167 39.703 L 30.167 33.76 C 30.167 33.022 30.167 30.775 28.583 30.143 C 26.86 29.454 24.832 31.463 24.443 31.873 C 24.322 32.001 24.237 32.157 24.196 32.328 L 17.361 60.828 C 17.293 61.115 17.361 61.396 17.516 61.623 C 17.407 62.318 17.333 63.025 17.333 63.751 C 17.332 71.289 23.463 77.418 30.999 77.418 Z  M 44.324 66.751 C 44.47 66.101 44.566 65.433 44.616 64.751 L 55.386 64.751 C 55.435 65.433 55.531 66.101 55.677 66.751 L 44.324 66.751 Z  M 69 52.084 C 75.433 52.084 80.667 57.317 80.667 63.751 C 80.667 70.185 75.433 75.418 69 75.418 C 62.567 75.418 57.333 70.185 57.333 63.751 C 57.333 57.317 62.567 52.084 69 52.084 Z  M 30.999 52.084 C 37.432 52.084 42.666 57.317 42.666 63.751 C 42.666 70.185 37.432 75.418 30.999 75.418 C 24.566 75.418 19.332 70.185 19.332 63.751 C 19.332 57.317 24.566 52.084 30.999 52.084 Z " fill="rgb(255,255,255)" vector-effect="non-scaling-stroke" stroke-width="1" stroke="rgb(255,255,255)" stroke-linejoin="miter" stroke-linecap="butt" stroke-miterlimit="4"/></g></g></g></g></svg>