<?xml version="1.0" standalone="no"?><!-- Generator: Gravit.io --><svg xmlns="http://www.w3.org/2000/svg" xmlns:xlink="http://www.w3.org/1999/xlink" style="isolation:isolate" viewBox="0 0 100 100" width="100" height="100"><defs><clipPath id="_clipPath_RaZywTfjuuw4KuAeF7X5iQ6QJ6Qhys5x"><rect width="100" height="100"/></clipPath></defs><g clip-path="url(#_clipPath_RaZywTfjuuw4KuAeF7X5iQ6QJ6Qhys5x)"><path d=" M 79.114 75.724 C 79.629 75.565 80.14 75.391 80.659 75.25 C 80.967 75.167 81.024 74.98 80.992 74.693 C 80.923 74.135 80.597 73.746 80.165 73.449 C 79.745 73.155 79.301 72.896 78.838 72.675 C 77.936 72.263 77.162 71.616 76.597 70.802 C 75.918 69.822 75.249 68.833 74.628 67.817 C 74.394 67.422 74.238 66.985 74.171 66.531 C 73.969 65.186 73.421 64.001 72.735 62.841 C 71.493 60.771 70.475 58.575 69.696 56.29 C 69.478 55.643 69.37 54.958 69.218 54.291 C 69.217 54.236 69.229 54.181 69.254 54.131 C 69.661 52.811 69.575 51.473 69.42 50.133 C 69.3 49.072 69.159 48.011 69.087 46.946 C 69.012 45.829 69.347 44.776 69.758 43.755 C 70.341 42.309 70.79 40.832 70.993 39.279 C 71.056 38.79 71.236 38.314 71.385 37.84 C 71.446 37.646 71.588 37.46 71.819 37.633 C 72.794 38.364 73.992 38.596 75.067 39.098 C 75.983 39.525 76.724 40.132 77.271 40.996 C 78.021 42.181 79.27 42.245 80.174 41.163 C 80.879 40.321 81.022 39.355 80.649 38.35 C 80.387 37.68 80.069 37.033 79.697 36.416 C 79.223 35.602 78.698 34.819 78.181 34.028 C 77.886 33.575 77.696 33.098 77.718 32.547 C 77.747 31.971 77.549 31.407 77.167 30.975 C 76.75 30.487 76.312 30.006 75.908 29.507 C 75.614 29.143 75.104 28.757 74.961 28.313 C 74.878 28.048 74.916 27.763 74.946 27.486 C 75.04 26.563 74.99 25.631 74.796 24.724 C 74.789 24.648 74.754 24.578 74.697 24.527 C 74.539 24.418 74.371 24.649 74.307 24.831 C 74.097 25.423 73.768 25.966 73.34 26.426 C 73.117 26.665 72.857 26.886 72.542 26.974 C 71.287 27.322 71.238 24.892 70.776 24.225 C 70.316 25.037 69.968 25.907 69.742 26.812 C 69.689 27.015 69.631 27.229 69.487 27.379 C 68.898 27.998 67.881 27.4 67.136 27.651 C 66.876 27.734 66.641 27.888 66.386 27.998 C 65.073 28.575 63.504 28.027 62.138 28.469 C 63.302 28.269 64.51 29.199 65.592 28.764 C 64.882 29.049 64.376 29.133 63.593 29.033 C 62.858 28.939 62.083 28.762 61.362 29.033 C 61.606 28.943 62.283 29.328 62.522 29.413 C 62.904 29.534 63.296 29.621 63.693 29.672 C 63.36 29.617 62.95 29.696 62.601 29.655 C 62.01 29.586 61.39 29.361 60.822 29.649 C 60.489 29.821 60.216 30.098 59.957 30.374 C 60.449 30.34 60.942 30.393 61.432 30.444 L 62.515 30.56 C 62.177 30.524 61.697 30.621 61.341 30.628 C 61.019 30.634 60.644 30.634 60.348 30.773 C 60.15 30.865 59.991 31.022 59.807 31.137 C 59.5 31.327 59.134 31.398 58.779 31.335 C 58.881 31.644 59.27 31.73 59.594 31.765 C 60.054 31.815 60.523 31.84 60.967 31.955 C 61.384 32.062 61.794 32.278 62.232 32.249 C 61.132 32.323 59.013 31.532 58.345 32.817 C 59.033 32.821 59.746 32.831 60.369 33.124 C 59.425 32.681 58.416 33.533 57.481 33.338 C 57.686 33.475 57.913 33.576 58.151 33.637 C 58.891 33.78 59.516 33.693 60.206 34.097 C 59.441 34.033 58.716 34.459 57.95 34.506 C 57.543 34.531 57.094 34.458 56.759 34.69 C 57.023 34.587 57.269 34.856 57.522 34.984 C 57.837 35.143 58.226 35.081 58.545 35.234 C 58.156 35.288 57.757 35.19 57.366 35.234 C 56.993 35.273 56.65 35.446 56.266 35.357 C 56.947 35.515 57.77 36.325 58.505 36.01 C 58.171 36.176 57.803 36.121 57.446 36.115 C 56.672 36.101 56.63 36.531 56.263 37.063 C 56.125 37.258 55.887 37.355 55.652 37.313 C 56.096 37.508 56.595 37.54 57.061 37.406 C 57.375 37.309 57.623 37.023 57.885 37.413 C 58.135 37.784 57.673 38.17 57.483 38.487 C 57.034 39.236 56.505 39.954 55.621 40.199 C 54.822 40.42 54.049 40.743 53.272 41.032 C 51.419 41.74 49.395 41.87 47.466 41.404 C 46.185 41.106 44.89 40.859 43.595 40.625 C 42.181 40.358 40.721 40.484 39.373 40.988 C 37.359 41.737 35.417 42.482 33.514 43.475 C 33.384 43.557 33.236 43.606 33.083 43.618 C 32.903 43.618 32.742 43.517 32.583 43.439 C 31.517 42.928 30.197 43.392 29.34 44.205 C 28.244 45.245 28.007 46.734 26.912 47.752 C 25.758 48.827 24.319 49.548 22.767 49.83 C 23.68 49.936 24.605 49.778 25.432 49.376 C 24.397 50.792 23.274 51.762 21.601 52.412 C 22.148 52.55 22.72 52.548 23.266 52.407 C 22.492 52.727 21.745 53.11 21.033 53.553 C 20.655 53.793 19.518 54.469 19.054 54.224 C 19.624 54.519 20.28 54.606 20.907 54.468 C 20.355 54.617 19.852 55.143 19.33 55.384 C 18.756 55.646 18.092 55.811 17.469 55.931 C 18.455 56.402 19.587 56.463 20.617 56.1 C 19.997 56.321 19.444 57.016 18.817 57.31 C 18.19 57.604 17.615 57.575 16.976 57.67 C 17.258 58.14 18.033 58.357 18.541 58.451 C 17.438 58.972 16.217 59.198 15 59.105 C 16.391 59.865 18.021 60.06 19.552 59.648 C 19.286 60.014 18.929 60.304 18.516 60.489 C 19.149 60.207 20.091 60.266 20.781 60.04 C 21.355 59.853 22.094 59.568 22.583 59.215 C 22.41 59.631 22.177 60.02 21.892 60.371 C 26.191 58.652 29.38 55.491 31.255 51.237 C 31.382 50.951 31.556 50.686 31.709 50.411 L 31.829 50.424 C 32.178 52.207 32.553 53.985 32.859 55.776 C 32.942 56.268 32.859 56.801 32.785 57.306 C 32.664 58.138 32.312 58.878 31.519 59.25 C 30.365 59.79 29.977 60.74 29.954 61.915 C 29.932 63.09 29.983 64.247 29.919 65.409 C 29.875 66.19 29.693 66.964 29.561 67.741 C 29.54 67.879 29.486 68.01 29.403 68.123 C 28.987 68.641 28.703 69.195 28.737 69.89 C 28.752 70.184 28.541 70.34 28.242 70.413 C 27.895 70.496 27.528 70.587 27.235 70.776 C 27.035 70.904 26.841 71.2 26.829 71.43 C 26.813 71.872 26.866 72.315 26.988 72.74 C 27.184 73.45 27.866 73.791 28.527 73.462 C 28.957 73.248 29.323 72.879 29.666 72.527 C 30.235 71.944 30.749 71.309 31.311 70.723 C 31.756 70.263 31.713 69.732 31.662 69.168 C 31.384 66.092 32.071 63.364 34.535 61.278 Q 35.618 60.362 36.629 59.378 C 37.281 58.745 38.051 58.329 38.878 57.989 C 39.043 57.909 39.186 57.79 39.294 57.641 C 39.794 56.997 39.982 56.233 40.127 55.447 C 40.198 55.06 40.234 54.639 40.697 54.346 C 41.132 55.186 42.024 55.395 42.761 55.838 C 43.374 56.206 43.783 56.766 43.901 57.461 C 44.067 58.427 44.161 59.407 44.252 60.385 C 44.302 60.936 44.288 61.493 44.297 62.05 C 44.312 62.967 44.707 63.685 45.353 64.322 C 46.602 65.559 47.851 66.801 49.036 68.104 C 49.559 68.68 49.917 69.408 50.352 70.065 C 50.512 70.308 50.671 70.552 50.842 70.787 C 51.124 71.189 51.558 71.459 52.043 71.533 C 52.811 71.668 53.072 72.082 52.915 72.832 C 52.735 73.695 52.998 74.196 53.831 74.479 C 54.517 74.713 55.217 74.779 55.903 74.47 C 56.338 74.272 56.363 74.169 56.168 73.742 C 56.002 73.377 55.849 73.005 55.689 72.636 C 55.415 71.998 55.069 71.43 54.398 71.126 C 54.241 71.037 54.105 70.914 54.002 70.767 C 53.003 69.524 52.007 68.283 51.029 67.026 C 50.493 66.337 49.983 65.628 49.484 64.912 C 48.975 64.183 48.787 63.35 48.775 62.472 C 48.752 60.919 48.727 59.365 48.714 57.813 C 48.714 57.428 48.755 57.044 48.784 56.537 C 49.515 56.653 50.2 56.723 50.866 56.877 C 51.906 57.117 52.923 57.453 53.965 57.676 C 55.491 58.003 57.003 57.712 58.508 57.45 C 59.816 57.221 61.124 56.987 62.304 56.778 C 63.054 57.951 63.749 59.017 64.431 60.09 C 64.997 60.979 65.564 61.87 65.774 62.93 C 65.935 63.74 65.729 64.429 65.068 64.929 C 64.45 65.397 63.826 65.871 63.152 66.254 C 62.295 66.744 61.544 67.325 60.949 68.118 C 60.648 68.519 60.548 68.476 60.336 68.047 C 60.259 67.892 60.046 67.714 59.893 67.71 C 59.619 67.707 59.349 67.777 59.111 67.913 C 57.812 68.687 57.523 70.662 58.517 71.807 C 58.739 72.062 59.011 72.081 59.262 71.909 C 59.517 71.743 59.742 71.535 59.928 71.294 C 60.608 70.358 61.495 69.685 62.537 69.22 C 63.437 68.818 64.192 68.226 64.936 67.593 C 65.47 67.139 66.082 66.775 66.66 66.371 C 66.705 66.34 66.757 66.317 66.805 66.288 C 68.513 65.324 68.93 64.302 68.387 62.409 C 68.352 62.306 68.349 62.195 68.378 62.09 C 68.582 62.366 68.795 62.639 68.99 62.923 C 69.809 64.089 70.618 65.269 71.443 66.434 C 71.943 67.134 72.483 67.802 72.961 68.516 C 73.54 69.366 73.969 70.309 74.228 71.305 C 74.313 71.607 74.434 71.898 74.587 72.172 Q 74.998 72.942 75.887 73.012 C 76.648 73.072 76.87 73.311 76.924 74.078 C 76.934 74.203 76.941 74.328 76.951 74.452 C 77.013 75.237 77.353 75.603 78.122 75.721 C 78.205 75.733 78.283 75.756 78.363 75.775 L 79.114 75.724 Z " fill="rgb(255,153,0)" vector-effect="non-scaling-stroke" stroke-width="0.2" stroke="rgb(255,255,255)" stroke-linejoin="miter" stroke-linecap="butt" stroke-miterlimit="4"/></g></svg>