<?xml version="1.0" standalone="no"?><!-- Generator: Gravit.io --><svg xmlns="http://www.w3.org/2000/svg" xmlns:xlink="http://www.w3.org/1999/xlink" style="isolation:isolate" viewBox="0 0 150 150" width="150" height="150"><defs><clipPath id="_clipPath_out79gxZS934xIvxQHg4Kn8jluuVBs87"><rect width="150" height="150"/></clipPath></defs><g clip-path="url(#_clipPath_out79gxZS934xIvxQHg4Kn8jluuVBs87)"><g><g><g><path d=" M 118.877 50.187 C 118.982 51.074 118.416 51.869 117.612 51.965 C 116.812 52.06 116.075 51.421 115.969 50.532 C 115.956 50.43 115.954 50.33 115.956 50.234 C 116.172 50.963 116.832 51.455 117.544 51.37 C 118.254 51.286 118.78 50.653 118.819 49.892 C 118.846 49.988 118.863 50.085 118.877 50.187 L 118.877 50.187 Z " fill-rule="evenodd" fill="rgb(87,87,87)"/><path d=" M 78.383 62.988 L 22.943 62.988 L 23.001 32.139 C 23.001 31.788 23.293 31.456 23.595 31.456 L 77.739 31.456 C 78.041 31.456 78.333 31.759 78.333 32.139 L 78.414 60.984 L 78.383 62.988 Z " fill-rule="evenodd" fill="rgb(255,255,255)" vector-effect="non-scaling-stroke" stroke-width="1" stroke="rgb(255,255,255)" stroke-linejoin="miter" stroke-linecap="butt" stroke-miterlimit="4"/><path d=" M 17.765 28.249 L 17.765 137.457 C 17.765 138.883 18.771 140.048 19.997 140.048 L 81.508 140.048 C 82.737 140.048 83.729 138.883 83.729 137.457 L 83.729 125.202 C 85.6 126.658 87.752 128.116 90.012 129.201 C 92.404 130.348 94.989 131.142 97.591 131.182 C 100.417 131.224 103.201 130.436 105.704 128.387 C 107.431 126.969 109.02 124.942 110.356 122.158 C 118.117 106.005 112.649 72.645 111.04 63.941 C 125.091 57.858 120.278 55.167 121.132 39.296 C 121.132 39.296 120.729 37.797 117.403 35.975 C 114.084 34.151 104.496 30.511 104.496 30.511 C 104.496 30.511 99.75 29.715 98.958 33.203 C 98.165 36.69 99.119 46.179 99.119 46.179 L 103.492 63.347 C 103.732 64.543 111.543 102.809 103.774 118.991 C 102.947 120.699 102.045 121.898 101.1 122.67 C 100.043 123.535 98.848 123.877 97.652 123.854 C 96.235 123.824 94.657 123.331 93.109 122.588 C 89.007 120.621 85.318 117.09 83.729 115.431 L 83.729 28.249 C 83.729 26.822 82.737 25.656 81.508 25.656 L 19.997 25.656 C 18.771 25.656 17.765 26.821 17.765 28.249 L 17.765 28.249 Z  M 106.267 46.883 C 109.009 46.168 111.873 45.366 114.395 45.157 C 115.041 45.105 115.754 45.505 116.396 46.22 C 111.271 49.547 113.994 52.613 117.03 56.251 C 115.843 58.072 113.733 59.677 110.317 60.672 L 109.772 58.814 L 109.714 58.603 L 106.267 46.883 Z  M 78.383 62.988 L 22.943 62.988 L 23.001 32.139 C 23.001 31.788 23.293 31.456 23.595 31.456 L 77.739 31.456 C 78.041 31.456 78.333 31.759 78.333 32.139 L 78.414 60.984 L 78.383 62.988 Z  M 117.815 54.714 C 115.352 51.869 113.451 49.97 117.159 47.306 C 118.295 49.255 118.969 51.971 117.815 54.714 L 117.815 54.714 Z " fill-rule="evenodd" fill="rgb(255,153,0)"/><path d=" M 106.267 46.883 C 109.009 46.168 111.873 45.366 114.395 45.157 C 115.041 45.105 115.754 45.505 116.396 46.22 C 111.271 49.547 113.994 52.613 117.03 56.251 C 115.843 58.072 113.733 59.677 110.317 60.672 L 109.772 58.814 L 109.714 58.603 L 106.267 46.883 Z " fill-rule="evenodd" fill="rgb(255,255,255)"/><path d=" M 89.059 136.474 L 12.448 136.474 L 12.448 145.981 C 12.448 147.035 13.011 147.91 13.725 148 L 13.845 148 L 87.661 148 L 87.781 148 C 88.494 147.91 89.059 147.035 89.059 145.981 L 89.059 136.474 L 89.059 136.474 Z " fill-rule="evenodd" fill="rgb(244,147,0)" vector-effect="non-scaling-stroke" stroke-width="1" stroke="rgb(244,147,0)" stroke-linejoin="miter" stroke-linecap="butt" stroke-miterlimit="4"/><path d=" M 131.222 10.96 C 131.222 10.96 131.222 21.054 136.169 18.279 C 141.112 15.502 131.222 10.96 131.222 10.96 L 131.222 10.96 Z " fill-rule="evenodd" fill="rgb(67,179,230)"/><path d=" M 122.821 15.794 C 124.87 13.787 127.023 12.148 128.629 11.807 L 129.253 11.686 L 128.629 8.79 L 128.488 8.176 L 127.873 8.297 C 125.815 8.729 123.122 10.68 120.62 13.041 C 117.544 15.926 114.699 19.484 113.612 21.644 L 113.382 22.109 L 116.256 24.37 L 116.607 23.675 C 117.544 21.806 120.075 18.489 122.821 15.794 L 122.821 15.794 Z " fill-rule="evenodd" fill="rgb(131,127,127)"/><path d=" M 115.433 28.171 C 117.03 24.963 111.441 21.345 109.421 24.007 C 108.175 25.655 105.439 29.266 105.129 29.594 L 112.968 33.125 L 115.433 28.171 Z " fill-rule="evenodd" fill="rgb(131,127,127)"/><path d=" M 106.267 46.883 C 109.009 46.168 111.873 45.366 114.395 45.157 C 115.041 45.105 115.754 45.505 116.396 46.22 C 111.271 49.547 113.994 52.613 117.03 56.251 C 115.843 58.072 113.733 59.677 110.317 60.672 L 109.772 58.814 L 109.714 58.603 L 106.267 46.883 Z  M 99.119 46.18 L 103.492 63.347 C 103.516 63.468 103.615 63.96 103.769 64.766 L 111.04 63.941 C 125.091 57.859 120.278 55.167 121.132 39.296 C 121.132 39.296 120.729 37.797 117.403 35.976 C 114.084 34.151 104.496 30.512 104.496 30.512 C 104.496 30.512 99.75 29.715 98.958 33.203 C 98.165 36.69 99.119 46.18 99.119 46.18 L 99.119 46.18 Z  M 117.815 54.714 C 115.352 51.869 113.451 49.97 117.159 47.306 C 118.295 49.255 118.969 51.971 117.815 54.714 L 117.815 54.714 Z " fill-rule="evenodd" fill="rgb(255,153,0)"/><path d=" M 93.108 122.589 C 89.007 120.622 85.318 117.09 83.729 115.431 L 83.729 125.202 C 85.6 126.658 87.752 128.116 90.012 129.201 C 92.403 130.348 94.989 131.142 97.591 131.182 C 100.417 131.224 103.201 130.436 105.703 128.387 C 107.431 126.969 109.02 124.942 110.356 122.158 C 118.117 106.005 112.648 72.645 111.039 63.941 L 103.769 64.765 C 105.142 71.997 110.763 104.431 103.774 118.992 C 102.947 120.699 102.044 121.898 101.1 122.671 C 100.043 123.535 98.847 123.877 97.651 123.854 C 96.234 123.825 94.657 123.332 93.108 122.589 L 93.108 122.589 Z " fill-rule="evenodd" fill="rgb(87,87,87)" vector-effect="non-scaling-stroke" stroke-width="1" stroke="rgb(87,87,87)" stroke-linejoin="miter" stroke-linecap="butt" stroke-miterlimit="4"/></g></g></g></g></svg>